G04 #@! TF.GenerationSoftware,KiCad,Pcbnew,7.0.2*
G04 #@! TF.CreationDate,2023-04-29T17:08:36+02:00*
G04 #@! TF.ProjectId,Tanuki_Ext_PCB,54616e75-6b69-45f4-9578-745f5043422e,rev?*
G04 #@! TF.SameCoordinates,Original*
G04 #@! TF.FileFunction,Soldermask,Top*
G04 #@! TF.FilePolarity,Negative*
%FSLAX46Y46*%
G04 Gerber Fmt 4.6, Leading zero omitted, Abs format (unit mm)*
G04 Created by KiCad (PCBNEW 7.0.2) date 2023-04-29 17:08:36*
%MOMM*%
%LPD*%
G01*
G04 APERTURE LIST*
%ADD10C,1.750000*%
%ADD11C,1.550000*%
%ADD12C,4.000000*%
%ADD13C,1.000000*%
%ADD14C,1.500000*%
%ADD15R,1.500000X0.900000*%
%ADD16C,0.650000*%
%ADD17O,1.000000X1.600000*%
%ADD18O,1.000000X2.100000*%
G04 APERTURE END LIST*
D10*
X230663750Y-85725000D03*
D11*
X231933750Y-83185000D03*
D12*
X235743750Y-85725000D03*
D11*
X238283750Y-80645000D03*
D10*
X240823750Y-85725000D03*
X44926250Y-28575000D03*
D11*
X46196250Y-26035000D03*
D12*
X50006250Y-28575000D03*
D11*
X52546250Y-23495000D03*
D10*
X55086250Y-28575000D03*
X230663750Y-66675000D03*
D11*
X231933750Y-64135000D03*
D12*
X235743750Y-66675000D03*
D11*
X238283750Y-61595000D03*
D10*
X240823750Y-66675000D03*
X42545000Y-85725000D03*
D11*
X43815000Y-83185000D03*
D12*
X47625000Y-85725000D03*
D11*
X50165000Y-80645000D03*
D10*
X52705000Y-85725000D03*
D13*
X263144000Y-50927000D03*
D10*
X78263750Y-66675000D03*
D11*
X79533750Y-64135000D03*
D12*
X83343750Y-66675000D03*
D11*
X85883750Y-61595000D03*
D10*
X88423750Y-66675000D03*
X159226250Y-28575000D03*
D11*
X160496250Y-26035000D03*
D12*
X164306250Y-28575000D03*
D11*
X166846250Y-23495000D03*
D10*
X169386250Y-28575000D03*
X154463750Y-66675000D03*
D11*
X155733750Y-64135000D03*
D12*
X159543750Y-66675000D03*
D11*
X162083750Y-61595000D03*
D10*
X164623750Y-66675000D03*
D13*
X258953000Y-33147000D03*
D10*
X183038750Y-47625000D03*
D11*
X184308750Y-45085000D03*
D12*
X188118750Y-47625000D03*
D11*
X190658750Y-42545000D03*
D10*
X193198750Y-47625000D03*
X163988750Y-47625000D03*
D11*
X165258750Y-45085000D03*
D12*
X169068750Y-47625000D03*
D11*
X171608750Y-42545000D03*
D10*
X174148750Y-47625000D03*
X121126250Y-28575000D03*
D11*
X122396250Y-26035000D03*
D12*
X126206250Y-28575000D03*
D11*
X128746250Y-23495000D03*
D10*
X131286250Y-28575000D03*
X49688750Y-47625000D03*
D11*
X50958750Y-45085000D03*
D12*
X54768750Y-47625000D03*
D11*
X57308750Y-42545000D03*
D10*
X59848750Y-47625000D03*
X237807500Y-28575000D03*
D11*
X239077500Y-26035000D03*
D12*
X242887500Y-28575000D03*
D11*
X245427500Y-23495000D03*
D10*
X247967500Y-28575000D03*
X242570000Y-47625000D03*
D11*
X243840000Y-45085000D03*
D12*
X247650000Y-47625000D03*
D11*
X250190000Y-42545000D03*
D10*
X252730000Y-47625000D03*
X183038750Y-85725000D03*
D11*
X184308750Y-83185000D03*
D12*
X188118750Y-85725000D03*
D11*
X190658750Y-80645000D03*
D10*
X193198750Y-85725000D03*
X154463750Y-85725000D03*
D11*
X155733750Y-83185000D03*
D12*
X159543750Y-85725000D03*
D11*
X162083750Y-80645000D03*
D10*
X164623750Y-85725000D03*
X211613750Y-66675000D03*
D11*
X212883750Y-64135000D03*
D12*
X216693750Y-66675000D03*
D11*
X219233750Y-61595000D03*
D10*
X221773750Y-66675000D03*
D13*
X274955000Y-28956000D03*
D10*
X87788750Y-47625000D03*
D11*
X89058750Y-45085000D03*
D12*
X92868750Y-47625000D03*
D11*
X95408750Y-42545000D03*
D10*
X97948750Y-47625000D03*
X173513750Y-66675000D03*
D11*
X174783750Y-64135000D03*
D12*
X178593750Y-66675000D03*
D11*
X181133750Y-61595000D03*
D10*
X183673750Y-66675000D03*
X59213750Y-66675000D03*
D11*
X60483750Y-64135000D03*
D12*
X64293750Y-66675000D03*
D11*
X66833750Y-61595000D03*
D10*
X69373750Y-66675000D03*
D13*
X258953000Y-29083000D03*
D14*
X253619000Y-52324000D03*
D10*
X135413750Y-66675000D03*
D11*
X136683750Y-64135000D03*
D12*
X140493750Y-66675000D03*
D11*
X143033750Y-61595000D03*
D10*
X145573750Y-66675000D03*
X249713750Y-85725000D03*
D11*
X250983750Y-83185000D03*
D12*
X254793750Y-85725000D03*
D11*
X257333750Y-80645000D03*
D10*
X259873750Y-85725000D03*
D13*
X262128000Y-49149000D03*
D10*
X216376250Y-28575000D03*
D11*
X217646250Y-26035000D03*
D12*
X221456250Y-28575000D03*
D11*
X223996250Y-23495000D03*
D10*
X226536250Y-28575000D03*
X178276250Y-28575000D03*
D11*
X179546250Y-26035000D03*
D12*
X183356250Y-28575000D03*
D11*
X185896250Y-23495000D03*
D10*
X188436250Y-28575000D03*
X249713750Y-66675000D03*
D11*
X250983750Y-64135000D03*
D12*
X254793750Y-66675000D03*
D11*
X257333750Y-61595000D03*
D10*
X259873750Y-66675000D03*
X83026250Y-28575000D03*
D11*
X84296250Y-26035000D03*
D12*
X88106250Y-28575000D03*
D11*
X90646250Y-23495000D03*
D10*
X93186250Y-28575000D03*
X87788750Y-85725000D03*
D11*
X89058750Y-83185000D03*
D12*
X92868750Y-85725000D03*
D11*
X95408750Y-80645000D03*
D10*
X97948750Y-85725000D03*
X202088750Y-47625000D03*
D11*
X203358750Y-45085000D03*
D12*
X207168750Y-47625000D03*
D11*
X209708750Y-42545000D03*
D10*
X212248750Y-47625000D03*
X97313750Y-66675000D03*
D11*
X98583750Y-64135000D03*
D12*
X102393750Y-66675000D03*
D11*
X104933750Y-61595000D03*
D10*
X107473750Y-66675000D03*
X140176250Y-28575000D03*
D11*
X141446250Y-26035000D03*
D12*
X145256250Y-28575000D03*
D11*
X147796250Y-23495000D03*
D10*
X150336250Y-28575000D03*
X125888750Y-47625000D03*
D11*
X127158750Y-45085000D03*
D12*
X130968750Y-47625000D03*
D11*
X133508750Y-42545000D03*
D10*
X136048750Y-47625000D03*
X197326250Y-28575000D03*
D11*
X198596250Y-26035000D03*
D12*
X202406250Y-28575000D03*
D11*
X204946250Y-23495000D03*
D10*
X207486250Y-28575000D03*
D14*
X253619000Y-23876000D03*
D13*
X279146000Y-28956000D03*
D10*
X23495000Y-28575000D03*
D11*
X24765000Y-26035000D03*
D12*
X28575000Y-28575000D03*
D11*
X31115000Y-23495000D03*
D10*
X33655000Y-28575000D03*
D15*
X271616000Y-49912000D03*
X271616000Y-53212000D03*
X276516000Y-53212000D03*
X276516000Y-49912000D03*
D10*
X28257500Y-47625000D03*
D11*
X29527500Y-45085000D03*
D12*
X33337500Y-47625000D03*
D11*
X35877500Y-42545000D03*
D10*
X38417500Y-47625000D03*
X37782500Y-66675000D03*
D11*
X39052500Y-64135000D03*
D12*
X42862500Y-66675000D03*
D11*
X45402500Y-61595000D03*
D10*
X47942500Y-66675000D03*
D13*
X258953000Y-31115000D03*
X272796000Y-28956000D03*
D15*
X271489000Y-41276000D03*
X271489000Y-44576000D03*
X276389000Y-44576000D03*
X276389000Y-41276000D03*
D10*
X116363750Y-66675000D03*
D11*
X117633750Y-64135000D03*
D12*
X121443750Y-66675000D03*
D11*
X123983750Y-61595000D03*
D10*
X126523750Y-66675000D03*
X192563750Y-66675000D03*
D11*
X193833750Y-64135000D03*
D12*
X197643750Y-66675000D03*
D11*
X200183750Y-61595000D03*
D10*
X202723750Y-66675000D03*
X144938750Y-47625000D03*
D11*
X146208750Y-45085000D03*
D12*
X150018750Y-47625000D03*
D11*
X152558750Y-42545000D03*
D10*
X155098750Y-47625000D03*
X116363750Y-85725000D03*
D11*
X117633750Y-83185000D03*
D12*
X121443750Y-85725000D03*
D11*
X123983750Y-80645000D03*
D10*
X126523750Y-85725000D03*
D15*
X271489000Y-58802000D03*
X271489000Y-62102000D03*
X276389000Y-62102000D03*
X276389000Y-58802000D03*
D10*
X106838750Y-47625000D03*
D11*
X108108750Y-45085000D03*
D12*
X111918750Y-47625000D03*
D11*
X114458750Y-42545000D03*
D10*
X116998750Y-47625000D03*
X66357500Y-85725000D03*
D11*
X67627500Y-83185000D03*
D12*
X71437500Y-85725000D03*
D11*
X73977500Y-80645000D03*
D10*
X76517500Y-85725000D03*
X204470000Y-85725000D03*
D11*
X205740000Y-83185000D03*
D12*
X209550000Y-85725000D03*
D11*
X212090000Y-80645000D03*
D10*
X214630000Y-85725000D03*
X268763750Y-85725000D03*
D11*
X270033750Y-83185000D03*
D12*
X273843750Y-85725000D03*
D11*
X276383750Y-80645000D03*
D10*
X278923750Y-85725000D03*
X102076250Y-28575000D03*
D11*
X103346250Y-26035000D03*
D12*
X107156250Y-28575000D03*
D11*
X109696250Y-23495000D03*
D10*
X112236250Y-28575000D03*
D13*
X261112000Y-50927000D03*
D14*
X278384000Y-23876000D03*
D13*
X264160000Y-49149000D03*
D10*
X221138750Y-47625000D03*
D11*
X222408750Y-45085000D03*
D12*
X226218750Y-47625000D03*
D11*
X228758750Y-42545000D03*
D10*
X231298750Y-47625000D03*
X68738750Y-47625000D03*
D11*
X70008750Y-45085000D03*
D12*
X73818750Y-47625000D03*
D11*
X76358750Y-42545000D03*
D10*
X78898750Y-47625000D03*
X63976250Y-28575000D03*
D11*
X65246250Y-26035000D03*
D12*
X69056250Y-28575000D03*
D11*
X71596250Y-23495000D03*
D10*
X74136250Y-28575000D03*
D13*
X277114000Y-28956000D03*
D16*
X265969000Y-25338000D03*
X271749000Y-25338000D03*
D17*
X264539000Y-21658000D03*
D18*
X264539000Y-25838000D03*
D17*
X273179000Y-21658000D03*
D18*
X273179000Y-25838000D03*
M02*
