G04 #@! TF.GenerationSoftware,KiCad,Pcbnew,7.0.2*
G04 #@! TF.CreationDate,2023-04-29T17:08:36+02:00*
G04 #@! TF.ProjectId,Tanuki_Ext_PCB,54616e75-6b69-45f4-9578-745f5043422e,rev?*
G04 #@! TF.SameCoordinates,Original*
G04 #@! TF.FileFunction,Legend,Top*
G04 #@! TF.FilePolarity,Positive*
%FSLAX46Y46*%
G04 Gerber Fmt 4.6, Leading zero omitted, Abs format (unit mm)*
G04 Created by KiCad (PCBNEW 7.0.2) date 2023-04-29 17:08:36*
%MOMM*%
%LPD*%
G01*
G04 APERTURE LIST*
%ADD10C,0.150000*%
%ADD11C,0.120000*%
%ADD12C,0.100000*%
%ADD13C,1.000000*%
%ADD14C,1.750000*%
%ADD15C,1.550000*%
%ADD16C,4.000000*%
%ADD17C,1.000000*%
%ADD18C,1.500000*%
%ADD19R,1.500000X0.900000*%
%ADD20C,0.650000*%
%ADD21O,1.000000X1.600000*%
%ADD22O,1.000000X2.100000*%
G04 APERTURE END LIST*
D10*
X233458036Y-78140000D02*
X233600893Y-78187619D01*
X233600893Y-78187619D02*
X233838988Y-78187619D01*
X233838988Y-78187619D02*
X233934226Y-78140000D01*
X233934226Y-78140000D02*
X233981845Y-78092380D01*
X233981845Y-78092380D02*
X234029464Y-77997142D01*
X234029464Y-77997142D02*
X234029464Y-77901904D01*
X234029464Y-77901904D02*
X233981845Y-77806666D01*
X233981845Y-77806666D02*
X233934226Y-77759047D01*
X233934226Y-77759047D02*
X233838988Y-77711428D01*
X233838988Y-77711428D02*
X233648512Y-77663809D01*
X233648512Y-77663809D02*
X233553274Y-77616190D01*
X233553274Y-77616190D02*
X233505655Y-77568571D01*
X233505655Y-77568571D02*
X233458036Y-77473333D01*
X233458036Y-77473333D02*
X233458036Y-77378095D01*
X233458036Y-77378095D02*
X233505655Y-77282857D01*
X233505655Y-77282857D02*
X233553274Y-77235238D01*
X233553274Y-77235238D02*
X233648512Y-77187619D01*
X233648512Y-77187619D02*
X233886607Y-77187619D01*
X233886607Y-77187619D02*
X234029464Y-77235238D01*
X234362798Y-77187619D02*
X234600893Y-78187619D01*
X234600893Y-78187619D02*
X234791369Y-77473333D01*
X234791369Y-77473333D02*
X234981845Y-78187619D01*
X234981845Y-78187619D02*
X235219941Y-77187619D01*
X235505655Y-77187619D02*
X236124702Y-77187619D01*
X236124702Y-77187619D02*
X235791369Y-77568571D01*
X235791369Y-77568571D02*
X235934226Y-77568571D01*
X235934226Y-77568571D02*
X236029464Y-77616190D01*
X236029464Y-77616190D02*
X236077083Y-77663809D01*
X236077083Y-77663809D02*
X236124702Y-77759047D01*
X236124702Y-77759047D02*
X236124702Y-77997142D01*
X236124702Y-77997142D02*
X236077083Y-78092380D01*
X236077083Y-78092380D02*
X236029464Y-78140000D01*
X236029464Y-78140000D02*
X235934226Y-78187619D01*
X235934226Y-78187619D02*
X235648512Y-78187619D01*
X235648512Y-78187619D02*
X235553274Y-78140000D01*
X235553274Y-78140000D02*
X235505655Y-78092380D01*
X236458036Y-77187619D02*
X237077083Y-77187619D01*
X237077083Y-77187619D02*
X236743750Y-77568571D01*
X236743750Y-77568571D02*
X236886607Y-77568571D01*
X236886607Y-77568571D02*
X236981845Y-77616190D01*
X236981845Y-77616190D02*
X237029464Y-77663809D01*
X237029464Y-77663809D02*
X237077083Y-77759047D01*
X237077083Y-77759047D02*
X237077083Y-77997142D01*
X237077083Y-77997142D02*
X237029464Y-78092380D01*
X237029464Y-78092380D02*
X236981845Y-78140000D01*
X236981845Y-78140000D02*
X236886607Y-78187619D01*
X236886607Y-78187619D02*
X236600893Y-78187619D01*
X236600893Y-78187619D02*
X236505655Y-78140000D01*
X236505655Y-78140000D02*
X236458036Y-78092380D01*
X237648512Y-77616190D02*
X237553274Y-77568571D01*
X237553274Y-77568571D02*
X237505655Y-77520952D01*
X237505655Y-77520952D02*
X237458036Y-77425714D01*
X237458036Y-77425714D02*
X237458036Y-77378095D01*
X237458036Y-77378095D02*
X237505655Y-77282857D01*
X237505655Y-77282857D02*
X237553274Y-77235238D01*
X237553274Y-77235238D02*
X237648512Y-77187619D01*
X237648512Y-77187619D02*
X237838988Y-77187619D01*
X237838988Y-77187619D02*
X237934226Y-77235238D01*
X237934226Y-77235238D02*
X237981845Y-77282857D01*
X237981845Y-77282857D02*
X238029464Y-77378095D01*
X238029464Y-77378095D02*
X238029464Y-77425714D01*
X238029464Y-77425714D02*
X237981845Y-77520952D01*
X237981845Y-77520952D02*
X237934226Y-77568571D01*
X237934226Y-77568571D02*
X237838988Y-77616190D01*
X237838988Y-77616190D02*
X237648512Y-77616190D01*
X237648512Y-77616190D02*
X237553274Y-77663809D01*
X237553274Y-77663809D02*
X237505655Y-77711428D01*
X237505655Y-77711428D02*
X237458036Y-77806666D01*
X237458036Y-77806666D02*
X237458036Y-77997142D01*
X237458036Y-77997142D02*
X237505655Y-78092380D01*
X237505655Y-78092380D02*
X237553274Y-78140000D01*
X237553274Y-78140000D02*
X237648512Y-78187619D01*
X237648512Y-78187619D02*
X237838988Y-78187619D01*
X237838988Y-78187619D02*
X237934226Y-78140000D01*
X237934226Y-78140000D02*
X237981845Y-78092380D01*
X237981845Y-78092380D02*
X238029464Y-77997142D01*
X238029464Y-77997142D02*
X238029464Y-77806666D01*
X238029464Y-77806666D02*
X237981845Y-77711428D01*
X237981845Y-77711428D02*
X237934226Y-77663809D01*
X237934226Y-77663809D02*
X237838988Y-77616190D01*
X47720536Y-20990000D02*
X47863393Y-21037619D01*
X47863393Y-21037619D02*
X48101488Y-21037619D01*
X48101488Y-21037619D02*
X48196726Y-20990000D01*
X48196726Y-20990000D02*
X48244345Y-20942380D01*
X48244345Y-20942380D02*
X48291964Y-20847142D01*
X48291964Y-20847142D02*
X48291964Y-20751904D01*
X48291964Y-20751904D02*
X48244345Y-20656666D01*
X48244345Y-20656666D02*
X48196726Y-20609047D01*
X48196726Y-20609047D02*
X48101488Y-20561428D01*
X48101488Y-20561428D02*
X47911012Y-20513809D01*
X47911012Y-20513809D02*
X47815774Y-20466190D01*
X47815774Y-20466190D02*
X47768155Y-20418571D01*
X47768155Y-20418571D02*
X47720536Y-20323333D01*
X47720536Y-20323333D02*
X47720536Y-20228095D01*
X47720536Y-20228095D02*
X47768155Y-20132857D01*
X47768155Y-20132857D02*
X47815774Y-20085238D01*
X47815774Y-20085238D02*
X47911012Y-20037619D01*
X47911012Y-20037619D02*
X48149107Y-20037619D01*
X48149107Y-20037619D02*
X48291964Y-20085238D01*
X48625298Y-20037619D02*
X48863393Y-21037619D01*
X48863393Y-21037619D02*
X49053869Y-20323333D01*
X49053869Y-20323333D02*
X49244345Y-21037619D01*
X49244345Y-21037619D02*
X49482441Y-20037619D01*
X49768155Y-20037619D02*
X50387202Y-20037619D01*
X50387202Y-20037619D02*
X50053869Y-20418571D01*
X50053869Y-20418571D02*
X50196726Y-20418571D01*
X50196726Y-20418571D02*
X50291964Y-20466190D01*
X50291964Y-20466190D02*
X50339583Y-20513809D01*
X50339583Y-20513809D02*
X50387202Y-20609047D01*
X50387202Y-20609047D02*
X50387202Y-20847142D01*
X50387202Y-20847142D02*
X50339583Y-20942380D01*
X50339583Y-20942380D02*
X50291964Y-20990000D01*
X50291964Y-20990000D02*
X50196726Y-21037619D01*
X50196726Y-21037619D02*
X49911012Y-21037619D01*
X49911012Y-21037619D02*
X49815774Y-20990000D01*
X49815774Y-20990000D02*
X49768155Y-20942380D01*
X51006250Y-20037619D02*
X51101488Y-20037619D01*
X51101488Y-20037619D02*
X51196726Y-20085238D01*
X51196726Y-20085238D02*
X51244345Y-20132857D01*
X51244345Y-20132857D02*
X51291964Y-20228095D01*
X51291964Y-20228095D02*
X51339583Y-20418571D01*
X51339583Y-20418571D02*
X51339583Y-20656666D01*
X51339583Y-20656666D02*
X51291964Y-20847142D01*
X51291964Y-20847142D02*
X51244345Y-20942380D01*
X51244345Y-20942380D02*
X51196726Y-20990000D01*
X51196726Y-20990000D02*
X51101488Y-21037619D01*
X51101488Y-21037619D02*
X51006250Y-21037619D01*
X51006250Y-21037619D02*
X50911012Y-20990000D01*
X50911012Y-20990000D02*
X50863393Y-20942380D01*
X50863393Y-20942380D02*
X50815774Y-20847142D01*
X50815774Y-20847142D02*
X50768155Y-20656666D01*
X50768155Y-20656666D02*
X50768155Y-20418571D01*
X50768155Y-20418571D02*
X50815774Y-20228095D01*
X50815774Y-20228095D02*
X50863393Y-20132857D01*
X50863393Y-20132857D02*
X50911012Y-20085238D01*
X50911012Y-20085238D02*
X51006250Y-20037619D01*
X52244345Y-20037619D02*
X51768155Y-20037619D01*
X51768155Y-20037619D02*
X51720536Y-20513809D01*
X51720536Y-20513809D02*
X51768155Y-20466190D01*
X51768155Y-20466190D02*
X51863393Y-20418571D01*
X51863393Y-20418571D02*
X52101488Y-20418571D01*
X52101488Y-20418571D02*
X52196726Y-20466190D01*
X52196726Y-20466190D02*
X52244345Y-20513809D01*
X52244345Y-20513809D02*
X52291964Y-20609047D01*
X52291964Y-20609047D02*
X52291964Y-20847142D01*
X52291964Y-20847142D02*
X52244345Y-20942380D01*
X52244345Y-20942380D02*
X52196726Y-20990000D01*
X52196726Y-20990000D02*
X52101488Y-21037619D01*
X52101488Y-21037619D02*
X51863393Y-21037619D01*
X51863393Y-21037619D02*
X51768155Y-20990000D01*
X51768155Y-20990000D02*
X51720536Y-20942380D01*
X233458036Y-59090000D02*
X233600893Y-59137619D01*
X233600893Y-59137619D02*
X233838988Y-59137619D01*
X233838988Y-59137619D02*
X233934226Y-59090000D01*
X233934226Y-59090000D02*
X233981845Y-59042380D01*
X233981845Y-59042380D02*
X234029464Y-58947142D01*
X234029464Y-58947142D02*
X234029464Y-58851904D01*
X234029464Y-58851904D02*
X233981845Y-58756666D01*
X233981845Y-58756666D02*
X233934226Y-58709047D01*
X233934226Y-58709047D02*
X233838988Y-58661428D01*
X233838988Y-58661428D02*
X233648512Y-58613809D01*
X233648512Y-58613809D02*
X233553274Y-58566190D01*
X233553274Y-58566190D02*
X233505655Y-58518571D01*
X233505655Y-58518571D02*
X233458036Y-58423333D01*
X233458036Y-58423333D02*
X233458036Y-58328095D01*
X233458036Y-58328095D02*
X233505655Y-58232857D01*
X233505655Y-58232857D02*
X233553274Y-58185238D01*
X233553274Y-58185238D02*
X233648512Y-58137619D01*
X233648512Y-58137619D02*
X233886607Y-58137619D01*
X233886607Y-58137619D02*
X234029464Y-58185238D01*
X234362798Y-58137619D02*
X234600893Y-59137619D01*
X234600893Y-59137619D02*
X234791369Y-58423333D01*
X234791369Y-58423333D02*
X234981845Y-59137619D01*
X234981845Y-59137619D02*
X235219941Y-58137619D01*
X235505655Y-58137619D02*
X236124702Y-58137619D01*
X236124702Y-58137619D02*
X235791369Y-58518571D01*
X235791369Y-58518571D02*
X235934226Y-58518571D01*
X235934226Y-58518571D02*
X236029464Y-58566190D01*
X236029464Y-58566190D02*
X236077083Y-58613809D01*
X236077083Y-58613809D02*
X236124702Y-58709047D01*
X236124702Y-58709047D02*
X236124702Y-58947142D01*
X236124702Y-58947142D02*
X236077083Y-59042380D01*
X236077083Y-59042380D02*
X236029464Y-59090000D01*
X236029464Y-59090000D02*
X235934226Y-59137619D01*
X235934226Y-59137619D02*
X235648512Y-59137619D01*
X235648512Y-59137619D02*
X235553274Y-59090000D01*
X235553274Y-59090000D02*
X235505655Y-59042380D01*
X236981845Y-58470952D02*
X236981845Y-59137619D01*
X236743750Y-58090000D02*
X236505655Y-58804285D01*
X236505655Y-58804285D02*
X237124702Y-58804285D01*
X238029464Y-59137619D02*
X237458036Y-59137619D01*
X237743750Y-59137619D02*
X237743750Y-58137619D01*
X237743750Y-58137619D02*
X237648512Y-58280476D01*
X237648512Y-58280476D02*
X237553274Y-58375714D01*
X237553274Y-58375714D02*
X237458036Y-58423333D01*
X45339286Y-78140000D02*
X45482143Y-78187619D01*
X45482143Y-78187619D02*
X45720238Y-78187619D01*
X45720238Y-78187619D02*
X45815476Y-78140000D01*
X45815476Y-78140000D02*
X45863095Y-78092380D01*
X45863095Y-78092380D02*
X45910714Y-77997142D01*
X45910714Y-77997142D02*
X45910714Y-77901904D01*
X45910714Y-77901904D02*
X45863095Y-77806666D01*
X45863095Y-77806666D02*
X45815476Y-77759047D01*
X45815476Y-77759047D02*
X45720238Y-77711428D01*
X45720238Y-77711428D02*
X45529762Y-77663809D01*
X45529762Y-77663809D02*
X45434524Y-77616190D01*
X45434524Y-77616190D02*
X45386905Y-77568571D01*
X45386905Y-77568571D02*
X45339286Y-77473333D01*
X45339286Y-77473333D02*
X45339286Y-77378095D01*
X45339286Y-77378095D02*
X45386905Y-77282857D01*
X45386905Y-77282857D02*
X45434524Y-77235238D01*
X45434524Y-77235238D02*
X45529762Y-77187619D01*
X45529762Y-77187619D02*
X45767857Y-77187619D01*
X45767857Y-77187619D02*
X45910714Y-77235238D01*
X46244048Y-77187619D02*
X46482143Y-78187619D01*
X46482143Y-78187619D02*
X46672619Y-77473333D01*
X46672619Y-77473333D02*
X46863095Y-78187619D01*
X46863095Y-78187619D02*
X47101191Y-77187619D01*
X47386905Y-77187619D02*
X48005952Y-77187619D01*
X48005952Y-77187619D02*
X47672619Y-77568571D01*
X47672619Y-77568571D02*
X47815476Y-77568571D01*
X47815476Y-77568571D02*
X47910714Y-77616190D01*
X47910714Y-77616190D02*
X47958333Y-77663809D01*
X47958333Y-77663809D02*
X48005952Y-77759047D01*
X48005952Y-77759047D02*
X48005952Y-77997142D01*
X48005952Y-77997142D02*
X47958333Y-78092380D01*
X47958333Y-78092380D02*
X47910714Y-78140000D01*
X47910714Y-78140000D02*
X47815476Y-78187619D01*
X47815476Y-78187619D02*
X47529762Y-78187619D01*
X47529762Y-78187619D02*
X47434524Y-78140000D01*
X47434524Y-78140000D02*
X47386905Y-78092380D01*
X48625000Y-77187619D02*
X48720238Y-77187619D01*
X48720238Y-77187619D02*
X48815476Y-77235238D01*
X48815476Y-77235238D02*
X48863095Y-77282857D01*
X48863095Y-77282857D02*
X48910714Y-77378095D01*
X48910714Y-77378095D02*
X48958333Y-77568571D01*
X48958333Y-77568571D02*
X48958333Y-77806666D01*
X48958333Y-77806666D02*
X48910714Y-77997142D01*
X48910714Y-77997142D02*
X48863095Y-78092380D01*
X48863095Y-78092380D02*
X48815476Y-78140000D01*
X48815476Y-78140000D02*
X48720238Y-78187619D01*
X48720238Y-78187619D02*
X48625000Y-78187619D01*
X48625000Y-78187619D02*
X48529762Y-78140000D01*
X48529762Y-78140000D02*
X48482143Y-78092380D01*
X48482143Y-78092380D02*
X48434524Y-77997142D01*
X48434524Y-77997142D02*
X48386905Y-77806666D01*
X48386905Y-77806666D02*
X48386905Y-77568571D01*
X48386905Y-77568571D02*
X48434524Y-77378095D01*
X48434524Y-77378095D02*
X48482143Y-77282857D01*
X48482143Y-77282857D02*
X48529762Y-77235238D01*
X48529762Y-77235238D02*
X48625000Y-77187619D01*
X49815476Y-77520952D02*
X49815476Y-78187619D01*
X49577381Y-77140000D02*
X49339286Y-77854285D01*
X49339286Y-77854285D02*
X49958333Y-77854285D01*
X262606619Y-56443285D02*
X262606619Y-55871857D01*
X263606619Y-56157571D02*
X262606619Y-56157571D01*
X263606619Y-55538523D02*
X262606619Y-55538523D01*
X262606619Y-55538523D02*
X262606619Y-55157571D01*
X262606619Y-55157571D02*
X262654238Y-55062333D01*
X262654238Y-55062333D02*
X262701857Y-55014714D01*
X262701857Y-55014714D02*
X262797095Y-54967095D01*
X262797095Y-54967095D02*
X262939952Y-54967095D01*
X262939952Y-54967095D02*
X263035190Y-55014714D01*
X263035190Y-55014714D02*
X263082809Y-55062333D01*
X263082809Y-55062333D02*
X263130428Y-55157571D01*
X263130428Y-55157571D02*
X263130428Y-55538523D01*
X263606619Y-54014714D02*
X263606619Y-54586142D01*
X263606619Y-54300428D02*
X262606619Y-54300428D01*
X262606619Y-54300428D02*
X262749476Y-54395666D01*
X262749476Y-54395666D02*
X262844714Y-54490904D01*
X262844714Y-54490904D02*
X262892333Y-54586142D01*
X262606619Y-53395666D02*
X262606619Y-53300428D01*
X262606619Y-53300428D02*
X262654238Y-53205190D01*
X262654238Y-53205190D02*
X262701857Y-53157571D01*
X262701857Y-53157571D02*
X262797095Y-53109952D01*
X262797095Y-53109952D02*
X262987571Y-53062333D01*
X262987571Y-53062333D02*
X263225666Y-53062333D01*
X263225666Y-53062333D02*
X263416142Y-53109952D01*
X263416142Y-53109952D02*
X263511380Y-53157571D01*
X263511380Y-53157571D02*
X263559000Y-53205190D01*
X263559000Y-53205190D02*
X263606619Y-53300428D01*
X263606619Y-53300428D02*
X263606619Y-53395666D01*
X263606619Y-53395666D02*
X263559000Y-53490904D01*
X263559000Y-53490904D02*
X263511380Y-53538523D01*
X263511380Y-53538523D02*
X263416142Y-53586142D01*
X263416142Y-53586142D02*
X263225666Y-53633761D01*
X263225666Y-53633761D02*
X262987571Y-53633761D01*
X262987571Y-53633761D02*
X262797095Y-53586142D01*
X262797095Y-53586142D02*
X262701857Y-53538523D01*
X262701857Y-53538523D02*
X262654238Y-53490904D01*
X262654238Y-53490904D02*
X262606619Y-53395666D01*
X262606619Y-52728999D02*
X262606619Y-52109952D01*
X262606619Y-52109952D02*
X262987571Y-52443285D01*
X262987571Y-52443285D02*
X262987571Y-52300428D01*
X262987571Y-52300428D02*
X263035190Y-52205190D01*
X263035190Y-52205190D02*
X263082809Y-52157571D01*
X263082809Y-52157571D02*
X263178047Y-52109952D01*
X263178047Y-52109952D02*
X263416142Y-52109952D01*
X263416142Y-52109952D02*
X263511380Y-52157571D01*
X263511380Y-52157571D02*
X263559000Y-52205190D01*
X263559000Y-52205190D02*
X263606619Y-52300428D01*
X263606619Y-52300428D02*
X263606619Y-52586142D01*
X263606619Y-52586142D02*
X263559000Y-52681380D01*
X263559000Y-52681380D02*
X263511380Y-52728999D01*
X81058036Y-59090000D02*
X81200893Y-59137619D01*
X81200893Y-59137619D02*
X81438988Y-59137619D01*
X81438988Y-59137619D02*
X81534226Y-59090000D01*
X81534226Y-59090000D02*
X81581845Y-59042380D01*
X81581845Y-59042380D02*
X81629464Y-58947142D01*
X81629464Y-58947142D02*
X81629464Y-58851904D01*
X81629464Y-58851904D02*
X81581845Y-58756666D01*
X81581845Y-58756666D02*
X81534226Y-58709047D01*
X81534226Y-58709047D02*
X81438988Y-58661428D01*
X81438988Y-58661428D02*
X81248512Y-58613809D01*
X81248512Y-58613809D02*
X81153274Y-58566190D01*
X81153274Y-58566190D02*
X81105655Y-58518571D01*
X81105655Y-58518571D02*
X81058036Y-58423333D01*
X81058036Y-58423333D02*
X81058036Y-58328095D01*
X81058036Y-58328095D02*
X81105655Y-58232857D01*
X81105655Y-58232857D02*
X81153274Y-58185238D01*
X81153274Y-58185238D02*
X81248512Y-58137619D01*
X81248512Y-58137619D02*
X81486607Y-58137619D01*
X81486607Y-58137619D02*
X81629464Y-58185238D01*
X81962798Y-58137619D02*
X82200893Y-59137619D01*
X82200893Y-59137619D02*
X82391369Y-58423333D01*
X82391369Y-58423333D02*
X82581845Y-59137619D01*
X82581845Y-59137619D02*
X82819941Y-58137619D01*
X83105655Y-58137619D02*
X83724702Y-58137619D01*
X83724702Y-58137619D02*
X83391369Y-58518571D01*
X83391369Y-58518571D02*
X83534226Y-58518571D01*
X83534226Y-58518571D02*
X83629464Y-58566190D01*
X83629464Y-58566190D02*
X83677083Y-58613809D01*
X83677083Y-58613809D02*
X83724702Y-58709047D01*
X83724702Y-58709047D02*
X83724702Y-58947142D01*
X83724702Y-58947142D02*
X83677083Y-59042380D01*
X83677083Y-59042380D02*
X83629464Y-59090000D01*
X83629464Y-59090000D02*
X83534226Y-59137619D01*
X83534226Y-59137619D02*
X83248512Y-59137619D01*
X83248512Y-59137619D02*
X83153274Y-59090000D01*
X83153274Y-59090000D02*
X83105655Y-59042380D01*
X84677083Y-59137619D02*
X84105655Y-59137619D01*
X84391369Y-59137619D02*
X84391369Y-58137619D01*
X84391369Y-58137619D02*
X84296131Y-58280476D01*
X84296131Y-58280476D02*
X84200893Y-58375714D01*
X84200893Y-58375714D02*
X84105655Y-58423333D01*
X85629464Y-59137619D02*
X85058036Y-59137619D01*
X85343750Y-59137619D02*
X85343750Y-58137619D01*
X85343750Y-58137619D02*
X85248512Y-58280476D01*
X85248512Y-58280476D02*
X85153274Y-58375714D01*
X85153274Y-58375714D02*
X85058036Y-58423333D01*
X162020536Y-20990000D02*
X162163393Y-21037619D01*
X162163393Y-21037619D02*
X162401488Y-21037619D01*
X162401488Y-21037619D02*
X162496726Y-20990000D01*
X162496726Y-20990000D02*
X162544345Y-20942380D01*
X162544345Y-20942380D02*
X162591964Y-20847142D01*
X162591964Y-20847142D02*
X162591964Y-20751904D01*
X162591964Y-20751904D02*
X162544345Y-20656666D01*
X162544345Y-20656666D02*
X162496726Y-20609047D01*
X162496726Y-20609047D02*
X162401488Y-20561428D01*
X162401488Y-20561428D02*
X162211012Y-20513809D01*
X162211012Y-20513809D02*
X162115774Y-20466190D01*
X162115774Y-20466190D02*
X162068155Y-20418571D01*
X162068155Y-20418571D02*
X162020536Y-20323333D01*
X162020536Y-20323333D02*
X162020536Y-20228095D01*
X162020536Y-20228095D02*
X162068155Y-20132857D01*
X162068155Y-20132857D02*
X162115774Y-20085238D01*
X162115774Y-20085238D02*
X162211012Y-20037619D01*
X162211012Y-20037619D02*
X162449107Y-20037619D01*
X162449107Y-20037619D02*
X162591964Y-20085238D01*
X162925298Y-20037619D02*
X163163393Y-21037619D01*
X163163393Y-21037619D02*
X163353869Y-20323333D01*
X163353869Y-20323333D02*
X163544345Y-21037619D01*
X163544345Y-21037619D02*
X163782441Y-20037619D01*
X164068155Y-20037619D02*
X164687202Y-20037619D01*
X164687202Y-20037619D02*
X164353869Y-20418571D01*
X164353869Y-20418571D02*
X164496726Y-20418571D01*
X164496726Y-20418571D02*
X164591964Y-20466190D01*
X164591964Y-20466190D02*
X164639583Y-20513809D01*
X164639583Y-20513809D02*
X164687202Y-20609047D01*
X164687202Y-20609047D02*
X164687202Y-20847142D01*
X164687202Y-20847142D02*
X164639583Y-20942380D01*
X164639583Y-20942380D02*
X164591964Y-20990000D01*
X164591964Y-20990000D02*
X164496726Y-21037619D01*
X164496726Y-21037619D02*
X164211012Y-21037619D01*
X164211012Y-21037619D02*
X164115774Y-20990000D01*
X164115774Y-20990000D02*
X164068155Y-20942380D01*
X165068155Y-20132857D02*
X165115774Y-20085238D01*
X165115774Y-20085238D02*
X165211012Y-20037619D01*
X165211012Y-20037619D02*
X165449107Y-20037619D01*
X165449107Y-20037619D02*
X165544345Y-20085238D01*
X165544345Y-20085238D02*
X165591964Y-20132857D01*
X165591964Y-20132857D02*
X165639583Y-20228095D01*
X165639583Y-20228095D02*
X165639583Y-20323333D01*
X165639583Y-20323333D02*
X165591964Y-20466190D01*
X165591964Y-20466190D02*
X165020536Y-21037619D01*
X165020536Y-21037619D02*
X165639583Y-21037619D01*
X165972917Y-20037619D02*
X166639583Y-20037619D01*
X166639583Y-20037619D02*
X166211012Y-21037619D01*
X157258036Y-59090000D02*
X157400893Y-59137619D01*
X157400893Y-59137619D02*
X157638988Y-59137619D01*
X157638988Y-59137619D02*
X157734226Y-59090000D01*
X157734226Y-59090000D02*
X157781845Y-59042380D01*
X157781845Y-59042380D02*
X157829464Y-58947142D01*
X157829464Y-58947142D02*
X157829464Y-58851904D01*
X157829464Y-58851904D02*
X157781845Y-58756666D01*
X157781845Y-58756666D02*
X157734226Y-58709047D01*
X157734226Y-58709047D02*
X157638988Y-58661428D01*
X157638988Y-58661428D02*
X157448512Y-58613809D01*
X157448512Y-58613809D02*
X157353274Y-58566190D01*
X157353274Y-58566190D02*
X157305655Y-58518571D01*
X157305655Y-58518571D02*
X157258036Y-58423333D01*
X157258036Y-58423333D02*
X157258036Y-58328095D01*
X157258036Y-58328095D02*
X157305655Y-58232857D01*
X157305655Y-58232857D02*
X157353274Y-58185238D01*
X157353274Y-58185238D02*
X157448512Y-58137619D01*
X157448512Y-58137619D02*
X157686607Y-58137619D01*
X157686607Y-58137619D02*
X157829464Y-58185238D01*
X158162798Y-58137619D02*
X158400893Y-59137619D01*
X158400893Y-59137619D02*
X158591369Y-58423333D01*
X158591369Y-58423333D02*
X158781845Y-59137619D01*
X158781845Y-59137619D02*
X159019941Y-58137619D01*
X159305655Y-58137619D02*
X159924702Y-58137619D01*
X159924702Y-58137619D02*
X159591369Y-58518571D01*
X159591369Y-58518571D02*
X159734226Y-58518571D01*
X159734226Y-58518571D02*
X159829464Y-58566190D01*
X159829464Y-58566190D02*
X159877083Y-58613809D01*
X159877083Y-58613809D02*
X159924702Y-58709047D01*
X159924702Y-58709047D02*
X159924702Y-58947142D01*
X159924702Y-58947142D02*
X159877083Y-59042380D01*
X159877083Y-59042380D02*
X159829464Y-59090000D01*
X159829464Y-59090000D02*
X159734226Y-59137619D01*
X159734226Y-59137619D02*
X159448512Y-59137619D01*
X159448512Y-59137619D02*
X159353274Y-59090000D01*
X159353274Y-59090000D02*
X159305655Y-59042380D01*
X160305655Y-58232857D02*
X160353274Y-58185238D01*
X160353274Y-58185238D02*
X160448512Y-58137619D01*
X160448512Y-58137619D02*
X160686607Y-58137619D01*
X160686607Y-58137619D02*
X160781845Y-58185238D01*
X160781845Y-58185238D02*
X160829464Y-58232857D01*
X160829464Y-58232857D02*
X160877083Y-58328095D01*
X160877083Y-58328095D02*
X160877083Y-58423333D01*
X160877083Y-58423333D02*
X160829464Y-58566190D01*
X160829464Y-58566190D02*
X160258036Y-59137619D01*
X160258036Y-59137619D02*
X160877083Y-59137619D01*
X161781845Y-58137619D02*
X161305655Y-58137619D01*
X161305655Y-58137619D02*
X161258036Y-58613809D01*
X161258036Y-58613809D02*
X161305655Y-58566190D01*
X161305655Y-58566190D02*
X161400893Y-58518571D01*
X161400893Y-58518571D02*
X161638988Y-58518571D01*
X161638988Y-58518571D02*
X161734226Y-58566190D01*
X161734226Y-58566190D02*
X161781845Y-58613809D01*
X161781845Y-58613809D02*
X161829464Y-58709047D01*
X161829464Y-58709047D02*
X161829464Y-58947142D01*
X161829464Y-58947142D02*
X161781845Y-59042380D01*
X161781845Y-59042380D02*
X161734226Y-59090000D01*
X161734226Y-59090000D02*
X161638988Y-59137619D01*
X161638988Y-59137619D02*
X161400893Y-59137619D01*
X161400893Y-59137619D02*
X161305655Y-59090000D01*
X161305655Y-59090000D02*
X161258036Y-59042380D01*
X253436714Y-32609619D02*
X254008142Y-32609619D01*
X253722428Y-33609619D02*
X253722428Y-32609619D01*
X254341476Y-33609619D02*
X254341476Y-32609619D01*
X254341476Y-32609619D02*
X254722428Y-32609619D01*
X254722428Y-32609619D02*
X254817666Y-32657238D01*
X254817666Y-32657238D02*
X254865285Y-32704857D01*
X254865285Y-32704857D02*
X254912904Y-32800095D01*
X254912904Y-32800095D02*
X254912904Y-32942952D01*
X254912904Y-32942952D02*
X254865285Y-33038190D01*
X254865285Y-33038190D02*
X254817666Y-33085809D01*
X254817666Y-33085809D02*
X254722428Y-33133428D01*
X254722428Y-33133428D02*
X254341476Y-33133428D01*
X255293857Y-32704857D02*
X255341476Y-32657238D01*
X255341476Y-32657238D02*
X255436714Y-32609619D01*
X255436714Y-32609619D02*
X255674809Y-32609619D01*
X255674809Y-32609619D02*
X255770047Y-32657238D01*
X255770047Y-32657238D02*
X255817666Y-32704857D01*
X255817666Y-32704857D02*
X255865285Y-32800095D01*
X255865285Y-32800095D02*
X255865285Y-32895333D01*
X255865285Y-32895333D02*
X255817666Y-33038190D01*
X255817666Y-33038190D02*
X255246238Y-33609619D01*
X255246238Y-33609619D02*
X255865285Y-33609619D01*
X256484333Y-32609619D02*
X256579571Y-32609619D01*
X256579571Y-32609619D02*
X256674809Y-32657238D01*
X256674809Y-32657238D02*
X256722428Y-32704857D01*
X256722428Y-32704857D02*
X256770047Y-32800095D01*
X256770047Y-32800095D02*
X256817666Y-32990571D01*
X256817666Y-32990571D02*
X256817666Y-33228666D01*
X256817666Y-33228666D02*
X256770047Y-33419142D01*
X256770047Y-33419142D02*
X256722428Y-33514380D01*
X256722428Y-33514380D02*
X256674809Y-33562000D01*
X256674809Y-33562000D02*
X256579571Y-33609619D01*
X256579571Y-33609619D02*
X256484333Y-33609619D01*
X256484333Y-33609619D02*
X256389095Y-33562000D01*
X256389095Y-33562000D02*
X256341476Y-33514380D01*
X256341476Y-33514380D02*
X256293857Y-33419142D01*
X256293857Y-33419142D02*
X256246238Y-33228666D01*
X256246238Y-33228666D02*
X256246238Y-32990571D01*
X256246238Y-32990571D02*
X256293857Y-32800095D01*
X256293857Y-32800095D02*
X256341476Y-32704857D01*
X256341476Y-32704857D02*
X256389095Y-32657238D01*
X256389095Y-32657238D02*
X256484333Y-32609619D01*
X257198619Y-32704857D02*
X257246238Y-32657238D01*
X257246238Y-32657238D02*
X257341476Y-32609619D01*
X257341476Y-32609619D02*
X257579571Y-32609619D01*
X257579571Y-32609619D02*
X257674809Y-32657238D01*
X257674809Y-32657238D02*
X257722428Y-32704857D01*
X257722428Y-32704857D02*
X257770047Y-32800095D01*
X257770047Y-32800095D02*
X257770047Y-32895333D01*
X257770047Y-32895333D02*
X257722428Y-33038190D01*
X257722428Y-33038190D02*
X257151000Y-33609619D01*
X257151000Y-33609619D02*
X257770047Y-33609619D01*
X185833036Y-40040000D02*
X185975893Y-40087619D01*
X185975893Y-40087619D02*
X186213988Y-40087619D01*
X186213988Y-40087619D02*
X186309226Y-40040000D01*
X186309226Y-40040000D02*
X186356845Y-39992380D01*
X186356845Y-39992380D02*
X186404464Y-39897142D01*
X186404464Y-39897142D02*
X186404464Y-39801904D01*
X186404464Y-39801904D02*
X186356845Y-39706666D01*
X186356845Y-39706666D02*
X186309226Y-39659047D01*
X186309226Y-39659047D02*
X186213988Y-39611428D01*
X186213988Y-39611428D02*
X186023512Y-39563809D01*
X186023512Y-39563809D02*
X185928274Y-39516190D01*
X185928274Y-39516190D02*
X185880655Y-39468571D01*
X185880655Y-39468571D02*
X185833036Y-39373333D01*
X185833036Y-39373333D02*
X185833036Y-39278095D01*
X185833036Y-39278095D02*
X185880655Y-39182857D01*
X185880655Y-39182857D02*
X185928274Y-39135238D01*
X185928274Y-39135238D02*
X186023512Y-39087619D01*
X186023512Y-39087619D02*
X186261607Y-39087619D01*
X186261607Y-39087619D02*
X186404464Y-39135238D01*
X186737798Y-39087619D02*
X186975893Y-40087619D01*
X186975893Y-40087619D02*
X187166369Y-39373333D01*
X187166369Y-39373333D02*
X187356845Y-40087619D01*
X187356845Y-40087619D02*
X187594941Y-39087619D01*
X187880655Y-39087619D02*
X188499702Y-39087619D01*
X188499702Y-39087619D02*
X188166369Y-39468571D01*
X188166369Y-39468571D02*
X188309226Y-39468571D01*
X188309226Y-39468571D02*
X188404464Y-39516190D01*
X188404464Y-39516190D02*
X188452083Y-39563809D01*
X188452083Y-39563809D02*
X188499702Y-39659047D01*
X188499702Y-39659047D02*
X188499702Y-39897142D01*
X188499702Y-39897142D02*
X188452083Y-39992380D01*
X188452083Y-39992380D02*
X188404464Y-40040000D01*
X188404464Y-40040000D02*
X188309226Y-40087619D01*
X188309226Y-40087619D02*
X188023512Y-40087619D01*
X188023512Y-40087619D02*
X187928274Y-40040000D01*
X187928274Y-40040000D02*
X187880655Y-39992380D01*
X188833036Y-39087619D02*
X189452083Y-39087619D01*
X189452083Y-39087619D02*
X189118750Y-39468571D01*
X189118750Y-39468571D02*
X189261607Y-39468571D01*
X189261607Y-39468571D02*
X189356845Y-39516190D01*
X189356845Y-39516190D02*
X189404464Y-39563809D01*
X189404464Y-39563809D02*
X189452083Y-39659047D01*
X189452083Y-39659047D02*
X189452083Y-39897142D01*
X189452083Y-39897142D02*
X189404464Y-39992380D01*
X189404464Y-39992380D02*
X189356845Y-40040000D01*
X189356845Y-40040000D02*
X189261607Y-40087619D01*
X189261607Y-40087619D02*
X188975893Y-40087619D01*
X188975893Y-40087619D02*
X188880655Y-40040000D01*
X188880655Y-40040000D02*
X188833036Y-39992380D01*
X189833036Y-39182857D02*
X189880655Y-39135238D01*
X189880655Y-39135238D02*
X189975893Y-39087619D01*
X189975893Y-39087619D02*
X190213988Y-39087619D01*
X190213988Y-39087619D02*
X190309226Y-39135238D01*
X190309226Y-39135238D02*
X190356845Y-39182857D01*
X190356845Y-39182857D02*
X190404464Y-39278095D01*
X190404464Y-39278095D02*
X190404464Y-39373333D01*
X190404464Y-39373333D02*
X190356845Y-39516190D01*
X190356845Y-39516190D02*
X189785417Y-40087619D01*
X189785417Y-40087619D02*
X190404464Y-40087619D01*
X166783036Y-40040000D02*
X166925893Y-40087619D01*
X166925893Y-40087619D02*
X167163988Y-40087619D01*
X167163988Y-40087619D02*
X167259226Y-40040000D01*
X167259226Y-40040000D02*
X167306845Y-39992380D01*
X167306845Y-39992380D02*
X167354464Y-39897142D01*
X167354464Y-39897142D02*
X167354464Y-39801904D01*
X167354464Y-39801904D02*
X167306845Y-39706666D01*
X167306845Y-39706666D02*
X167259226Y-39659047D01*
X167259226Y-39659047D02*
X167163988Y-39611428D01*
X167163988Y-39611428D02*
X166973512Y-39563809D01*
X166973512Y-39563809D02*
X166878274Y-39516190D01*
X166878274Y-39516190D02*
X166830655Y-39468571D01*
X166830655Y-39468571D02*
X166783036Y-39373333D01*
X166783036Y-39373333D02*
X166783036Y-39278095D01*
X166783036Y-39278095D02*
X166830655Y-39182857D01*
X166830655Y-39182857D02*
X166878274Y-39135238D01*
X166878274Y-39135238D02*
X166973512Y-39087619D01*
X166973512Y-39087619D02*
X167211607Y-39087619D01*
X167211607Y-39087619D02*
X167354464Y-39135238D01*
X167687798Y-39087619D02*
X167925893Y-40087619D01*
X167925893Y-40087619D02*
X168116369Y-39373333D01*
X168116369Y-39373333D02*
X168306845Y-40087619D01*
X168306845Y-40087619D02*
X168544941Y-39087619D01*
X168830655Y-39087619D02*
X169449702Y-39087619D01*
X169449702Y-39087619D02*
X169116369Y-39468571D01*
X169116369Y-39468571D02*
X169259226Y-39468571D01*
X169259226Y-39468571D02*
X169354464Y-39516190D01*
X169354464Y-39516190D02*
X169402083Y-39563809D01*
X169402083Y-39563809D02*
X169449702Y-39659047D01*
X169449702Y-39659047D02*
X169449702Y-39897142D01*
X169449702Y-39897142D02*
X169402083Y-39992380D01*
X169402083Y-39992380D02*
X169354464Y-40040000D01*
X169354464Y-40040000D02*
X169259226Y-40087619D01*
X169259226Y-40087619D02*
X168973512Y-40087619D01*
X168973512Y-40087619D02*
X168878274Y-40040000D01*
X168878274Y-40040000D02*
X168830655Y-39992380D01*
X169830655Y-39182857D02*
X169878274Y-39135238D01*
X169878274Y-39135238D02*
X169973512Y-39087619D01*
X169973512Y-39087619D02*
X170211607Y-39087619D01*
X170211607Y-39087619D02*
X170306845Y-39135238D01*
X170306845Y-39135238D02*
X170354464Y-39182857D01*
X170354464Y-39182857D02*
X170402083Y-39278095D01*
X170402083Y-39278095D02*
X170402083Y-39373333D01*
X170402083Y-39373333D02*
X170354464Y-39516190D01*
X170354464Y-39516190D02*
X169783036Y-40087619D01*
X169783036Y-40087619D02*
X170402083Y-40087619D01*
X170973512Y-39516190D02*
X170878274Y-39468571D01*
X170878274Y-39468571D02*
X170830655Y-39420952D01*
X170830655Y-39420952D02*
X170783036Y-39325714D01*
X170783036Y-39325714D02*
X170783036Y-39278095D01*
X170783036Y-39278095D02*
X170830655Y-39182857D01*
X170830655Y-39182857D02*
X170878274Y-39135238D01*
X170878274Y-39135238D02*
X170973512Y-39087619D01*
X170973512Y-39087619D02*
X171163988Y-39087619D01*
X171163988Y-39087619D02*
X171259226Y-39135238D01*
X171259226Y-39135238D02*
X171306845Y-39182857D01*
X171306845Y-39182857D02*
X171354464Y-39278095D01*
X171354464Y-39278095D02*
X171354464Y-39325714D01*
X171354464Y-39325714D02*
X171306845Y-39420952D01*
X171306845Y-39420952D02*
X171259226Y-39468571D01*
X171259226Y-39468571D02*
X171163988Y-39516190D01*
X171163988Y-39516190D02*
X170973512Y-39516190D01*
X170973512Y-39516190D02*
X170878274Y-39563809D01*
X170878274Y-39563809D02*
X170830655Y-39611428D01*
X170830655Y-39611428D02*
X170783036Y-39706666D01*
X170783036Y-39706666D02*
X170783036Y-39897142D01*
X170783036Y-39897142D02*
X170830655Y-39992380D01*
X170830655Y-39992380D02*
X170878274Y-40040000D01*
X170878274Y-40040000D02*
X170973512Y-40087619D01*
X170973512Y-40087619D02*
X171163988Y-40087619D01*
X171163988Y-40087619D02*
X171259226Y-40040000D01*
X171259226Y-40040000D02*
X171306845Y-39992380D01*
X171306845Y-39992380D02*
X171354464Y-39897142D01*
X171354464Y-39897142D02*
X171354464Y-39706666D01*
X171354464Y-39706666D02*
X171306845Y-39611428D01*
X171306845Y-39611428D02*
X171259226Y-39563809D01*
X171259226Y-39563809D02*
X171163988Y-39516190D01*
X123920536Y-20990000D02*
X124063393Y-21037619D01*
X124063393Y-21037619D02*
X124301488Y-21037619D01*
X124301488Y-21037619D02*
X124396726Y-20990000D01*
X124396726Y-20990000D02*
X124444345Y-20942380D01*
X124444345Y-20942380D02*
X124491964Y-20847142D01*
X124491964Y-20847142D02*
X124491964Y-20751904D01*
X124491964Y-20751904D02*
X124444345Y-20656666D01*
X124444345Y-20656666D02*
X124396726Y-20609047D01*
X124396726Y-20609047D02*
X124301488Y-20561428D01*
X124301488Y-20561428D02*
X124111012Y-20513809D01*
X124111012Y-20513809D02*
X124015774Y-20466190D01*
X124015774Y-20466190D02*
X123968155Y-20418571D01*
X123968155Y-20418571D02*
X123920536Y-20323333D01*
X123920536Y-20323333D02*
X123920536Y-20228095D01*
X123920536Y-20228095D02*
X123968155Y-20132857D01*
X123968155Y-20132857D02*
X124015774Y-20085238D01*
X124015774Y-20085238D02*
X124111012Y-20037619D01*
X124111012Y-20037619D02*
X124349107Y-20037619D01*
X124349107Y-20037619D02*
X124491964Y-20085238D01*
X124825298Y-20037619D02*
X125063393Y-21037619D01*
X125063393Y-21037619D02*
X125253869Y-20323333D01*
X125253869Y-20323333D02*
X125444345Y-21037619D01*
X125444345Y-21037619D02*
X125682441Y-20037619D01*
X125968155Y-20037619D02*
X126587202Y-20037619D01*
X126587202Y-20037619D02*
X126253869Y-20418571D01*
X126253869Y-20418571D02*
X126396726Y-20418571D01*
X126396726Y-20418571D02*
X126491964Y-20466190D01*
X126491964Y-20466190D02*
X126539583Y-20513809D01*
X126539583Y-20513809D02*
X126587202Y-20609047D01*
X126587202Y-20609047D02*
X126587202Y-20847142D01*
X126587202Y-20847142D02*
X126539583Y-20942380D01*
X126539583Y-20942380D02*
X126491964Y-20990000D01*
X126491964Y-20990000D02*
X126396726Y-21037619D01*
X126396726Y-21037619D02*
X126111012Y-21037619D01*
X126111012Y-21037619D02*
X126015774Y-20990000D01*
X126015774Y-20990000D02*
X125968155Y-20942380D01*
X126968155Y-20132857D02*
X127015774Y-20085238D01*
X127015774Y-20085238D02*
X127111012Y-20037619D01*
X127111012Y-20037619D02*
X127349107Y-20037619D01*
X127349107Y-20037619D02*
X127444345Y-20085238D01*
X127444345Y-20085238D02*
X127491964Y-20132857D01*
X127491964Y-20132857D02*
X127539583Y-20228095D01*
X127539583Y-20228095D02*
X127539583Y-20323333D01*
X127539583Y-20323333D02*
X127491964Y-20466190D01*
X127491964Y-20466190D02*
X126920536Y-21037619D01*
X126920536Y-21037619D02*
X127539583Y-21037619D01*
X128158631Y-20037619D02*
X128253869Y-20037619D01*
X128253869Y-20037619D02*
X128349107Y-20085238D01*
X128349107Y-20085238D02*
X128396726Y-20132857D01*
X128396726Y-20132857D02*
X128444345Y-20228095D01*
X128444345Y-20228095D02*
X128491964Y-20418571D01*
X128491964Y-20418571D02*
X128491964Y-20656666D01*
X128491964Y-20656666D02*
X128444345Y-20847142D01*
X128444345Y-20847142D02*
X128396726Y-20942380D01*
X128396726Y-20942380D02*
X128349107Y-20990000D01*
X128349107Y-20990000D02*
X128253869Y-21037619D01*
X128253869Y-21037619D02*
X128158631Y-21037619D01*
X128158631Y-21037619D02*
X128063393Y-20990000D01*
X128063393Y-20990000D02*
X128015774Y-20942380D01*
X128015774Y-20942380D02*
X127968155Y-20847142D01*
X127968155Y-20847142D02*
X127920536Y-20656666D01*
X127920536Y-20656666D02*
X127920536Y-20418571D01*
X127920536Y-20418571D02*
X127968155Y-20228095D01*
X127968155Y-20228095D02*
X128015774Y-20132857D01*
X128015774Y-20132857D02*
X128063393Y-20085238D01*
X128063393Y-20085238D02*
X128158631Y-20037619D01*
X52483036Y-40040000D02*
X52625893Y-40087619D01*
X52625893Y-40087619D02*
X52863988Y-40087619D01*
X52863988Y-40087619D02*
X52959226Y-40040000D01*
X52959226Y-40040000D02*
X53006845Y-39992380D01*
X53006845Y-39992380D02*
X53054464Y-39897142D01*
X53054464Y-39897142D02*
X53054464Y-39801904D01*
X53054464Y-39801904D02*
X53006845Y-39706666D01*
X53006845Y-39706666D02*
X52959226Y-39659047D01*
X52959226Y-39659047D02*
X52863988Y-39611428D01*
X52863988Y-39611428D02*
X52673512Y-39563809D01*
X52673512Y-39563809D02*
X52578274Y-39516190D01*
X52578274Y-39516190D02*
X52530655Y-39468571D01*
X52530655Y-39468571D02*
X52483036Y-39373333D01*
X52483036Y-39373333D02*
X52483036Y-39278095D01*
X52483036Y-39278095D02*
X52530655Y-39182857D01*
X52530655Y-39182857D02*
X52578274Y-39135238D01*
X52578274Y-39135238D02*
X52673512Y-39087619D01*
X52673512Y-39087619D02*
X52911607Y-39087619D01*
X52911607Y-39087619D02*
X53054464Y-39135238D01*
X53387798Y-39087619D02*
X53625893Y-40087619D01*
X53625893Y-40087619D02*
X53816369Y-39373333D01*
X53816369Y-39373333D02*
X54006845Y-40087619D01*
X54006845Y-40087619D02*
X54244941Y-39087619D01*
X54530655Y-39087619D02*
X55149702Y-39087619D01*
X55149702Y-39087619D02*
X54816369Y-39468571D01*
X54816369Y-39468571D02*
X54959226Y-39468571D01*
X54959226Y-39468571D02*
X55054464Y-39516190D01*
X55054464Y-39516190D02*
X55102083Y-39563809D01*
X55102083Y-39563809D02*
X55149702Y-39659047D01*
X55149702Y-39659047D02*
X55149702Y-39897142D01*
X55149702Y-39897142D02*
X55102083Y-39992380D01*
X55102083Y-39992380D02*
X55054464Y-40040000D01*
X55054464Y-40040000D02*
X54959226Y-40087619D01*
X54959226Y-40087619D02*
X54673512Y-40087619D01*
X54673512Y-40087619D02*
X54578274Y-40040000D01*
X54578274Y-40040000D02*
X54530655Y-39992380D01*
X55768750Y-39087619D02*
X55863988Y-39087619D01*
X55863988Y-39087619D02*
X55959226Y-39135238D01*
X55959226Y-39135238D02*
X56006845Y-39182857D01*
X56006845Y-39182857D02*
X56054464Y-39278095D01*
X56054464Y-39278095D02*
X56102083Y-39468571D01*
X56102083Y-39468571D02*
X56102083Y-39706666D01*
X56102083Y-39706666D02*
X56054464Y-39897142D01*
X56054464Y-39897142D02*
X56006845Y-39992380D01*
X56006845Y-39992380D02*
X55959226Y-40040000D01*
X55959226Y-40040000D02*
X55863988Y-40087619D01*
X55863988Y-40087619D02*
X55768750Y-40087619D01*
X55768750Y-40087619D02*
X55673512Y-40040000D01*
X55673512Y-40040000D02*
X55625893Y-39992380D01*
X55625893Y-39992380D02*
X55578274Y-39897142D01*
X55578274Y-39897142D02*
X55530655Y-39706666D01*
X55530655Y-39706666D02*
X55530655Y-39468571D01*
X55530655Y-39468571D02*
X55578274Y-39278095D01*
X55578274Y-39278095D02*
X55625893Y-39182857D01*
X55625893Y-39182857D02*
X55673512Y-39135238D01*
X55673512Y-39135238D02*
X55768750Y-39087619D01*
X56959226Y-39087619D02*
X56768750Y-39087619D01*
X56768750Y-39087619D02*
X56673512Y-39135238D01*
X56673512Y-39135238D02*
X56625893Y-39182857D01*
X56625893Y-39182857D02*
X56530655Y-39325714D01*
X56530655Y-39325714D02*
X56483036Y-39516190D01*
X56483036Y-39516190D02*
X56483036Y-39897142D01*
X56483036Y-39897142D02*
X56530655Y-39992380D01*
X56530655Y-39992380D02*
X56578274Y-40040000D01*
X56578274Y-40040000D02*
X56673512Y-40087619D01*
X56673512Y-40087619D02*
X56863988Y-40087619D01*
X56863988Y-40087619D02*
X56959226Y-40040000D01*
X56959226Y-40040000D02*
X57006845Y-39992380D01*
X57006845Y-39992380D02*
X57054464Y-39897142D01*
X57054464Y-39897142D02*
X57054464Y-39659047D01*
X57054464Y-39659047D02*
X57006845Y-39563809D01*
X57006845Y-39563809D02*
X56959226Y-39516190D01*
X56959226Y-39516190D02*
X56863988Y-39468571D01*
X56863988Y-39468571D02*
X56673512Y-39468571D01*
X56673512Y-39468571D02*
X56578274Y-39516190D01*
X56578274Y-39516190D02*
X56530655Y-39563809D01*
X56530655Y-39563809D02*
X56483036Y-39659047D01*
X240601786Y-20990000D02*
X240744643Y-21037619D01*
X240744643Y-21037619D02*
X240982738Y-21037619D01*
X240982738Y-21037619D02*
X241077976Y-20990000D01*
X241077976Y-20990000D02*
X241125595Y-20942380D01*
X241125595Y-20942380D02*
X241173214Y-20847142D01*
X241173214Y-20847142D02*
X241173214Y-20751904D01*
X241173214Y-20751904D02*
X241125595Y-20656666D01*
X241125595Y-20656666D02*
X241077976Y-20609047D01*
X241077976Y-20609047D02*
X240982738Y-20561428D01*
X240982738Y-20561428D02*
X240792262Y-20513809D01*
X240792262Y-20513809D02*
X240697024Y-20466190D01*
X240697024Y-20466190D02*
X240649405Y-20418571D01*
X240649405Y-20418571D02*
X240601786Y-20323333D01*
X240601786Y-20323333D02*
X240601786Y-20228095D01*
X240601786Y-20228095D02*
X240649405Y-20132857D01*
X240649405Y-20132857D02*
X240697024Y-20085238D01*
X240697024Y-20085238D02*
X240792262Y-20037619D01*
X240792262Y-20037619D02*
X241030357Y-20037619D01*
X241030357Y-20037619D02*
X241173214Y-20085238D01*
X241506548Y-20037619D02*
X241744643Y-21037619D01*
X241744643Y-21037619D02*
X241935119Y-20323333D01*
X241935119Y-20323333D02*
X242125595Y-21037619D01*
X242125595Y-21037619D02*
X242363691Y-20037619D01*
X242649405Y-20037619D02*
X243268452Y-20037619D01*
X243268452Y-20037619D02*
X242935119Y-20418571D01*
X242935119Y-20418571D02*
X243077976Y-20418571D01*
X243077976Y-20418571D02*
X243173214Y-20466190D01*
X243173214Y-20466190D02*
X243220833Y-20513809D01*
X243220833Y-20513809D02*
X243268452Y-20609047D01*
X243268452Y-20609047D02*
X243268452Y-20847142D01*
X243268452Y-20847142D02*
X243220833Y-20942380D01*
X243220833Y-20942380D02*
X243173214Y-20990000D01*
X243173214Y-20990000D02*
X243077976Y-21037619D01*
X243077976Y-21037619D02*
X242792262Y-21037619D01*
X242792262Y-21037619D02*
X242697024Y-20990000D01*
X242697024Y-20990000D02*
X242649405Y-20942380D01*
X244125595Y-20370952D02*
X244125595Y-21037619D01*
X243887500Y-19990000D02*
X243649405Y-20704285D01*
X243649405Y-20704285D02*
X244268452Y-20704285D01*
X244554167Y-20037619D02*
X245173214Y-20037619D01*
X245173214Y-20037619D02*
X244839881Y-20418571D01*
X244839881Y-20418571D02*
X244982738Y-20418571D01*
X244982738Y-20418571D02*
X245077976Y-20466190D01*
X245077976Y-20466190D02*
X245125595Y-20513809D01*
X245125595Y-20513809D02*
X245173214Y-20609047D01*
X245173214Y-20609047D02*
X245173214Y-20847142D01*
X245173214Y-20847142D02*
X245125595Y-20942380D01*
X245125595Y-20942380D02*
X245077976Y-20990000D01*
X245077976Y-20990000D02*
X244982738Y-21037619D01*
X244982738Y-21037619D02*
X244697024Y-21037619D01*
X244697024Y-21037619D02*
X244601786Y-20990000D01*
X244601786Y-20990000D02*
X244554167Y-20942380D01*
X245364286Y-40040000D02*
X245507143Y-40087619D01*
X245507143Y-40087619D02*
X245745238Y-40087619D01*
X245745238Y-40087619D02*
X245840476Y-40040000D01*
X245840476Y-40040000D02*
X245888095Y-39992380D01*
X245888095Y-39992380D02*
X245935714Y-39897142D01*
X245935714Y-39897142D02*
X245935714Y-39801904D01*
X245935714Y-39801904D02*
X245888095Y-39706666D01*
X245888095Y-39706666D02*
X245840476Y-39659047D01*
X245840476Y-39659047D02*
X245745238Y-39611428D01*
X245745238Y-39611428D02*
X245554762Y-39563809D01*
X245554762Y-39563809D02*
X245459524Y-39516190D01*
X245459524Y-39516190D02*
X245411905Y-39468571D01*
X245411905Y-39468571D02*
X245364286Y-39373333D01*
X245364286Y-39373333D02*
X245364286Y-39278095D01*
X245364286Y-39278095D02*
X245411905Y-39182857D01*
X245411905Y-39182857D02*
X245459524Y-39135238D01*
X245459524Y-39135238D02*
X245554762Y-39087619D01*
X245554762Y-39087619D02*
X245792857Y-39087619D01*
X245792857Y-39087619D02*
X245935714Y-39135238D01*
X246269048Y-39087619D02*
X246507143Y-40087619D01*
X246507143Y-40087619D02*
X246697619Y-39373333D01*
X246697619Y-39373333D02*
X246888095Y-40087619D01*
X246888095Y-40087619D02*
X247126191Y-39087619D01*
X247411905Y-39087619D02*
X248030952Y-39087619D01*
X248030952Y-39087619D02*
X247697619Y-39468571D01*
X247697619Y-39468571D02*
X247840476Y-39468571D01*
X247840476Y-39468571D02*
X247935714Y-39516190D01*
X247935714Y-39516190D02*
X247983333Y-39563809D01*
X247983333Y-39563809D02*
X248030952Y-39659047D01*
X248030952Y-39659047D02*
X248030952Y-39897142D01*
X248030952Y-39897142D02*
X247983333Y-39992380D01*
X247983333Y-39992380D02*
X247935714Y-40040000D01*
X247935714Y-40040000D02*
X247840476Y-40087619D01*
X247840476Y-40087619D02*
X247554762Y-40087619D01*
X247554762Y-40087619D02*
X247459524Y-40040000D01*
X247459524Y-40040000D02*
X247411905Y-39992380D01*
X248888095Y-39420952D02*
X248888095Y-40087619D01*
X248650000Y-39040000D02*
X248411905Y-39754285D01*
X248411905Y-39754285D02*
X249030952Y-39754285D01*
X249840476Y-39420952D02*
X249840476Y-40087619D01*
X249602381Y-39040000D02*
X249364286Y-39754285D01*
X249364286Y-39754285D02*
X249983333Y-39754285D01*
X185833036Y-78140000D02*
X185975893Y-78187619D01*
X185975893Y-78187619D02*
X186213988Y-78187619D01*
X186213988Y-78187619D02*
X186309226Y-78140000D01*
X186309226Y-78140000D02*
X186356845Y-78092380D01*
X186356845Y-78092380D02*
X186404464Y-77997142D01*
X186404464Y-77997142D02*
X186404464Y-77901904D01*
X186404464Y-77901904D02*
X186356845Y-77806666D01*
X186356845Y-77806666D02*
X186309226Y-77759047D01*
X186309226Y-77759047D02*
X186213988Y-77711428D01*
X186213988Y-77711428D02*
X186023512Y-77663809D01*
X186023512Y-77663809D02*
X185928274Y-77616190D01*
X185928274Y-77616190D02*
X185880655Y-77568571D01*
X185880655Y-77568571D02*
X185833036Y-77473333D01*
X185833036Y-77473333D02*
X185833036Y-77378095D01*
X185833036Y-77378095D02*
X185880655Y-77282857D01*
X185880655Y-77282857D02*
X185928274Y-77235238D01*
X185928274Y-77235238D02*
X186023512Y-77187619D01*
X186023512Y-77187619D02*
X186261607Y-77187619D01*
X186261607Y-77187619D02*
X186404464Y-77235238D01*
X186737798Y-77187619D02*
X186975893Y-78187619D01*
X186975893Y-78187619D02*
X187166369Y-77473333D01*
X187166369Y-77473333D02*
X187356845Y-78187619D01*
X187356845Y-78187619D02*
X187594941Y-77187619D01*
X187880655Y-77187619D02*
X188499702Y-77187619D01*
X188499702Y-77187619D02*
X188166369Y-77568571D01*
X188166369Y-77568571D02*
X188309226Y-77568571D01*
X188309226Y-77568571D02*
X188404464Y-77616190D01*
X188404464Y-77616190D02*
X188452083Y-77663809D01*
X188452083Y-77663809D02*
X188499702Y-77759047D01*
X188499702Y-77759047D02*
X188499702Y-77997142D01*
X188499702Y-77997142D02*
X188452083Y-78092380D01*
X188452083Y-78092380D02*
X188404464Y-78140000D01*
X188404464Y-78140000D02*
X188309226Y-78187619D01*
X188309226Y-78187619D02*
X188023512Y-78187619D01*
X188023512Y-78187619D02*
X187928274Y-78140000D01*
X187928274Y-78140000D02*
X187880655Y-78092380D01*
X188833036Y-77187619D02*
X189452083Y-77187619D01*
X189452083Y-77187619D02*
X189118750Y-77568571D01*
X189118750Y-77568571D02*
X189261607Y-77568571D01*
X189261607Y-77568571D02*
X189356845Y-77616190D01*
X189356845Y-77616190D02*
X189404464Y-77663809D01*
X189404464Y-77663809D02*
X189452083Y-77759047D01*
X189452083Y-77759047D02*
X189452083Y-77997142D01*
X189452083Y-77997142D02*
X189404464Y-78092380D01*
X189404464Y-78092380D02*
X189356845Y-78140000D01*
X189356845Y-78140000D02*
X189261607Y-78187619D01*
X189261607Y-78187619D02*
X188975893Y-78187619D01*
X188975893Y-78187619D02*
X188880655Y-78140000D01*
X188880655Y-78140000D02*
X188833036Y-78092380D01*
X190071131Y-77187619D02*
X190166369Y-77187619D01*
X190166369Y-77187619D02*
X190261607Y-77235238D01*
X190261607Y-77235238D02*
X190309226Y-77282857D01*
X190309226Y-77282857D02*
X190356845Y-77378095D01*
X190356845Y-77378095D02*
X190404464Y-77568571D01*
X190404464Y-77568571D02*
X190404464Y-77806666D01*
X190404464Y-77806666D02*
X190356845Y-77997142D01*
X190356845Y-77997142D02*
X190309226Y-78092380D01*
X190309226Y-78092380D02*
X190261607Y-78140000D01*
X190261607Y-78140000D02*
X190166369Y-78187619D01*
X190166369Y-78187619D02*
X190071131Y-78187619D01*
X190071131Y-78187619D02*
X189975893Y-78140000D01*
X189975893Y-78140000D02*
X189928274Y-78092380D01*
X189928274Y-78092380D02*
X189880655Y-77997142D01*
X189880655Y-77997142D02*
X189833036Y-77806666D01*
X189833036Y-77806666D02*
X189833036Y-77568571D01*
X189833036Y-77568571D02*
X189880655Y-77378095D01*
X189880655Y-77378095D02*
X189928274Y-77282857D01*
X189928274Y-77282857D02*
X189975893Y-77235238D01*
X189975893Y-77235238D02*
X190071131Y-77187619D01*
X157258036Y-78140000D02*
X157400893Y-78187619D01*
X157400893Y-78187619D02*
X157638988Y-78187619D01*
X157638988Y-78187619D02*
X157734226Y-78140000D01*
X157734226Y-78140000D02*
X157781845Y-78092380D01*
X157781845Y-78092380D02*
X157829464Y-77997142D01*
X157829464Y-77997142D02*
X157829464Y-77901904D01*
X157829464Y-77901904D02*
X157781845Y-77806666D01*
X157781845Y-77806666D02*
X157734226Y-77759047D01*
X157734226Y-77759047D02*
X157638988Y-77711428D01*
X157638988Y-77711428D02*
X157448512Y-77663809D01*
X157448512Y-77663809D02*
X157353274Y-77616190D01*
X157353274Y-77616190D02*
X157305655Y-77568571D01*
X157305655Y-77568571D02*
X157258036Y-77473333D01*
X157258036Y-77473333D02*
X157258036Y-77378095D01*
X157258036Y-77378095D02*
X157305655Y-77282857D01*
X157305655Y-77282857D02*
X157353274Y-77235238D01*
X157353274Y-77235238D02*
X157448512Y-77187619D01*
X157448512Y-77187619D02*
X157686607Y-77187619D01*
X157686607Y-77187619D02*
X157829464Y-77235238D01*
X158162798Y-77187619D02*
X158400893Y-78187619D01*
X158400893Y-78187619D02*
X158591369Y-77473333D01*
X158591369Y-77473333D02*
X158781845Y-78187619D01*
X158781845Y-78187619D02*
X159019941Y-77187619D01*
X159305655Y-77187619D02*
X159924702Y-77187619D01*
X159924702Y-77187619D02*
X159591369Y-77568571D01*
X159591369Y-77568571D02*
X159734226Y-77568571D01*
X159734226Y-77568571D02*
X159829464Y-77616190D01*
X159829464Y-77616190D02*
X159877083Y-77663809D01*
X159877083Y-77663809D02*
X159924702Y-77759047D01*
X159924702Y-77759047D02*
X159924702Y-77997142D01*
X159924702Y-77997142D02*
X159877083Y-78092380D01*
X159877083Y-78092380D02*
X159829464Y-78140000D01*
X159829464Y-78140000D02*
X159734226Y-78187619D01*
X159734226Y-78187619D02*
X159448512Y-78187619D01*
X159448512Y-78187619D02*
X159353274Y-78140000D01*
X159353274Y-78140000D02*
X159305655Y-78092380D01*
X160305655Y-77282857D02*
X160353274Y-77235238D01*
X160353274Y-77235238D02*
X160448512Y-77187619D01*
X160448512Y-77187619D02*
X160686607Y-77187619D01*
X160686607Y-77187619D02*
X160781845Y-77235238D01*
X160781845Y-77235238D02*
X160829464Y-77282857D01*
X160829464Y-77282857D02*
X160877083Y-77378095D01*
X160877083Y-77378095D02*
X160877083Y-77473333D01*
X160877083Y-77473333D02*
X160829464Y-77616190D01*
X160829464Y-77616190D02*
X160258036Y-78187619D01*
X160258036Y-78187619D02*
X160877083Y-78187619D01*
X161734226Y-77187619D02*
X161543750Y-77187619D01*
X161543750Y-77187619D02*
X161448512Y-77235238D01*
X161448512Y-77235238D02*
X161400893Y-77282857D01*
X161400893Y-77282857D02*
X161305655Y-77425714D01*
X161305655Y-77425714D02*
X161258036Y-77616190D01*
X161258036Y-77616190D02*
X161258036Y-77997142D01*
X161258036Y-77997142D02*
X161305655Y-78092380D01*
X161305655Y-78092380D02*
X161353274Y-78140000D01*
X161353274Y-78140000D02*
X161448512Y-78187619D01*
X161448512Y-78187619D02*
X161638988Y-78187619D01*
X161638988Y-78187619D02*
X161734226Y-78140000D01*
X161734226Y-78140000D02*
X161781845Y-78092380D01*
X161781845Y-78092380D02*
X161829464Y-77997142D01*
X161829464Y-77997142D02*
X161829464Y-77759047D01*
X161829464Y-77759047D02*
X161781845Y-77663809D01*
X161781845Y-77663809D02*
X161734226Y-77616190D01*
X161734226Y-77616190D02*
X161638988Y-77568571D01*
X161638988Y-77568571D02*
X161448512Y-77568571D01*
X161448512Y-77568571D02*
X161353274Y-77616190D01*
X161353274Y-77616190D02*
X161305655Y-77663809D01*
X161305655Y-77663809D02*
X161258036Y-77759047D01*
X214408036Y-59090000D02*
X214550893Y-59137619D01*
X214550893Y-59137619D02*
X214788988Y-59137619D01*
X214788988Y-59137619D02*
X214884226Y-59090000D01*
X214884226Y-59090000D02*
X214931845Y-59042380D01*
X214931845Y-59042380D02*
X214979464Y-58947142D01*
X214979464Y-58947142D02*
X214979464Y-58851904D01*
X214979464Y-58851904D02*
X214931845Y-58756666D01*
X214931845Y-58756666D02*
X214884226Y-58709047D01*
X214884226Y-58709047D02*
X214788988Y-58661428D01*
X214788988Y-58661428D02*
X214598512Y-58613809D01*
X214598512Y-58613809D02*
X214503274Y-58566190D01*
X214503274Y-58566190D02*
X214455655Y-58518571D01*
X214455655Y-58518571D02*
X214408036Y-58423333D01*
X214408036Y-58423333D02*
X214408036Y-58328095D01*
X214408036Y-58328095D02*
X214455655Y-58232857D01*
X214455655Y-58232857D02*
X214503274Y-58185238D01*
X214503274Y-58185238D02*
X214598512Y-58137619D01*
X214598512Y-58137619D02*
X214836607Y-58137619D01*
X214836607Y-58137619D02*
X214979464Y-58185238D01*
X215312798Y-58137619D02*
X215550893Y-59137619D01*
X215550893Y-59137619D02*
X215741369Y-58423333D01*
X215741369Y-58423333D02*
X215931845Y-59137619D01*
X215931845Y-59137619D02*
X216169941Y-58137619D01*
X216455655Y-58137619D02*
X217074702Y-58137619D01*
X217074702Y-58137619D02*
X216741369Y-58518571D01*
X216741369Y-58518571D02*
X216884226Y-58518571D01*
X216884226Y-58518571D02*
X216979464Y-58566190D01*
X216979464Y-58566190D02*
X217027083Y-58613809D01*
X217027083Y-58613809D02*
X217074702Y-58709047D01*
X217074702Y-58709047D02*
X217074702Y-58947142D01*
X217074702Y-58947142D02*
X217027083Y-59042380D01*
X217027083Y-59042380D02*
X216979464Y-59090000D01*
X216979464Y-59090000D02*
X216884226Y-59137619D01*
X216884226Y-59137619D02*
X216598512Y-59137619D01*
X216598512Y-59137619D02*
X216503274Y-59090000D01*
X216503274Y-59090000D02*
X216455655Y-59042380D01*
X217408036Y-58137619D02*
X218027083Y-58137619D01*
X218027083Y-58137619D02*
X217693750Y-58518571D01*
X217693750Y-58518571D02*
X217836607Y-58518571D01*
X217836607Y-58518571D02*
X217931845Y-58566190D01*
X217931845Y-58566190D02*
X217979464Y-58613809D01*
X217979464Y-58613809D02*
X218027083Y-58709047D01*
X218027083Y-58709047D02*
X218027083Y-58947142D01*
X218027083Y-58947142D02*
X217979464Y-59042380D01*
X217979464Y-59042380D02*
X217931845Y-59090000D01*
X217931845Y-59090000D02*
X217836607Y-59137619D01*
X217836607Y-59137619D02*
X217550893Y-59137619D01*
X217550893Y-59137619D02*
X217455655Y-59090000D01*
X217455655Y-59090000D02*
X217408036Y-59042380D01*
X218360417Y-58137619D02*
X219027083Y-58137619D01*
X219027083Y-58137619D02*
X218598512Y-59137619D01*
X274544619Y-27995285D02*
X274544619Y-27423857D01*
X275544619Y-27709571D02*
X274544619Y-27709571D01*
X275544619Y-27090523D02*
X274544619Y-27090523D01*
X274544619Y-27090523D02*
X274544619Y-26709571D01*
X274544619Y-26709571D02*
X274592238Y-26614333D01*
X274592238Y-26614333D02*
X274639857Y-26566714D01*
X274639857Y-26566714D02*
X274735095Y-26519095D01*
X274735095Y-26519095D02*
X274877952Y-26519095D01*
X274877952Y-26519095D02*
X274973190Y-26566714D01*
X274973190Y-26566714D02*
X275020809Y-26614333D01*
X275020809Y-26614333D02*
X275068428Y-26709571D01*
X275068428Y-26709571D02*
X275068428Y-27090523D01*
X275544619Y-25566714D02*
X275544619Y-26138142D01*
X275544619Y-25852428D02*
X274544619Y-25852428D01*
X274544619Y-25852428D02*
X274687476Y-25947666D01*
X274687476Y-25947666D02*
X274782714Y-26042904D01*
X274782714Y-26042904D02*
X274830333Y-26138142D01*
X274544619Y-24947666D02*
X274544619Y-24852428D01*
X274544619Y-24852428D02*
X274592238Y-24757190D01*
X274592238Y-24757190D02*
X274639857Y-24709571D01*
X274639857Y-24709571D02*
X274735095Y-24661952D01*
X274735095Y-24661952D02*
X274925571Y-24614333D01*
X274925571Y-24614333D02*
X275163666Y-24614333D01*
X275163666Y-24614333D02*
X275354142Y-24661952D01*
X275354142Y-24661952D02*
X275449380Y-24709571D01*
X275449380Y-24709571D02*
X275497000Y-24757190D01*
X275497000Y-24757190D02*
X275544619Y-24852428D01*
X275544619Y-24852428D02*
X275544619Y-24947666D01*
X275544619Y-24947666D02*
X275497000Y-25042904D01*
X275497000Y-25042904D02*
X275449380Y-25090523D01*
X275449380Y-25090523D02*
X275354142Y-25138142D01*
X275354142Y-25138142D02*
X275163666Y-25185761D01*
X275163666Y-25185761D02*
X274925571Y-25185761D01*
X274925571Y-25185761D02*
X274735095Y-25138142D01*
X274735095Y-25138142D02*
X274639857Y-25090523D01*
X274639857Y-25090523D02*
X274592238Y-25042904D01*
X274592238Y-25042904D02*
X274544619Y-24947666D01*
X274544619Y-24280999D02*
X274544619Y-23614333D01*
X274544619Y-23614333D02*
X275544619Y-24042904D01*
X90583036Y-40040000D02*
X90725893Y-40087619D01*
X90725893Y-40087619D02*
X90963988Y-40087619D01*
X90963988Y-40087619D02*
X91059226Y-40040000D01*
X91059226Y-40040000D02*
X91106845Y-39992380D01*
X91106845Y-39992380D02*
X91154464Y-39897142D01*
X91154464Y-39897142D02*
X91154464Y-39801904D01*
X91154464Y-39801904D02*
X91106845Y-39706666D01*
X91106845Y-39706666D02*
X91059226Y-39659047D01*
X91059226Y-39659047D02*
X90963988Y-39611428D01*
X90963988Y-39611428D02*
X90773512Y-39563809D01*
X90773512Y-39563809D02*
X90678274Y-39516190D01*
X90678274Y-39516190D02*
X90630655Y-39468571D01*
X90630655Y-39468571D02*
X90583036Y-39373333D01*
X90583036Y-39373333D02*
X90583036Y-39278095D01*
X90583036Y-39278095D02*
X90630655Y-39182857D01*
X90630655Y-39182857D02*
X90678274Y-39135238D01*
X90678274Y-39135238D02*
X90773512Y-39087619D01*
X90773512Y-39087619D02*
X91011607Y-39087619D01*
X91011607Y-39087619D02*
X91154464Y-39135238D01*
X91487798Y-39087619D02*
X91725893Y-40087619D01*
X91725893Y-40087619D02*
X91916369Y-39373333D01*
X91916369Y-39373333D02*
X92106845Y-40087619D01*
X92106845Y-40087619D02*
X92344941Y-39087619D01*
X92630655Y-39087619D02*
X93249702Y-39087619D01*
X93249702Y-39087619D02*
X92916369Y-39468571D01*
X92916369Y-39468571D02*
X93059226Y-39468571D01*
X93059226Y-39468571D02*
X93154464Y-39516190D01*
X93154464Y-39516190D02*
X93202083Y-39563809D01*
X93202083Y-39563809D02*
X93249702Y-39659047D01*
X93249702Y-39659047D02*
X93249702Y-39897142D01*
X93249702Y-39897142D02*
X93202083Y-39992380D01*
X93202083Y-39992380D02*
X93154464Y-40040000D01*
X93154464Y-40040000D02*
X93059226Y-40087619D01*
X93059226Y-40087619D02*
X92773512Y-40087619D01*
X92773512Y-40087619D02*
X92678274Y-40040000D01*
X92678274Y-40040000D02*
X92630655Y-39992380D01*
X94202083Y-40087619D02*
X93630655Y-40087619D01*
X93916369Y-40087619D02*
X93916369Y-39087619D01*
X93916369Y-39087619D02*
X93821131Y-39230476D01*
X93821131Y-39230476D02*
X93725893Y-39325714D01*
X93725893Y-39325714D02*
X93630655Y-39373333D01*
X95059226Y-39420952D02*
X95059226Y-40087619D01*
X94821131Y-39040000D02*
X94583036Y-39754285D01*
X94583036Y-39754285D02*
X95202083Y-39754285D01*
X176308036Y-59090000D02*
X176450893Y-59137619D01*
X176450893Y-59137619D02*
X176688988Y-59137619D01*
X176688988Y-59137619D02*
X176784226Y-59090000D01*
X176784226Y-59090000D02*
X176831845Y-59042380D01*
X176831845Y-59042380D02*
X176879464Y-58947142D01*
X176879464Y-58947142D02*
X176879464Y-58851904D01*
X176879464Y-58851904D02*
X176831845Y-58756666D01*
X176831845Y-58756666D02*
X176784226Y-58709047D01*
X176784226Y-58709047D02*
X176688988Y-58661428D01*
X176688988Y-58661428D02*
X176498512Y-58613809D01*
X176498512Y-58613809D02*
X176403274Y-58566190D01*
X176403274Y-58566190D02*
X176355655Y-58518571D01*
X176355655Y-58518571D02*
X176308036Y-58423333D01*
X176308036Y-58423333D02*
X176308036Y-58328095D01*
X176308036Y-58328095D02*
X176355655Y-58232857D01*
X176355655Y-58232857D02*
X176403274Y-58185238D01*
X176403274Y-58185238D02*
X176498512Y-58137619D01*
X176498512Y-58137619D02*
X176736607Y-58137619D01*
X176736607Y-58137619D02*
X176879464Y-58185238D01*
X177212798Y-58137619D02*
X177450893Y-59137619D01*
X177450893Y-59137619D02*
X177641369Y-58423333D01*
X177641369Y-58423333D02*
X177831845Y-59137619D01*
X177831845Y-59137619D02*
X178069941Y-58137619D01*
X178355655Y-58137619D02*
X178974702Y-58137619D01*
X178974702Y-58137619D02*
X178641369Y-58518571D01*
X178641369Y-58518571D02*
X178784226Y-58518571D01*
X178784226Y-58518571D02*
X178879464Y-58566190D01*
X178879464Y-58566190D02*
X178927083Y-58613809D01*
X178927083Y-58613809D02*
X178974702Y-58709047D01*
X178974702Y-58709047D02*
X178974702Y-58947142D01*
X178974702Y-58947142D02*
X178927083Y-59042380D01*
X178927083Y-59042380D02*
X178879464Y-59090000D01*
X178879464Y-59090000D02*
X178784226Y-59137619D01*
X178784226Y-59137619D02*
X178498512Y-59137619D01*
X178498512Y-59137619D02*
X178403274Y-59090000D01*
X178403274Y-59090000D02*
X178355655Y-59042380D01*
X179355655Y-58232857D02*
X179403274Y-58185238D01*
X179403274Y-58185238D02*
X179498512Y-58137619D01*
X179498512Y-58137619D02*
X179736607Y-58137619D01*
X179736607Y-58137619D02*
X179831845Y-58185238D01*
X179831845Y-58185238D02*
X179879464Y-58232857D01*
X179879464Y-58232857D02*
X179927083Y-58328095D01*
X179927083Y-58328095D02*
X179927083Y-58423333D01*
X179927083Y-58423333D02*
X179879464Y-58566190D01*
X179879464Y-58566190D02*
X179308036Y-59137619D01*
X179308036Y-59137619D02*
X179927083Y-59137619D01*
X180403274Y-59137619D02*
X180593750Y-59137619D01*
X180593750Y-59137619D02*
X180688988Y-59090000D01*
X180688988Y-59090000D02*
X180736607Y-59042380D01*
X180736607Y-59042380D02*
X180831845Y-58899523D01*
X180831845Y-58899523D02*
X180879464Y-58709047D01*
X180879464Y-58709047D02*
X180879464Y-58328095D01*
X180879464Y-58328095D02*
X180831845Y-58232857D01*
X180831845Y-58232857D02*
X180784226Y-58185238D01*
X180784226Y-58185238D02*
X180688988Y-58137619D01*
X180688988Y-58137619D02*
X180498512Y-58137619D01*
X180498512Y-58137619D02*
X180403274Y-58185238D01*
X180403274Y-58185238D02*
X180355655Y-58232857D01*
X180355655Y-58232857D02*
X180308036Y-58328095D01*
X180308036Y-58328095D02*
X180308036Y-58566190D01*
X180308036Y-58566190D02*
X180355655Y-58661428D01*
X180355655Y-58661428D02*
X180403274Y-58709047D01*
X180403274Y-58709047D02*
X180498512Y-58756666D01*
X180498512Y-58756666D02*
X180688988Y-58756666D01*
X180688988Y-58756666D02*
X180784226Y-58709047D01*
X180784226Y-58709047D02*
X180831845Y-58661428D01*
X180831845Y-58661428D02*
X180879464Y-58566190D01*
X62008036Y-59090000D02*
X62150893Y-59137619D01*
X62150893Y-59137619D02*
X62388988Y-59137619D01*
X62388988Y-59137619D02*
X62484226Y-59090000D01*
X62484226Y-59090000D02*
X62531845Y-59042380D01*
X62531845Y-59042380D02*
X62579464Y-58947142D01*
X62579464Y-58947142D02*
X62579464Y-58851904D01*
X62579464Y-58851904D02*
X62531845Y-58756666D01*
X62531845Y-58756666D02*
X62484226Y-58709047D01*
X62484226Y-58709047D02*
X62388988Y-58661428D01*
X62388988Y-58661428D02*
X62198512Y-58613809D01*
X62198512Y-58613809D02*
X62103274Y-58566190D01*
X62103274Y-58566190D02*
X62055655Y-58518571D01*
X62055655Y-58518571D02*
X62008036Y-58423333D01*
X62008036Y-58423333D02*
X62008036Y-58328095D01*
X62008036Y-58328095D02*
X62055655Y-58232857D01*
X62055655Y-58232857D02*
X62103274Y-58185238D01*
X62103274Y-58185238D02*
X62198512Y-58137619D01*
X62198512Y-58137619D02*
X62436607Y-58137619D01*
X62436607Y-58137619D02*
X62579464Y-58185238D01*
X62912798Y-58137619D02*
X63150893Y-59137619D01*
X63150893Y-59137619D02*
X63341369Y-58423333D01*
X63341369Y-58423333D02*
X63531845Y-59137619D01*
X63531845Y-59137619D02*
X63769941Y-58137619D01*
X64055655Y-58137619D02*
X64674702Y-58137619D01*
X64674702Y-58137619D02*
X64341369Y-58518571D01*
X64341369Y-58518571D02*
X64484226Y-58518571D01*
X64484226Y-58518571D02*
X64579464Y-58566190D01*
X64579464Y-58566190D02*
X64627083Y-58613809D01*
X64627083Y-58613809D02*
X64674702Y-58709047D01*
X64674702Y-58709047D02*
X64674702Y-58947142D01*
X64674702Y-58947142D02*
X64627083Y-59042380D01*
X64627083Y-59042380D02*
X64579464Y-59090000D01*
X64579464Y-59090000D02*
X64484226Y-59137619D01*
X64484226Y-59137619D02*
X64198512Y-59137619D01*
X64198512Y-59137619D02*
X64103274Y-59090000D01*
X64103274Y-59090000D02*
X64055655Y-59042380D01*
X65293750Y-58137619D02*
X65388988Y-58137619D01*
X65388988Y-58137619D02*
X65484226Y-58185238D01*
X65484226Y-58185238D02*
X65531845Y-58232857D01*
X65531845Y-58232857D02*
X65579464Y-58328095D01*
X65579464Y-58328095D02*
X65627083Y-58518571D01*
X65627083Y-58518571D02*
X65627083Y-58756666D01*
X65627083Y-58756666D02*
X65579464Y-58947142D01*
X65579464Y-58947142D02*
X65531845Y-59042380D01*
X65531845Y-59042380D02*
X65484226Y-59090000D01*
X65484226Y-59090000D02*
X65388988Y-59137619D01*
X65388988Y-59137619D02*
X65293750Y-59137619D01*
X65293750Y-59137619D02*
X65198512Y-59090000D01*
X65198512Y-59090000D02*
X65150893Y-59042380D01*
X65150893Y-59042380D02*
X65103274Y-58947142D01*
X65103274Y-58947142D02*
X65055655Y-58756666D01*
X65055655Y-58756666D02*
X65055655Y-58518571D01*
X65055655Y-58518571D02*
X65103274Y-58328095D01*
X65103274Y-58328095D02*
X65150893Y-58232857D01*
X65150893Y-58232857D02*
X65198512Y-58185238D01*
X65198512Y-58185238D02*
X65293750Y-58137619D01*
X65960417Y-58137619D02*
X66627083Y-58137619D01*
X66627083Y-58137619D02*
X66198512Y-59137619D01*
X253436714Y-28545619D02*
X254008142Y-28545619D01*
X253722428Y-29545619D02*
X253722428Y-28545619D01*
X254341476Y-29545619D02*
X254341476Y-28545619D01*
X254341476Y-28545619D02*
X254722428Y-28545619D01*
X254722428Y-28545619D02*
X254817666Y-28593238D01*
X254817666Y-28593238D02*
X254865285Y-28640857D01*
X254865285Y-28640857D02*
X254912904Y-28736095D01*
X254912904Y-28736095D02*
X254912904Y-28878952D01*
X254912904Y-28878952D02*
X254865285Y-28974190D01*
X254865285Y-28974190D02*
X254817666Y-29021809D01*
X254817666Y-29021809D02*
X254722428Y-29069428D01*
X254722428Y-29069428D02*
X254341476Y-29069428D01*
X255293857Y-28640857D02*
X255341476Y-28593238D01*
X255341476Y-28593238D02*
X255436714Y-28545619D01*
X255436714Y-28545619D02*
X255674809Y-28545619D01*
X255674809Y-28545619D02*
X255770047Y-28593238D01*
X255770047Y-28593238D02*
X255817666Y-28640857D01*
X255817666Y-28640857D02*
X255865285Y-28736095D01*
X255865285Y-28736095D02*
X255865285Y-28831333D01*
X255865285Y-28831333D02*
X255817666Y-28974190D01*
X255817666Y-28974190D02*
X255246238Y-29545619D01*
X255246238Y-29545619D02*
X255865285Y-29545619D01*
X256484333Y-28545619D02*
X256579571Y-28545619D01*
X256579571Y-28545619D02*
X256674809Y-28593238D01*
X256674809Y-28593238D02*
X256722428Y-28640857D01*
X256722428Y-28640857D02*
X256770047Y-28736095D01*
X256770047Y-28736095D02*
X256817666Y-28926571D01*
X256817666Y-28926571D02*
X256817666Y-29164666D01*
X256817666Y-29164666D02*
X256770047Y-29355142D01*
X256770047Y-29355142D02*
X256722428Y-29450380D01*
X256722428Y-29450380D02*
X256674809Y-29498000D01*
X256674809Y-29498000D02*
X256579571Y-29545619D01*
X256579571Y-29545619D02*
X256484333Y-29545619D01*
X256484333Y-29545619D02*
X256389095Y-29498000D01*
X256389095Y-29498000D02*
X256341476Y-29450380D01*
X256341476Y-29450380D02*
X256293857Y-29355142D01*
X256293857Y-29355142D02*
X256246238Y-29164666D01*
X256246238Y-29164666D02*
X256246238Y-28926571D01*
X256246238Y-28926571D02*
X256293857Y-28736095D01*
X256293857Y-28736095D02*
X256341476Y-28640857D01*
X256341476Y-28640857D02*
X256389095Y-28593238D01*
X256389095Y-28593238D02*
X256484333Y-28545619D01*
X257770047Y-29545619D02*
X257198619Y-29545619D01*
X257484333Y-29545619D02*
X257484333Y-28545619D01*
X257484333Y-28545619D02*
X257389095Y-28688476D01*
X257389095Y-28688476D02*
X257293857Y-28783714D01*
X257293857Y-28783714D02*
X257198619Y-28831333D01*
X253285666Y-50262809D02*
X252952333Y-50262809D01*
X252952333Y-50786619D02*
X252952333Y-49786619D01*
X252952333Y-49786619D02*
X253428523Y-49786619D01*
X254285666Y-49786619D02*
X253809476Y-49786619D01*
X253809476Y-49786619D02*
X253761857Y-50262809D01*
X253761857Y-50262809D02*
X253809476Y-50215190D01*
X253809476Y-50215190D02*
X253904714Y-50167571D01*
X253904714Y-50167571D02*
X254142809Y-50167571D01*
X254142809Y-50167571D02*
X254238047Y-50215190D01*
X254238047Y-50215190D02*
X254285666Y-50262809D01*
X254285666Y-50262809D02*
X254333285Y-50358047D01*
X254333285Y-50358047D02*
X254333285Y-50596142D01*
X254333285Y-50596142D02*
X254285666Y-50691380D01*
X254285666Y-50691380D02*
X254238047Y-50739000D01*
X254238047Y-50739000D02*
X254142809Y-50786619D01*
X254142809Y-50786619D02*
X253904714Y-50786619D01*
X253904714Y-50786619D02*
X253809476Y-50739000D01*
X253809476Y-50739000D02*
X253761857Y-50691380D01*
X138208036Y-59090000D02*
X138350893Y-59137619D01*
X138350893Y-59137619D02*
X138588988Y-59137619D01*
X138588988Y-59137619D02*
X138684226Y-59090000D01*
X138684226Y-59090000D02*
X138731845Y-59042380D01*
X138731845Y-59042380D02*
X138779464Y-58947142D01*
X138779464Y-58947142D02*
X138779464Y-58851904D01*
X138779464Y-58851904D02*
X138731845Y-58756666D01*
X138731845Y-58756666D02*
X138684226Y-58709047D01*
X138684226Y-58709047D02*
X138588988Y-58661428D01*
X138588988Y-58661428D02*
X138398512Y-58613809D01*
X138398512Y-58613809D02*
X138303274Y-58566190D01*
X138303274Y-58566190D02*
X138255655Y-58518571D01*
X138255655Y-58518571D02*
X138208036Y-58423333D01*
X138208036Y-58423333D02*
X138208036Y-58328095D01*
X138208036Y-58328095D02*
X138255655Y-58232857D01*
X138255655Y-58232857D02*
X138303274Y-58185238D01*
X138303274Y-58185238D02*
X138398512Y-58137619D01*
X138398512Y-58137619D02*
X138636607Y-58137619D01*
X138636607Y-58137619D02*
X138779464Y-58185238D01*
X139112798Y-58137619D02*
X139350893Y-59137619D01*
X139350893Y-59137619D02*
X139541369Y-58423333D01*
X139541369Y-58423333D02*
X139731845Y-59137619D01*
X139731845Y-59137619D02*
X139969941Y-58137619D01*
X140255655Y-58137619D02*
X140874702Y-58137619D01*
X140874702Y-58137619D02*
X140541369Y-58518571D01*
X140541369Y-58518571D02*
X140684226Y-58518571D01*
X140684226Y-58518571D02*
X140779464Y-58566190D01*
X140779464Y-58566190D02*
X140827083Y-58613809D01*
X140827083Y-58613809D02*
X140874702Y-58709047D01*
X140874702Y-58709047D02*
X140874702Y-58947142D01*
X140874702Y-58947142D02*
X140827083Y-59042380D01*
X140827083Y-59042380D02*
X140779464Y-59090000D01*
X140779464Y-59090000D02*
X140684226Y-59137619D01*
X140684226Y-59137619D02*
X140398512Y-59137619D01*
X140398512Y-59137619D02*
X140303274Y-59090000D01*
X140303274Y-59090000D02*
X140255655Y-59042380D01*
X141255655Y-58232857D02*
X141303274Y-58185238D01*
X141303274Y-58185238D02*
X141398512Y-58137619D01*
X141398512Y-58137619D02*
X141636607Y-58137619D01*
X141636607Y-58137619D02*
X141731845Y-58185238D01*
X141731845Y-58185238D02*
X141779464Y-58232857D01*
X141779464Y-58232857D02*
X141827083Y-58328095D01*
X141827083Y-58328095D02*
X141827083Y-58423333D01*
X141827083Y-58423333D02*
X141779464Y-58566190D01*
X141779464Y-58566190D02*
X141208036Y-59137619D01*
X141208036Y-59137619D02*
X141827083Y-59137619D01*
X142208036Y-58232857D02*
X142255655Y-58185238D01*
X142255655Y-58185238D02*
X142350893Y-58137619D01*
X142350893Y-58137619D02*
X142588988Y-58137619D01*
X142588988Y-58137619D02*
X142684226Y-58185238D01*
X142684226Y-58185238D02*
X142731845Y-58232857D01*
X142731845Y-58232857D02*
X142779464Y-58328095D01*
X142779464Y-58328095D02*
X142779464Y-58423333D01*
X142779464Y-58423333D02*
X142731845Y-58566190D01*
X142731845Y-58566190D02*
X142160417Y-59137619D01*
X142160417Y-59137619D02*
X142779464Y-59137619D01*
X252508036Y-78140000D02*
X252650893Y-78187619D01*
X252650893Y-78187619D02*
X252888988Y-78187619D01*
X252888988Y-78187619D02*
X252984226Y-78140000D01*
X252984226Y-78140000D02*
X253031845Y-78092380D01*
X253031845Y-78092380D02*
X253079464Y-77997142D01*
X253079464Y-77997142D02*
X253079464Y-77901904D01*
X253079464Y-77901904D02*
X253031845Y-77806666D01*
X253031845Y-77806666D02*
X252984226Y-77759047D01*
X252984226Y-77759047D02*
X252888988Y-77711428D01*
X252888988Y-77711428D02*
X252698512Y-77663809D01*
X252698512Y-77663809D02*
X252603274Y-77616190D01*
X252603274Y-77616190D02*
X252555655Y-77568571D01*
X252555655Y-77568571D02*
X252508036Y-77473333D01*
X252508036Y-77473333D02*
X252508036Y-77378095D01*
X252508036Y-77378095D02*
X252555655Y-77282857D01*
X252555655Y-77282857D02*
X252603274Y-77235238D01*
X252603274Y-77235238D02*
X252698512Y-77187619D01*
X252698512Y-77187619D02*
X252936607Y-77187619D01*
X252936607Y-77187619D02*
X253079464Y-77235238D01*
X253412798Y-77187619D02*
X253650893Y-78187619D01*
X253650893Y-78187619D02*
X253841369Y-77473333D01*
X253841369Y-77473333D02*
X254031845Y-78187619D01*
X254031845Y-78187619D02*
X254269941Y-77187619D01*
X254555655Y-77187619D02*
X255174702Y-77187619D01*
X255174702Y-77187619D02*
X254841369Y-77568571D01*
X254841369Y-77568571D02*
X254984226Y-77568571D01*
X254984226Y-77568571D02*
X255079464Y-77616190D01*
X255079464Y-77616190D02*
X255127083Y-77663809D01*
X255127083Y-77663809D02*
X255174702Y-77759047D01*
X255174702Y-77759047D02*
X255174702Y-77997142D01*
X255174702Y-77997142D02*
X255127083Y-78092380D01*
X255127083Y-78092380D02*
X255079464Y-78140000D01*
X255079464Y-78140000D02*
X254984226Y-78187619D01*
X254984226Y-78187619D02*
X254698512Y-78187619D01*
X254698512Y-78187619D02*
X254603274Y-78140000D01*
X254603274Y-78140000D02*
X254555655Y-78092380D01*
X256031845Y-77520952D02*
X256031845Y-78187619D01*
X255793750Y-77140000D02*
X255555655Y-77854285D01*
X255555655Y-77854285D02*
X256174702Y-77854285D01*
X256508036Y-77282857D02*
X256555655Y-77235238D01*
X256555655Y-77235238D02*
X256650893Y-77187619D01*
X256650893Y-77187619D02*
X256888988Y-77187619D01*
X256888988Y-77187619D02*
X256984226Y-77235238D01*
X256984226Y-77235238D02*
X257031845Y-77282857D01*
X257031845Y-77282857D02*
X257079464Y-77378095D01*
X257079464Y-77378095D02*
X257079464Y-77473333D01*
X257079464Y-77473333D02*
X257031845Y-77616190D01*
X257031845Y-77616190D02*
X256460417Y-78187619D01*
X256460417Y-78187619D02*
X257079464Y-78187619D01*
X261590619Y-47934285D02*
X261590619Y-47362857D01*
X262590619Y-47648571D02*
X261590619Y-47648571D01*
X262590619Y-47029523D02*
X261590619Y-47029523D01*
X261590619Y-47029523D02*
X261590619Y-46648571D01*
X261590619Y-46648571D02*
X261638238Y-46553333D01*
X261638238Y-46553333D02*
X261685857Y-46505714D01*
X261685857Y-46505714D02*
X261781095Y-46458095D01*
X261781095Y-46458095D02*
X261923952Y-46458095D01*
X261923952Y-46458095D02*
X262019190Y-46505714D01*
X262019190Y-46505714D02*
X262066809Y-46553333D01*
X262066809Y-46553333D02*
X262114428Y-46648571D01*
X262114428Y-46648571D02*
X262114428Y-47029523D01*
X262590619Y-45505714D02*
X262590619Y-46077142D01*
X262590619Y-45791428D02*
X261590619Y-45791428D01*
X261590619Y-45791428D02*
X261733476Y-45886666D01*
X261733476Y-45886666D02*
X261828714Y-45981904D01*
X261828714Y-45981904D02*
X261876333Y-46077142D01*
X261590619Y-44886666D02*
X261590619Y-44791428D01*
X261590619Y-44791428D02*
X261638238Y-44696190D01*
X261638238Y-44696190D02*
X261685857Y-44648571D01*
X261685857Y-44648571D02*
X261781095Y-44600952D01*
X261781095Y-44600952D02*
X261971571Y-44553333D01*
X261971571Y-44553333D02*
X262209666Y-44553333D01*
X262209666Y-44553333D02*
X262400142Y-44600952D01*
X262400142Y-44600952D02*
X262495380Y-44648571D01*
X262495380Y-44648571D02*
X262543000Y-44696190D01*
X262543000Y-44696190D02*
X262590619Y-44791428D01*
X262590619Y-44791428D02*
X262590619Y-44886666D01*
X262590619Y-44886666D02*
X262543000Y-44981904D01*
X262543000Y-44981904D02*
X262495380Y-45029523D01*
X262495380Y-45029523D02*
X262400142Y-45077142D01*
X262400142Y-45077142D02*
X262209666Y-45124761D01*
X262209666Y-45124761D02*
X261971571Y-45124761D01*
X261971571Y-45124761D02*
X261781095Y-45077142D01*
X261781095Y-45077142D02*
X261685857Y-45029523D01*
X261685857Y-45029523D02*
X261638238Y-44981904D01*
X261638238Y-44981904D02*
X261590619Y-44886666D01*
X261685857Y-44172380D02*
X261638238Y-44124761D01*
X261638238Y-44124761D02*
X261590619Y-44029523D01*
X261590619Y-44029523D02*
X261590619Y-43791428D01*
X261590619Y-43791428D02*
X261638238Y-43696190D01*
X261638238Y-43696190D02*
X261685857Y-43648571D01*
X261685857Y-43648571D02*
X261781095Y-43600952D01*
X261781095Y-43600952D02*
X261876333Y-43600952D01*
X261876333Y-43600952D02*
X262019190Y-43648571D01*
X262019190Y-43648571D02*
X262590619Y-44219999D01*
X262590619Y-44219999D02*
X262590619Y-43600952D01*
X219170536Y-20990000D02*
X219313393Y-21037619D01*
X219313393Y-21037619D02*
X219551488Y-21037619D01*
X219551488Y-21037619D02*
X219646726Y-20990000D01*
X219646726Y-20990000D02*
X219694345Y-20942380D01*
X219694345Y-20942380D02*
X219741964Y-20847142D01*
X219741964Y-20847142D02*
X219741964Y-20751904D01*
X219741964Y-20751904D02*
X219694345Y-20656666D01*
X219694345Y-20656666D02*
X219646726Y-20609047D01*
X219646726Y-20609047D02*
X219551488Y-20561428D01*
X219551488Y-20561428D02*
X219361012Y-20513809D01*
X219361012Y-20513809D02*
X219265774Y-20466190D01*
X219265774Y-20466190D02*
X219218155Y-20418571D01*
X219218155Y-20418571D02*
X219170536Y-20323333D01*
X219170536Y-20323333D02*
X219170536Y-20228095D01*
X219170536Y-20228095D02*
X219218155Y-20132857D01*
X219218155Y-20132857D02*
X219265774Y-20085238D01*
X219265774Y-20085238D02*
X219361012Y-20037619D01*
X219361012Y-20037619D02*
X219599107Y-20037619D01*
X219599107Y-20037619D02*
X219741964Y-20085238D01*
X220075298Y-20037619D02*
X220313393Y-21037619D01*
X220313393Y-21037619D02*
X220503869Y-20323333D01*
X220503869Y-20323333D02*
X220694345Y-21037619D01*
X220694345Y-21037619D02*
X220932441Y-20037619D01*
X221218155Y-20037619D02*
X221837202Y-20037619D01*
X221837202Y-20037619D02*
X221503869Y-20418571D01*
X221503869Y-20418571D02*
X221646726Y-20418571D01*
X221646726Y-20418571D02*
X221741964Y-20466190D01*
X221741964Y-20466190D02*
X221789583Y-20513809D01*
X221789583Y-20513809D02*
X221837202Y-20609047D01*
X221837202Y-20609047D02*
X221837202Y-20847142D01*
X221837202Y-20847142D02*
X221789583Y-20942380D01*
X221789583Y-20942380D02*
X221741964Y-20990000D01*
X221741964Y-20990000D02*
X221646726Y-21037619D01*
X221646726Y-21037619D02*
X221361012Y-21037619D01*
X221361012Y-21037619D02*
X221265774Y-20990000D01*
X221265774Y-20990000D02*
X221218155Y-20942380D01*
X222170536Y-20037619D02*
X222789583Y-20037619D01*
X222789583Y-20037619D02*
X222456250Y-20418571D01*
X222456250Y-20418571D02*
X222599107Y-20418571D01*
X222599107Y-20418571D02*
X222694345Y-20466190D01*
X222694345Y-20466190D02*
X222741964Y-20513809D01*
X222741964Y-20513809D02*
X222789583Y-20609047D01*
X222789583Y-20609047D02*
X222789583Y-20847142D01*
X222789583Y-20847142D02*
X222741964Y-20942380D01*
X222741964Y-20942380D02*
X222694345Y-20990000D01*
X222694345Y-20990000D02*
X222599107Y-21037619D01*
X222599107Y-21037619D02*
X222313393Y-21037619D01*
X222313393Y-21037619D02*
X222218155Y-20990000D01*
X222218155Y-20990000D02*
X222170536Y-20942380D01*
X223265774Y-21037619D02*
X223456250Y-21037619D01*
X223456250Y-21037619D02*
X223551488Y-20990000D01*
X223551488Y-20990000D02*
X223599107Y-20942380D01*
X223599107Y-20942380D02*
X223694345Y-20799523D01*
X223694345Y-20799523D02*
X223741964Y-20609047D01*
X223741964Y-20609047D02*
X223741964Y-20228095D01*
X223741964Y-20228095D02*
X223694345Y-20132857D01*
X223694345Y-20132857D02*
X223646726Y-20085238D01*
X223646726Y-20085238D02*
X223551488Y-20037619D01*
X223551488Y-20037619D02*
X223361012Y-20037619D01*
X223361012Y-20037619D02*
X223265774Y-20085238D01*
X223265774Y-20085238D02*
X223218155Y-20132857D01*
X223218155Y-20132857D02*
X223170536Y-20228095D01*
X223170536Y-20228095D02*
X223170536Y-20466190D01*
X223170536Y-20466190D02*
X223218155Y-20561428D01*
X223218155Y-20561428D02*
X223265774Y-20609047D01*
X223265774Y-20609047D02*
X223361012Y-20656666D01*
X223361012Y-20656666D02*
X223551488Y-20656666D01*
X223551488Y-20656666D02*
X223646726Y-20609047D01*
X223646726Y-20609047D02*
X223694345Y-20561428D01*
X223694345Y-20561428D02*
X223741964Y-20466190D01*
X181070536Y-20990000D02*
X181213393Y-21037619D01*
X181213393Y-21037619D02*
X181451488Y-21037619D01*
X181451488Y-21037619D02*
X181546726Y-20990000D01*
X181546726Y-20990000D02*
X181594345Y-20942380D01*
X181594345Y-20942380D02*
X181641964Y-20847142D01*
X181641964Y-20847142D02*
X181641964Y-20751904D01*
X181641964Y-20751904D02*
X181594345Y-20656666D01*
X181594345Y-20656666D02*
X181546726Y-20609047D01*
X181546726Y-20609047D02*
X181451488Y-20561428D01*
X181451488Y-20561428D02*
X181261012Y-20513809D01*
X181261012Y-20513809D02*
X181165774Y-20466190D01*
X181165774Y-20466190D02*
X181118155Y-20418571D01*
X181118155Y-20418571D02*
X181070536Y-20323333D01*
X181070536Y-20323333D02*
X181070536Y-20228095D01*
X181070536Y-20228095D02*
X181118155Y-20132857D01*
X181118155Y-20132857D02*
X181165774Y-20085238D01*
X181165774Y-20085238D02*
X181261012Y-20037619D01*
X181261012Y-20037619D02*
X181499107Y-20037619D01*
X181499107Y-20037619D02*
X181641964Y-20085238D01*
X181975298Y-20037619D02*
X182213393Y-21037619D01*
X182213393Y-21037619D02*
X182403869Y-20323333D01*
X182403869Y-20323333D02*
X182594345Y-21037619D01*
X182594345Y-21037619D02*
X182832441Y-20037619D01*
X183118155Y-20037619D02*
X183737202Y-20037619D01*
X183737202Y-20037619D02*
X183403869Y-20418571D01*
X183403869Y-20418571D02*
X183546726Y-20418571D01*
X183546726Y-20418571D02*
X183641964Y-20466190D01*
X183641964Y-20466190D02*
X183689583Y-20513809D01*
X183689583Y-20513809D02*
X183737202Y-20609047D01*
X183737202Y-20609047D02*
X183737202Y-20847142D01*
X183737202Y-20847142D02*
X183689583Y-20942380D01*
X183689583Y-20942380D02*
X183641964Y-20990000D01*
X183641964Y-20990000D02*
X183546726Y-21037619D01*
X183546726Y-21037619D02*
X183261012Y-21037619D01*
X183261012Y-21037619D02*
X183165774Y-20990000D01*
X183165774Y-20990000D02*
X183118155Y-20942380D01*
X184070536Y-20037619D02*
X184689583Y-20037619D01*
X184689583Y-20037619D02*
X184356250Y-20418571D01*
X184356250Y-20418571D02*
X184499107Y-20418571D01*
X184499107Y-20418571D02*
X184594345Y-20466190D01*
X184594345Y-20466190D02*
X184641964Y-20513809D01*
X184641964Y-20513809D02*
X184689583Y-20609047D01*
X184689583Y-20609047D02*
X184689583Y-20847142D01*
X184689583Y-20847142D02*
X184641964Y-20942380D01*
X184641964Y-20942380D02*
X184594345Y-20990000D01*
X184594345Y-20990000D02*
X184499107Y-21037619D01*
X184499107Y-21037619D02*
X184213393Y-21037619D01*
X184213393Y-21037619D02*
X184118155Y-20990000D01*
X184118155Y-20990000D02*
X184070536Y-20942380D01*
X185641964Y-21037619D02*
X185070536Y-21037619D01*
X185356250Y-21037619D02*
X185356250Y-20037619D01*
X185356250Y-20037619D02*
X185261012Y-20180476D01*
X185261012Y-20180476D02*
X185165774Y-20275714D01*
X185165774Y-20275714D02*
X185070536Y-20323333D01*
X252508036Y-59090000D02*
X252650893Y-59137619D01*
X252650893Y-59137619D02*
X252888988Y-59137619D01*
X252888988Y-59137619D02*
X252984226Y-59090000D01*
X252984226Y-59090000D02*
X253031845Y-59042380D01*
X253031845Y-59042380D02*
X253079464Y-58947142D01*
X253079464Y-58947142D02*
X253079464Y-58851904D01*
X253079464Y-58851904D02*
X253031845Y-58756666D01*
X253031845Y-58756666D02*
X252984226Y-58709047D01*
X252984226Y-58709047D02*
X252888988Y-58661428D01*
X252888988Y-58661428D02*
X252698512Y-58613809D01*
X252698512Y-58613809D02*
X252603274Y-58566190D01*
X252603274Y-58566190D02*
X252555655Y-58518571D01*
X252555655Y-58518571D02*
X252508036Y-58423333D01*
X252508036Y-58423333D02*
X252508036Y-58328095D01*
X252508036Y-58328095D02*
X252555655Y-58232857D01*
X252555655Y-58232857D02*
X252603274Y-58185238D01*
X252603274Y-58185238D02*
X252698512Y-58137619D01*
X252698512Y-58137619D02*
X252936607Y-58137619D01*
X252936607Y-58137619D02*
X253079464Y-58185238D01*
X253412798Y-58137619D02*
X253650893Y-59137619D01*
X253650893Y-59137619D02*
X253841369Y-58423333D01*
X253841369Y-58423333D02*
X254031845Y-59137619D01*
X254031845Y-59137619D02*
X254269941Y-58137619D01*
X254555655Y-58137619D02*
X255174702Y-58137619D01*
X255174702Y-58137619D02*
X254841369Y-58518571D01*
X254841369Y-58518571D02*
X254984226Y-58518571D01*
X254984226Y-58518571D02*
X255079464Y-58566190D01*
X255079464Y-58566190D02*
X255127083Y-58613809D01*
X255127083Y-58613809D02*
X255174702Y-58709047D01*
X255174702Y-58709047D02*
X255174702Y-58947142D01*
X255174702Y-58947142D02*
X255127083Y-59042380D01*
X255127083Y-59042380D02*
X255079464Y-59090000D01*
X255079464Y-59090000D02*
X254984226Y-59137619D01*
X254984226Y-59137619D02*
X254698512Y-59137619D01*
X254698512Y-59137619D02*
X254603274Y-59090000D01*
X254603274Y-59090000D02*
X254555655Y-59042380D01*
X256031845Y-58470952D02*
X256031845Y-59137619D01*
X255793750Y-58090000D02*
X255555655Y-58804285D01*
X255555655Y-58804285D02*
X256174702Y-58804285D01*
X257031845Y-58137619D02*
X256555655Y-58137619D01*
X256555655Y-58137619D02*
X256508036Y-58613809D01*
X256508036Y-58613809D02*
X256555655Y-58566190D01*
X256555655Y-58566190D02*
X256650893Y-58518571D01*
X256650893Y-58518571D02*
X256888988Y-58518571D01*
X256888988Y-58518571D02*
X256984226Y-58566190D01*
X256984226Y-58566190D02*
X257031845Y-58613809D01*
X257031845Y-58613809D02*
X257079464Y-58709047D01*
X257079464Y-58709047D02*
X257079464Y-58947142D01*
X257079464Y-58947142D02*
X257031845Y-59042380D01*
X257031845Y-59042380D02*
X256984226Y-59090000D01*
X256984226Y-59090000D02*
X256888988Y-59137619D01*
X256888988Y-59137619D02*
X256650893Y-59137619D01*
X256650893Y-59137619D02*
X256555655Y-59090000D01*
X256555655Y-59090000D02*
X256508036Y-59042380D01*
X85820536Y-20990000D02*
X85963393Y-21037619D01*
X85963393Y-21037619D02*
X86201488Y-21037619D01*
X86201488Y-21037619D02*
X86296726Y-20990000D01*
X86296726Y-20990000D02*
X86344345Y-20942380D01*
X86344345Y-20942380D02*
X86391964Y-20847142D01*
X86391964Y-20847142D02*
X86391964Y-20751904D01*
X86391964Y-20751904D02*
X86344345Y-20656666D01*
X86344345Y-20656666D02*
X86296726Y-20609047D01*
X86296726Y-20609047D02*
X86201488Y-20561428D01*
X86201488Y-20561428D02*
X86011012Y-20513809D01*
X86011012Y-20513809D02*
X85915774Y-20466190D01*
X85915774Y-20466190D02*
X85868155Y-20418571D01*
X85868155Y-20418571D02*
X85820536Y-20323333D01*
X85820536Y-20323333D02*
X85820536Y-20228095D01*
X85820536Y-20228095D02*
X85868155Y-20132857D01*
X85868155Y-20132857D02*
X85915774Y-20085238D01*
X85915774Y-20085238D02*
X86011012Y-20037619D01*
X86011012Y-20037619D02*
X86249107Y-20037619D01*
X86249107Y-20037619D02*
X86391964Y-20085238D01*
X86725298Y-20037619D02*
X86963393Y-21037619D01*
X86963393Y-21037619D02*
X87153869Y-20323333D01*
X87153869Y-20323333D02*
X87344345Y-21037619D01*
X87344345Y-21037619D02*
X87582441Y-20037619D01*
X87868155Y-20037619D02*
X88487202Y-20037619D01*
X88487202Y-20037619D02*
X88153869Y-20418571D01*
X88153869Y-20418571D02*
X88296726Y-20418571D01*
X88296726Y-20418571D02*
X88391964Y-20466190D01*
X88391964Y-20466190D02*
X88439583Y-20513809D01*
X88439583Y-20513809D02*
X88487202Y-20609047D01*
X88487202Y-20609047D02*
X88487202Y-20847142D01*
X88487202Y-20847142D02*
X88439583Y-20942380D01*
X88439583Y-20942380D02*
X88391964Y-20990000D01*
X88391964Y-20990000D02*
X88296726Y-21037619D01*
X88296726Y-21037619D02*
X88011012Y-21037619D01*
X88011012Y-21037619D02*
X87915774Y-20990000D01*
X87915774Y-20990000D02*
X87868155Y-20942380D01*
X89439583Y-21037619D02*
X88868155Y-21037619D01*
X89153869Y-21037619D02*
X89153869Y-20037619D01*
X89153869Y-20037619D02*
X89058631Y-20180476D01*
X89058631Y-20180476D02*
X88963393Y-20275714D01*
X88963393Y-20275714D02*
X88868155Y-20323333D01*
X89772917Y-20037619D02*
X90391964Y-20037619D01*
X90391964Y-20037619D02*
X90058631Y-20418571D01*
X90058631Y-20418571D02*
X90201488Y-20418571D01*
X90201488Y-20418571D02*
X90296726Y-20466190D01*
X90296726Y-20466190D02*
X90344345Y-20513809D01*
X90344345Y-20513809D02*
X90391964Y-20609047D01*
X90391964Y-20609047D02*
X90391964Y-20847142D01*
X90391964Y-20847142D02*
X90344345Y-20942380D01*
X90344345Y-20942380D02*
X90296726Y-20990000D01*
X90296726Y-20990000D02*
X90201488Y-21037619D01*
X90201488Y-21037619D02*
X89915774Y-21037619D01*
X89915774Y-21037619D02*
X89820536Y-20990000D01*
X89820536Y-20990000D02*
X89772917Y-20942380D01*
X90583036Y-78140000D02*
X90725893Y-78187619D01*
X90725893Y-78187619D02*
X90963988Y-78187619D01*
X90963988Y-78187619D02*
X91059226Y-78140000D01*
X91059226Y-78140000D02*
X91106845Y-78092380D01*
X91106845Y-78092380D02*
X91154464Y-77997142D01*
X91154464Y-77997142D02*
X91154464Y-77901904D01*
X91154464Y-77901904D02*
X91106845Y-77806666D01*
X91106845Y-77806666D02*
X91059226Y-77759047D01*
X91059226Y-77759047D02*
X90963988Y-77711428D01*
X90963988Y-77711428D02*
X90773512Y-77663809D01*
X90773512Y-77663809D02*
X90678274Y-77616190D01*
X90678274Y-77616190D02*
X90630655Y-77568571D01*
X90630655Y-77568571D02*
X90583036Y-77473333D01*
X90583036Y-77473333D02*
X90583036Y-77378095D01*
X90583036Y-77378095D02*
X90630655Y-77282857D01*
X90630655Y-77282857D02*
X90678274Y-77235238D01*
X90678274Y-77235238D02*
X90773512Y-77187619D01*
X90773512Y-77187619D02*
X91011607Y-77187619D01*
X91011607Y-77187619D02*
X91154464Y-77235238D01*
X91487798Y-77187619D02*
X91725893Y-78187619D01*
X91725893Y-78187619D02*
X91916369Y-77473333D01*
X91916369Y-77473333D02*
X92106845Y-78187619D01*
X92106845Y-78187619D02*
X92344941Y-77187619D01*
X92630655Y-77187619D02*
X93249702Y-77187619D01*
X93249702Y-77187619D02*
X92916369Y-77568571D01*
X92916369Y-77568571D02*
X93059226Y-77568571D01*
X93059226Y-77568571D02*
X93154464Y-77616190D01*
X93154464Y-77616190D02*
X93202083Y-77663809D01*
X93202083Y-77663809D02*
X93249702Y-77759047D01*
X93249702Y-77759047D02*
X93249702Y-77997142D01*
X93249702Y-77997142D02*
X93202083Y-78092380D01*
X93202083Y-78092380D02*
X93154464Y-78140000D01*
X93154464Y-78140000D02*
X93059226Y-78187619D01*
X93059226Y-78187619D02*
X92773512Y-78187619D01*
X92773512Y-78187619D02*
X92678274Y-78140000D01*
X92678274Y-78140000D02*
X92630655Y-78092380D01*
X94202083Y-78187619D02*
X93630655Y-78187619D01*
X93916369Y-78187619D02*
X93916369Y-77187619D01*
X93916369Y-77187619D02*
X93821131Y-77330476D01*
X93821131Y-77330476D02*
X93725893Y-77425714D01*
X93725893Y-77425714D02*
X93630655Y-77473333D01*
X94583036Y-77282857D02*
X94630655Y-77235238D01*
X94630655Y-77235238D02*
X94725893Y-77187619D01*
X94725893Y-77187619D02*
X94963988Y-77187619D01*
X94963988Y-77187619D02*
X95059226Y-77235238D01*
X95059226Y-77235238D02*
X95106845Y-77282857D01*
X95106845Y-77282857D02*
X95154464Y-77378095D01*
X95154464Y-77378095D02*
X95154464Y-77473333D01*
X95154464Y-77473333D02*
X95106845Y-77616190D01*
X95106845Y-77616190D02*
X94535417Y-78187619D01*
X94535417Y-78187619D02*
X95154464Y-78187619D01*
X204883036Y-40040000D02*
X205025893Y-40087619D01*
X205025893Y-40087619D02*
X205263988Y-40087619D01*
X205263988Y-40087619D02*
X205359226Y-40040000D01*
X205359226Y-40040000D02*
X205406845Y-39992380D01*
X205406845Y-39992380D02*
X205454464Y-39897142D01*
X205454464Y-39897142D02*
X205454464Y-39801904D01*
X205454464Y-39801904D02*
X205406845Y-39706666D01*
X205406845Y-39706666D02*
X205359226Y-39659047D01*
X205359226Y-39659047D02*
X205263988Y-39611428D01*
X205263988Y-39611428D02*
X205073512Y-39563809D01*
X205073512Y-39563809D02*
X204978274Y-39516190D01*
X204978274Y-39516190D02*
X204930655Y-39468571D01*
X204930655Y-39468571D02*
X204883036Y-39373333D01*
X204883036Y-39373333D02*
X204883036Y-39278095D01*
X204883036Y-39278095D02*
X204930655Y-39182857D01*
X204930655Y-39182857D02*
X204978274Y-39135238D01*
X204978274Y-39135238D02*
X205073512Y-39087619D01*
X205073512Y-39087619D02*
X205311607Y-39087619D01*
X205311607Y-39087619D02*
X205454464Y-39135238D01*
X205787798Y-39087619D02*
X206025893Y-40087619D01*
X206025893Y-40087619D02*
X206216369Y-39373333D01*
X206216369Y-39373333D02*
X206406845Y-40087619D01*
X206406845Y-40087619D02*
X206644941Y-39087619D01*
X206930655Y-39087619D02*
X207549702Y-39087619D01*
X207549702Y-39087619D02*
X207216369Y-39468571D01*
X207216369Y-39468571D02*
X207359226Y-39468571D01*
X207359226Y-39468571D02*
X207454464Y-39516190D01*
X207454464Y-39516190D02*
X207502083Y-39563809D01*
X207502083Y-39563809D02*
X207549702Y-39659047D01*
X207549702Y-39659047D02*
X207549702Y-39897142D01*
X207549702Y-39897142D02*
X207502083Y-39992380D01*
X207502083Y-39992380D02*
X207454464Y-40040000D01*
X207454464Y-40040000D02*
X207359226Y-40087619D01*
X207359226Y-40087619D02*
X207073512Y-40087619D01*
X207073512Y-40087619D02*
X206978274Y-40040000D01*
X206978274Y-40040000D02*
X206930655Y-39992380D01*
X207883036Y-39087619D02*
X208502083Y-39087619D01*
X208502083Y-39087619D02*
X208168750Y-39468571D01*
X208168750Y-39468571D02*
X208311607Y-39468571D01*
X208311607Y-39468571D02*
X208406845Y-39516190D01*
X208406845Y-39516190D02*
X208454464Y-39563809D01*
X208454464Y-39563809D02*
X208502083Y-39659047D01*
X208502083Y-39659047D02*
X208502083Y-39897142D01*
X208502083Y-39897142D02*
X208454464Y-39992380D01*
X208454464Y-39992380D02*
X208406845Y-40040000D01*
X208406845Y-40040000D02*
X208311607Y-40087619D01*
X208311607Y-40087619D02*
X208025893Y-40087619D01*
X208025893Y-40087619D02*
X207930655Y-40040000D01*
X207930655Y-40040000D02*
X207883036Y-39992380D01*
X209359226Y-39087619D02*
X209168750Y-39087619D01*
X209168750Y-39087619D02*
X209073512Y-39135238D01*
X209073512Y-39135238D02*
X209025893Y-39182857D01*
X209025893Y-39182857D02*
X208930655Y-39325714D01*
X208930655Y-39325714D02*
X208883036Y-39516190D01*
X208883036Y-39516190D02*
X208883036Y-39897142D01*
X208883036Y-39897142D02*
X208930655Y-39992380D01*
X208930655Y-39992380D02*
X208978274Y-40040000D01*
X208978274Y-40040000D02*
X209073512Y-40087619D01*
X209073512Y-40087619D02*
X209263988Y-40087619D01*
X209263988Y-40087619D02*
X209359226Y-40040000D01*
X209359226Y-40040000D02*
X209406845Y-39992380D01*
X209406845Y-39992380D02*
X209454464Y-39897142D01*
X209454464Y-39897142D02*
X209454464Y-39659047D01*
X209454464Y-39659047D02*
X209406845Y-39563809D01*
X209406845Y-39563809D02*
X209359226Y-39516190D01*
X209359226Y-39516190D02*
X209263988Y-39468571D01*
X209263988Y-39468571D02*
X209073512Y-39468571D01*
X209073512Y-39468571D02*
X208978274Y-39516190D01*
X208978274Y-39516190D02*
X208930655Y-39563809D01*
X208930655Y-39563809D02*
X208883036Y-39659047D01*
X100108036Y-59090000D02*
X100250893Y-59137619D01*
X100250893Y-59137619D02*
X100488988Y-59137619D01*
X100488988Y-59137619D02*
X100584226Y-59090000D01*
X100584226Y-59090000D02*
X100631845Y-59042380D01*
X100631845Y-59042380D02*
X100679464Y-58947142D01*
X100679464Y-58947142D02*
X100679464Y-58851904D01*
X100679464Y-58851904D02*
X100631845Y-58756666D01*
X100631845Y-58756666D02*
X100584226Y-58709047D01*
X100584226Y-58709047D02*
X100488988Y-58661428D01*
X100488988Y-58661428D02*
X100298512Y-58613809D01*
X100298512Y-58613809D02*
X100203274Y-58566190D01*
X100203274Y-58566190D02*
X100155655Y-58518571D01*
X100155655Y-58518571D02*
X100108036Y-58423333D01*
X100108036Y-58423333D02*
X100108036Y-58328095D01*
X100108036Y-58328095D02*
X100155655Y-58232857D01*
X100155655Y-58232857D02*
X100203274Y-58185238D01*
X100203274Y-58185238D02*
X100298512Y-58137619D01*
X100298512Y-58137619D02*
X100536607Y-58137619D01*
X100536607Y-58137619D02*
X100679464Y-58185238D01*
X101012798Y-58137619D02*
X101250893Y-59137619D01*
X101250893Y-59137619D02*
X101441369Y-58423333D01*
X101441369Y-58423333D02*
X101631845Y-59137619D01*
X101631845Y-59137619D02*
X101869941Y-58137619D01*
X102155655Y-58137619D02*
X102774702Y-58137619D01*
X102774702Y-58137619D02*
X102441369Y-58518571D01*
X102441369Y-58518571D02*
X102584226Y-58518571D01*
X102584226Y-58518571D02*
X102679464Y-58566190D01*
X102679464Y-58566190D02*
X102727083Y-58613809D01*
X102727083Y-58613809D02*
X102774702Y-58709047D01*
X102774702Y-58709047D02*
X102774702Y-58947142D01*
X102774702Y-58947142D02*
X102727083Y-59042380D01*
X102727083Y-59042380D02*
X102679464Y-59090000D01*
X102679464Y-59090000D02*
X102584226Y-59137619D01*
X102584226Y-59137619D02*
X102298512Y-59137619D01*
X102298512Y-59137619D02*
X102203274Y-59090000D01*
X102203274Y-59090000D02*
X102155655Y-59042380D01*
X103727083Y-59137619D02*
X103155655Y-59137619D01*
X103441369Y-59137619D02*
X103441369Y-58137619D01*
X103441369Y-58137619D02*
X103346131Y-58280476D01*
X103346131Y-58280476D02*
X103250893Y-58375714D01*
X103250893Y-58375714D02*
X103155655Y-58423333D01*
X104631845Y-58137619D02*
X104155655Y-58137619D01*
X104155655Y-58137619D02*
X104108036Y-58613809D01*
X104108036Y-58613809D02*
X104155655Y-58566190D01*
X104155655Y-58566190D02*
X104250893Y-58518571D01*
X104250893Y-58518571D02*
X104488988Y-58518571D01*
X104488988Y-58518571D02*
X104584226Y-58566190D01*
X104584226Y-58566190D02*
X104631845Y-58613809D01*
X104631845Y-58613809D02*
X104679464Y-58709047D01*
X104679464Y-58709047D02*
X104679464Y-58947142D01*
X104679464Y-58947142D02*
X104631845Y-59042380D01*
X104631845Y-59042380D02*
X104584226Y-59090000D01*
X104584226Y-59090000D02*
X104488988Y-59137619D01*
X104488988Y-59137619D02*
X104250893Y-59137619D01*
X104250893Y-59137619D02*
X104155655Y-59090000D01*
X104155655Y-59090000D02*
X104108036Y-59042380D01*
X142970536Y-20990000D02*
X143113393Y-21037619D01*
X143113393Y-21037619D02*
X143351488Y-21037619D01*
X143351488Y-21037619D02*
X143446726Y-20990000D01*
X143446726Y-20990000D02*
X143494345Y-20942380D01*
X143494345Y-20942380D02*
X143541964Y-20847142D01*
X143541964Y-20847142D02*
X143541964Y-20751904D01*
X143541964Y-20751904D02*
X143494345Y-20656666D01*
X143494345Y-20656666D02*
X143446726Y-20609047D01*
X143446726Y-20609047D02*
X143351488Y-20561428D01*
X143351488Y-20561428D02*
X143161012Y-20513809D01*
X143161012Y-20513809D02*
X143065774Y-20466190D01*
X143065774Y-20466190D02*
X143018155Y-20418571D01*
X143018155Y-20418571D02*
X142970536Y-20323333D01*
X142970536Y-20323333D02*
X142970536Y-20228095D01*
X142970536Y-20228095D02*
X143018155Y-20132857D01*
X143018155Y-20132857D02*
X143065774Y-20085238D01*
X143065774Y-20085238D02*
X143161012Y-20037619D01*
X143161012Y-20037619D02*
X143399107Y-20037619D01*
X143399107Y-20037619D02*
X143541964Y-20085238D01*
X143875298Y-20037619D02*
X144113393Y-21037619D01*
X144113393Y-21037619D02*
X144303869Y-20323333D01*
X144303869Y-20323333D02*
X144494345Y-21037619D01*
X144494345Y-21037619D02*
X144732441Y-20037619D01*
X145018155Y-20037619D02*
X145637202Y-20037619D01*
X145637202Y-20037619D02*
X145303869Y-20418571D01*
X145303869Y-20418571D02*
X145446726Y-20418571D01*
X145446726Y-20418571D02*
X145541964Y-20466190D01*
X145541964Y-20466190D02*
X145589583Y-20513809D01*
X145589583Y-20513809D02*
X145637202Y-20609047D01*
X145637202Y-20609047D02*
X145637202Y-20847142D01*
X145637202Y-20847142D02*
X145589583Y-20942380D01*
X145589583Y-20942380D02*
X145541964Y-20990000D01*
X145541964Y-20990000D02*
X145446726Y-21037619D01*
X145446726Y-21037619D02*
X145161012Y-21037619D01*
X145161012Y-21037619D02*
X145065774Y-20990000D01*
X145065774Y-20990000D02*
X145018155Y-20942380D01*
X146018155Y-20132857D02*
X146065774Y-20085238D01*
X146065774Y-20085238D02*
X146161012Y-20037619D01*
X146161012Y-20037619D02*
X146399107Y-20037619D01*
X146399107Y-20037619D02*
X146494345Y-20085238D01*
X146494345Y-20085238D02*
X146541964Y-20132857D01*
X146541964Y-20132857D02*
X146589583Y-20228095D01*
X146589583Y-20228095D02*
X146589583Y-20323333D01*
X146589583Y-20323333D02*
X146541964Y-20466190D01*
X146541964Y-20466190D02*
X145970536Y-21037619D01*
X145970536Y-21037619D02*
X146589583Y-21037619D01*
X146922917Y-20037619D02*
X147541964Y-20037619D01*
X147541964Y-20037619D02*
X147208631Y-20418571D01*
X147208631Y-20418571D02*
X147351488Y-20418571D01*
X147351488Y-20418571D02*
X147446726Y-20466190D01*
X147446726Y-20466190D02*
X147494345Y-20513809D01*
X147494345Y-20513809D02*
X147541964Y-20609047D01*
X147541964Y-20609047D02*
X147541964Y-20847142D01*
X147541964Y-20847142D02*
X147494345Y-20942380D01*
X147494345Y-20942380D02*
X147446726Y-20990000D01*
X147446726Y-20990000D02*
X147351488Y-21037619D01*
X147351488Y-21037619D02*
X147065774Y-21037619D01*
X147065774Y-21037619D02*
X146970536Y-20990000D01*
X146970536Y-20990000D02*
X146922917Y-20942380D01*
X128683036Y-40040000D02*
X128825893Y-40087619D01*
X128825893Y-40087619D02*
X129063988Y-40087619D01*
X129063988Y-40087619D02*
X129159226Y-40040000D01*
X129159226Y-40040000D02*
X129206845Y-39992380D01*
X129206845Y-39992380D02*
X129254464Y-39897142D01*
X129254464Y-39897142D02*
X129254464Y-39801904D01*
X129254464Y-39801904D02*
X129206845Y-39706666D01*
X129206845Y-39706666D02*
X129159226Y-39659047D01*
X129159226Y-39659047D02*
X129063988Y-39611428D01*
X129063988Y-39611428D02*
X128873512Y-39563809D01*
X128873512Y-39563809D02*
X128778274Y-39516190D01*
X128778274Y-39516190D02*
X128730655Y-39468571D01*
X128730655Y-39468571D02*
X128683036Y-39373333D01*
X128683036Y-39373333D02*
X128683036Y-39278095D01*
X128683036Y-39278095D02*
X128730655Y-39182857D01*
X128730655Y-39182857D02*
X128778274Y-39135238D01*
X128778274Y-39135238D02*
X128873512Y-39087619D01*
X128873512Y-39087619D02*
X129111607Y-39087619D01*
X129111607Y-39087619D02*
X129254464Y-39135238D01*
X129587798Y-39087619D02*
X129825893Y-40087619D01*
X129825893Y-40087619D02*
X130016369Y-39373333D01*
X130016369Y-39373333D02*
X130206845Y-40087619D01*
X130206845Y-40087619D02*
X130444941Y-39087619D01*
X130730655Y-39087619D02*
X131349702Y-39087619D01*
X131349702Y-39087619D02*
X131016369Y-39468571D01*
X131016369Y-39468571D02*
X131159226Y-39468571D01*
X131159226Y-39468571D02*
X131254464Y-39516190D01*
X131254464Y-39516190D02*
X131302083Y-39563809D01*
X131302083Y-39563809D02*
X131349702Y-39659047D01*
X131349702Y-39659047D02*
X131349702Y-39897142D01*
X131349702Y-39897142D02*
X131302083Y-39992380D01*
X131302083Y-39992380D02*
X131254464Y-40040000D01*
X131254464Y-40040000D02*
X131159226Y-40087619D01*
X131159226Y-40087619D02*
X130873512Y-40087619D01*
X130873512Y-40087619D02*
X130778274Y-40040000D01*
X130778274Y-40040000D02*
X130730655Y-39992380D01*
X131730655Y-39182857D02*
X131778274Y-39135238D01*
X131778274Y-39135238D02*
X131873512Y-39087619D01*
X131873512Y-39087619D02*
X132111607Y-39087619D01*
X132111607Y-39087619D02*
X132206845Y-39135238D01*
X132206845Y-39135238D02*
X132254464Y-39182857D01*
X132254464Y-39182857D02*
X132302083Y-39278095D01*
X132302083Y-39278095D02*
X132302083Y-39373333D01*
X132302083Y-39373333D02*
X132254464Y-39516190D01*
X132254464Y-39516190D02*
X131683036Y-40087619D01*
X131683036Y-40087619D02*
X132302083Y-40087619D01*
X133254464Y-40087619D02*
X132683036Y-40087619D01*
X132968750Y-40087619D02*
X132968750Y-39087619D01*
X132968750Y-39087619D02*
X132873512Y-39230476D01*
X132873512Y-39230476D02*
X132778274Y-39325714D01*
X132778274Y-39325714D02*
X132683036Y-39373333D01*
X200120536Y-20990000D02*
X200263393Y-21037619D01*
X200263393Y-21037619D02*
X200501488Y-21037619D01*
X200501488Y-21037619D02*
X200596726Y-20990000D01*
X200596726Y-20990000D02*
X200644345Y-20942380D01*
X200644345Y-20942380D02*
X200691964Y-20847142D01*
X200691964Y-20847142D02*
X200691964Y-20751904D01*
X200691964Y-20751904D02*
X200644345Y-20656666D01*
X200644345Y-20656666D02*
X200596726Y-20609047D01*
X200596726Y-20609047D02*
X200501488Y-20561428D01*
X200501488Y-20561428D02*
X200311012Y-20513809D01*
X200311012Y-20513809D02*
X200215774Y-20466190D01*
X200215774Y-20466190D02*
X200168155Y-20418571D01*
X200168155Y-20418571D02*
X200120536Y-20323333D01*
X200120536Y-20323333D02*
X200120536Y-20228095D01*
X200120536Y-20228095D02*
X200168155Y-20132857D01*
X200168155Y-20132857D02*
X200215774Y-20085238D01*
X200215774Y-20085238D02*
X200311012Y-20037619D01*
X200311012Y-20037619D02*
X200549107Y-20037619D01*
X200549107Y-20037619D02*
X200691964Y-20085238D01*
X201025298Y-20037619D02*
X201263393Y-21037619D01*
X201263393Y-21037619D02*
X201453869Y-20323333D01*
X201453869Y-20323333D02*
X201644345Y-21037619D01*
X201644345Y-21037619D02*
X201882441Y-20037619D01*
X202168155Y-20037619D02*
X202787202Y-20037619D01*
X202787202Y-20037619D02*
X202453869Y-20418571D01*
X202453869Y-20418571D02*
X202596726Y-20418571D01*
X202596726Y-20418571D02*
X202691964Y-20466190D01*
X202691964Y-20466190D02*
X202739583Y-20513809D01*
X202739583Y-20513809D02*
X202787202Y-20609047D01*
X202787202Y-20609047D02*
X202787202Y-20847142D01*
X202787202Y-20847142D02*
X202739583Y-20942380D01*
X202739583Y-20942380D02*
X202691964Y-20990000D01*
X202691964Y-20990000D02*
X202596726Y-21037619D01*
X202596726Y-21037619D02*
X202311012Y-21037619D01*
X202311012Y-21037619D02*
X202215774Y-20990000D01*
X202215774Y-20990000D02*
X202168155Y-20942380D01*
X203120536Y-20037619D02*
X203739583Y-20037619D01*
X203739583Y-20037619D02*
X203406250Y-20418571D01*
X203406250Y-20418571D02*
X203549107Y-20418571D01*
X203549107Y-20418571D02*
X203644345Y-20466190D01*
X203644345Y-20466190D02*
X203691964Y-20513809D01*
X203691964Y-20513809D02*
X203739583Y-20609047D01*
X203739583Y-20609047D02*
X203739583Y-20847142D01*
X203739583Y-20847142D02*
X203691964Y-20942380D01*
X203691964Y-20942380D02*
X203644345Y-20990000D01*
X203644345Y-20990000D02*
X203549107Y-21037619D01*
X203549107Y-21037619D02*
X203263393Y-21037619D01*
X203263393Y-21037619D02*
X203168155Y-20990000D01*
X203168155Y-20990000D02*
X203120536Y-20942380D01*
X204644345Y-20037619D02*
X204168155Y-20037619D01*
X204168155Y-20037619D02*
X204120536Y-20513809D01*
X204120536Y-20513809D02*
X204168155Y-20466190D01*
X204168155Y-20466190D02*
X204263393Y-20418571D01*
X204263393Y-20418571D02*
X204501488Y-20418571D01*
X204501488Y-20418571D02*
X204596726Y-20466190D01*
X204596726Y-20466190D02*
X204644345Y-20513809D01*
X204644345Y-20513809D02*
X204691964Y-20609047D01*
X204691964Y-20609047D02*
X204691964Y-20847142D01*
X204691964Y-20847142D02*
X204644345Y-20942380D01*
X204644345Y-20942380D02*
X204596726Y-20990000D01*
X204596726Y-20990000D02*
X204501488Y-21037619D01*
X204501488Y-21037619D02*
X204263393Y-21037619D01*
X204263393Y-21037619D02*
X204168155Y-20990000D01*
X204168155Y-20990000D02*
X204120536Y-20942380D01*
X253285666Y-21814809D02*
X252952333Y-21814809D01*
X252952333Y-22338619D02*
X252952333Y-21338619D01*
X252952333Y-21338619D02*
X253428523Y-21338619D01*
X254238047Y-21671952D02*
X254238047Y-22338619D01*
X253999952Y-21291000D02*
X253761857Y-22005285D01*
X253761857Y-22005285D02*
X254380904Y-22005285D01*
X280513619Y-31170285D02*
X280513619Y-30598857D01*
X281513619Y-30884571D02*
X280513619Y-30884571D01*
X281513619Y-30265523D02*
X280513619Y-30265523D01*
X280513619Y-30265523D02*
X280513619Y-29884571D01*
X280513619Y-29884571D02*
X280561238Y-29789333D01*
X280561238Y-29789333D02*
X280608857Y-29741714D01*
X280608857Y-29741714D02*
X280704095Y-29694095D01*
X280704095Y-29694095D02*
X280846952Y-29694095D01*
X280846952Y-29694095D02*
X280942190Y-29741714D01*
X280942190Y-29741714D02*
X280989809Y-29789333D01*
X280989809Y-29789333D02*
X281037428Y-29884571D01*
X281037428Y-29884571D02*
X281037428Y-30265523D01*
X281513619Y-28741714D02*
X281513619Y-29313142D01*
X281513619Y-29027428D02*
X280513619Y-29027428D01*
X280513619Y-29027428D02*
X280656476Y-29122666D01*
X280656476Y-29122666D02*
X280751714Y-29217904D01*
X280751714Y-29217904D02*
X280799333Y-29313142D01*
X280513619Y-28122666D02*
X280513619Y-28027428D01*
X280513619Y-28027428D02*
X280561238Y-27932190D01*
X280561238Y-27932190D02*
X280608857Y-27884571D01*
X280608857Y-27884571D02*
X280704095Y-27836952D01*
X280704095Y-27836952D02*
X280894571Y-27789333D01*
X280894571Y-27789333D02*
X281132666Y-27789333D01*
X281132666Y-27789333D02*
X281323142Y-27836952D01*
X281323142Y-27836952D02*
X281418380Y-27884571D01*
X281418380Y-27884571D02*
X281466000Y-27932190D01*
X281466000Y-27932190D02*
X281513619Y-28027428D01*
X281513619Y-28027428D02*
X281513619Y-28122666D01*
X281513619Y-28122666D02*
X281466000Y-28217904D01*
X281466000Y-28217904D02*
X281418380Y-28265523D01*
X281418380Y-28265523D02*
X281323142Y-28313142D01*
X281323142Y-28313142D02*
X281132666Y-28360761D01*
X281132666Y-28360761D02*
X280894571Y-28360761D01*
X280894571Y-28360761D02*
X280704095Y-28313142D01*
X280704095Y-28313142D02*
X280608857Y-28265523D01*
X280608857Y-28265523D02*
X280561238Y-28217904D01*
X280561238Y-28217904D02*
X280513619Y-28122666D01*
X281513619Y-27313142D02*
X281513619Y-27122666D01*
X281513619Y-27122666D02*
X281466000Y-27027428D01*
X281466000Y-27027428D02*
X281418380Y-26979809D01*
X281418380Y-26979809D02*
X281275523Y-26884571D01*
X281275523Y-26884571D02*
X281085047Y-26836952D01*
X281085047Y-26836952D02*
X280704095Y-26836952D01*
X280704095Y-26836952D02*
X280608857Y-26884571D01*
X280608857Y-26884571D02*
X280561238Y-26932190D01*
X280561238Y-26932190D02*
X280513619Y-27027428D01*
X280513619Y-27027428D02*
X280513619Y-27217904D01*
X280513619Y-27217904D02*
X280561238Y-27313142D01*
X280561238Y-27313142D02*
X280608857Y-27360761D01*
X280608857Y-27360761D02*
X280704095Y-27408380D01*
X280704095Y-27408380D02*
X280942190Y-27408380D01*
X280942190Y-27408380D02*
X281037428Y-27360761D01*
X281037428Y-27360761D02*
X281085047Y-27313142D01*
X281085047Y-27313142D02*
X281132666Y-27217904D01*
X281132666Y-27217904D02*
X281132666Y-27027428D01*
X281132666Y-27027428D02*
X281085047Y-26932190D01*
X281085047Y-26932190D02*
X281037428Y-26884571D01*
X281037428Y-26884571D02*
X280942190Y-26836952D01*
X26289286Y-20990000D02*
X26432143Y-21037619D01*
X26432143Y-21037619D02*
X26670238Y-21037619D01*
X26670238Y-21037619D02*
X26765476Y-20990000D01*
X26765476Y-20990000D02*
X26813095Y-20942380D01*
X26813095Y-20942380D02*
X26860714Y-20847142D01*
X26860714Y-20847142D02*
X26860714Y-20751904D01*
X26860714Y-20751904D02*
X26813095Y-20656666D01*
X26813095Y-20656666D02*
X26765476Y-20609047D01*
X26765476Y-20609047D02*
X26670238Y-20561428D01*
X26670238Y-20561428D02*
X26479762Y-20513809D01*
X26479762Y-20513809D02*
X26384524Y-20466190D01*
X26384524Y-20466190D02*
X26336905Y-20418571D01*
X26336905Y-20418571D02*
X26289286Y-20323333D01*
X26289286Y-20323333D02*
X26289286Y-20228095D01*
X26289286Y-20228095D02*
X26336905Y-20132857D01*
X26336905Y-20132857D02*
X26384524Y-20085238D01*
X26384524Y-20085238D02*
X26479762Y-20037619D01*
X26479762Y-20037619D02*
X26717857Y-20037619D01*
X26717857Y-20037619D02*
X26860714Y-20085238D01*
X27194048Y-20037619D02*
X27432143Y-21037619D01*
X27432143Y-21037619D02*
X27622619Y-20323333D01*
X27622619Y-20323333D02*
X27813095Y-21037619D01*
X27813095Y-21037619D02*
X28051191Y-20037619D01*
X28336905Y-20037619D02*
X28955952Y-20037619D01*
X28955952Y-20037619D02*
X28622619Y-20418571D01*
X28622619Y-20418571D02*
X28765476Y-20418571D01*
X28765476Y-20418571D02*
X28860714Y-20466190D01*
X28860714Y-20466190D02*
X28908333Y-20513809D01*
X28908333Y-20513809D02*
X28955952Y-20609047D01*
X28955952Y-20609047D02*
X28955952Y-20847142D01*
X28955952Y-20847142D02*
X28908333Y-20942380D01*
X28908333Y-20942380D02*
X28860714Y-20990000D01*
X28860714Y-20990000D02*
X28765476Y-21037619D01*
X28765476Y-21037619D02*
X28479762Y-21037619D01*
X28479762Y-21037619D02*
X28384524Y-20990000D01*
X28384524Y-20990000D02*
X28336905Y-20942380D01*
X29575000Y-20037619D02*
X29670238Y-20037619D01*
X29670238Y-20037619D02*
X29765476Y-20085238D01*
X29765476Y-20085238D02*
X29813095Y-20132857D01*
X29813095Y-20132857D02*
X29860714Y-20228095D01*
X29860714Y-20228095D02*
X29908333Y-20418571D01*
X29908333Y-20418571D02*
X29908333Y-20656666D01*
X29908333Y-20656666D02*
X29860714Y-20847142D01*
X29860714Y-20847142D02*
X29813095Y-20942380D01*
X29813095Y-20942380D02*
X29765476Y-20990000D01*
X29765476Y-20990000D02*
X29670238Y-21037619D01*
X29670238Y-21037619D02*
X29575000Y-21037619D01*
X29575000Y-21037619D02*
X29479762Y-20990000D01*
X29479762Y-20990000D02*
X29432143Y-20942380D01*
X29432143Y-20942380D02*
X29384524Y-20847142D01*
X29384524Y-20847142D02*
X29336905Y-20656666D01*
X29336905Y-20656666D02*
X29336905Y-20418571D01*
X29336905Y-20418571D02*
X29384524Y-20228095D01*
X29384524Y-20228095D02*
X29432143Y-20132857D01*
X29432143Y-20132857D02*
X29479762Y-20085238D01*
X29479762Y-20085238D02*
X29575000Y-20037619D01*
X30860714Y-21037619D02*
X30289286Y-21037619D01*
X30575000Y-21037619D02*
X30575000Y-20037619D01*
X30575000Y-20037619D02*
X30479762Y-20180476D01*
X30479762Y-20180476D02*
X30384524Y-20275714D01*
X30384524Y-20275714D02*
X30289286Y-20323333D01*
X270201714Y-50424619D02*
X269630286Y-50424619D01*
X269916000Y-50424619D02*
X269916000Y-49424619D01*
X269916000Y-49424619D02*
X269820762Y-49567476D01*
X269820762Y-49567476D02*
X269725524Y-49662714D01*
X269725524Y-49662714D02*
X269630286Y-49710333D01*
X31051786Y-40040000D02*
X31194643Y-40087619D01*
X31194643Y-40087619D02*
X31432738Y-40087619D01*
X31432738Y-40087619D02*
X31527976Y-40040000D01*
X31527976Y-40040000D02*
X31575595Y-39992380D01*
X31575595Y-39992380D02*
X31623214Y-39897142D01*
X31623214Y-39897142D02*
X31623214Y-39801904D01*
X31623214Y-39801904D02*
X31575595Y-39706666D01*
X31575595Y-39706666D02*
X31527976Y-39659047D01*
X31527976Y-39659047D02*
X31432738Y-39611428D01*
X31432738Y-39611428D02*
X31242262Y-39563809D01*
X31242262Y-39563809D02*
X31147024Y-39516190D01*
X31147024Y-39516190D02*
X31099405Y-39468571D01*
X31099405Y-39468571D02*
X31051786Y-39373333D01*
X31051786Y-39373333D02*
X31051786Y-39278095D01*
X31051786Y-39278095D02*
X31099405Y-39182857D01*
X31099405Y-39182857D02*
X31147024Y-39135238D01*
X31147024Y-39135238D02*
X31242262Y-39087619D01*
X31242262Y-39087619D02*
X31480357Y-39087619D01*
X31480357Y-39087619D02*
X31623214Y-39135238D01*
X31956548Y-39087619D02*
X32194643Y-40087619D01*
X32194643Y-40087619D02*
X32385119Y-39373333D01*
X32385119Y-39373333D02*
X32575595Y-40087619D01*
X32575595Y-40087619D02*
X32813691Y-39087619D01*
X33099405Y-39087619D02*
X33718452Y-39087619D01*
X33718452Y-39087619D02*
X33385119Y-39468571D01*
X33385119Y-39468571D02*
X33527976Y-39468571D01*
X33527976Y-39468571D02*
X33623214Y-39516190D01*
X33623214Y-39516190D02*
X33670833Y-39563809D01*
X33670833Y-39563809D02*
X33718452Y-39659047D01*
X33718452Y-39659047D02*
X33718452Y-39897142D01*
X33718452Y-39897142D02*
X33670833Y-39992380D01*
X33670833Y-39992380D02*
X33623214Y-40040000D01*
X33623214Y-40040000D02*
X33527976Y-40087619D01*
X33527976Y-40087619D02*
X33242262Y-40087619D01*
X33242262Y-40087619D02*
X33147024Y-40040000D01*
X33147024Y-40040000D02*
X33099405Y-39992380D01*
X34337500Y-39087619D02*
X34432738Y-39087619D01*
X34432738Y-39087619D02*
X34527976Y-39135238D01*
X34527976Y-39135238D02*
X34575595Y-39182857D01*
X34575595Y-39182857D02*
X34623214Y-39278095D01*
X34623214Y-39278095D02*
X34670833Y-39468571D01*
X34670833Y-39468571D02*
X34670833Y-39706666D01*
X34670833Y-39706666D02*
X34623214Y-39897142D01*
X34623214Y-39897142D02*
X34575595Y-39992380D01*
X34575595Y-39992380D02*
X34527976Y-40040000D01*
X34527976Y-40040000D02*
X34432738Y-40087619D01*
X34432738Y-40087619D02*
X34337500Y-40087619D01*
X34337500Y-40087619D02*
X34242262Y-40040000D01*
X34242262Y-40040000D02*
X34194643Y-39992380D01*
X34194643Y-39992380D02*
X34147024Y-39897142D01*
X34147024Y-39897142D02*
X34099405Y-39706666D01*
X34099405Y-39706666D02*
X34099405Y-39468571D01*
X34099405Y-39468571D02*
X34147024Y-39278095D01*
X34147024Y-39278095D02*
X34194643Y-39182857D01*
X34194643Y-39182857D02*
X34242262Y-39135238D01*
X34242262Y-39135238D02*
X34337500Y-39087619D01*
X35051786Y-39182857D02*
X35099405Y-39135238D01*
X35099405Y-39135238D02*
X35194643Y-39087619D01*
X35194643Y-39087619D02*
X35432738Y-39087619D01*
X35432738Y-39087619D02*
X35527976Y-39135238D01*
X35527976Y-39135238D02*
X35575595Y-39182857D01*
X35575595Y-39182857D02*
X35623214Y-39278095D01*
X35623214Y-39278095D02*
X35623214Y-39373333D01*
X35623214Y-39373333D02*
X35575595Y-39516190D01*
X35575595Y-39516190D02*
X35004167Y-40087619D01*
X35004167Y-40087619D02*
X35623214Y-40087619D01*
X40576786Y-59090000D02*
X40719643Y-59137619D01*
X40719643Y-59137619D02*
X40957738Y-59137619D01*
X40957738Y-59137619D02*
X41052976Y-59090000D01*
X41052976Y-59090000D02*
X41100595Y-59042380D01*
X41100595Y-59042380D02*
X41148214Y-58947142D01*
X41148214Y-58947142D02*
X41148214Y-58851904D01*
X41148214Y-58851904D02*
X41100595Y-58756666D01*
X41100595Y-58756666D02*
X41052976Y-58709047D01*
X41052976Y-58709047D02*
X40957738Y-58661428D01*
X40957738Y-58661428D02*
X40767262Y-58613809D01*
X40767262Y-58613809D02*
X40672024Y-58566190D01*
X40672024Y-58566190D02*
X40624405Y-58518571D01*
X40624405Y-58518571D02*
X40576786Y-58423333D01*
X40576786Y-58423333D02*
X40576786Y-58328095D01*
X40576786Y-58328095D02*
X40624405Y-58232857D01*
X40624405Y-58232857D02*
X40672024Y-58185238D01*
X40672024Y-58185238D02*
X40767262Y-58137619D01*
X40767262Y-58137619D02*
X41005357Y-58137619D01*
X41005357Y-58137619D02*
X41148214Y-58185238D01*
X41481548Y-58137619D02*
X41719643Y-59137619D01*
X41719643Y-59137619D02*
X41910119Y-58423333D01*
X41910119Y-58423333D02*
X42100595Y-59137619D01*
X42100595Y-59137619D02*
X42338691Y-58137619D01*
X42624405Y-58137619D02*
X43243452Y-58137619D01*
X43243452Y-58137619D02*
X42910119Y-58518571D01*
X42910119Y-58518571D02*
X43052976Y-58518571D01*
X43052976Y-58518571D02*
X43148214Y-58566190D01*
X43148214Y-58566190D02*
X43195833Y-58613809D01*
X43195833Y-58613809D02*
X43243452Y-58709047D01*
X43243452Y-58709047D02*
X43243452Y-58947142D01*
X43243452Y-58947142D02*
X43195833Y-59042380D01*
X43195833Y-59042380D02*
X43148214Y-59090000D01*
X43148214Y-59090000D02*
X43052976Y-59137619D01*
X43052976Y-59137619D02*
X42767262Y-59137619D01*
X42767262Y-59137619D02*
X42672024Y-59090000D01*
X42672024Y-59090000D02*
X42624405Y-59042380D01*
X43862500Y-58137619D02*
X43957738Y-58137619D01*
X43957738Y-58137619D02*
X44052976Y-58185238D01*
X44052976Y-58185238D02*
X44100595Y-58232857D01*
X44100595Y-58232857D02*
X44148214Y-58328095D01*
X44148214Y-58328095D02*
X44195833Y-58518571D01*
X44195833Y-58518571D02*
X44195833Y-58756666D01*
X44195833Y-58756666D02*
X44148214Y-58947142D01*
X44148214Y-58947142D02*
X44100595Y-59042380D01*
X44100595Y-59042380D02*
X44052976Y-59090000D01*
X44052976Y-59090000D02*
X43957738Y-59137619D01*
X43957738Y-59137619D02*
X43862500Y-59137619D01*
X43862500Y-59137619D02*
X43767262Y-59090000D01*
X43767262Y-59090000D02*
X43719643Y-59042380D01*
X43719643Y-59042380D02*
X43672024Y-58947142D01*
X43672024Y-58947142D02*
X43624405Y-58756666D01*
X43624405Y-58756666D02*
X43624405Y-58518571D01*
X43624405Y-58518571D02*
X43672024Y-58328095D01*
X43672024Y-58328095D02*
X43719643Y-58232857D01*
X43719643Y-58232857D02*
X43767262Y-58185238D01*
X43767262Y-58185238D02*
X43862500Y-58137619D01*
X44529167Y-58137619D02*
X45148214Y-58137619D01*
X45148214Y-58137619D02*
X44814881Y-58518571D01*
X44814881Y-58518571D02*
X44957738Y-58518571D01*
X44957738Y-58518571D02*
X45052976Y-58566190D01*
X45052976Y-58566190D02*
X45100595Y-58613809D01*
X45100595Y-58613809D02*
X45148214Y-58709047D01*
X45148214Y-58709047D02*
X45148214Y-58947142D01*
X45148214Y-58947142D02*
X45100595Y-59042380D01*
X45100595Y-59042380D02*
X45052976Y-59090000D01*
X45052976Y-59090000D02*
X44957738Y-59137619D01*
X44957738Y-59137619D02*
X44672024Y-59137619D01*
X44672024Y-59137619D02*
X44576786Y-59090000D01*
X44576786Y-59090000D02*
X44529167Y-59042380D01*
X253436714Y-30577619D02*
X254008142Y-30577619D01*
X253722428Y-31577619D02*
X253722428Y-30577619D01*
X254341476Y-31577619D02*
X254341476Y-30577619D01*
X254341476Y-30577619D02*
X254722428Y-30577619D01*
X254722428Y-30577619D02*
X254817666Y-30625238D01*
X254817666Y-30625238D02*
X254865285Y-30672857D01*
X254865285Y-30672857D02*
X254912904Y-30768095D01*
X254912904Y-30768095D02*
X254912904Y-30910952D01*
X254912904Y-30910952D02*
X254865285Y-31006190D01*
X254865285Y-31006190D02*
X254817666Y-31053809D01*
X254817666Y-31053809D02*
X254722428Y-31101428D01*
X254722428Y-31101428D02*
X254341476Y-31101428D01*
X255865285Y-31577619D02*
X255293857Y-31577619D01*
X255579571Y-31577619D02*
X255579571Y-30577619D01*
X255579571Y-30577619D02*
X255484333Y-30720476D01*
X255484333Y-30720476D02*
X255389095Y-30815714D01*
X255389095Y-30815714D02*
X255293857Y-30863333D01*
X256484333Y-30577619D02*
X256579571Y-30577619D01*
X256579571Y-30577619D02*
X256674809Y-30625238D01*
X256674809Y-30625238D02*
X256722428Y-30672857D01*
X256722428Y-30672857D02*
X256770047Y-30768095D01*
X256770047Y-30768095D02*
X256817666Y-30958571D01*
X256817666Y-30958571D02*
X256817666Y-31196666D01*
X256817666Y-31196666D02*
X256770047Y-31387142D01*
X256770047Y-31387142D02*
X256722428Y-31482380D01*
X256722428Y-31482380D02*
X256674809Y-31530000D01*
X256674809Y-31530000D02*
X256579571Y-31577619D01*
X256579571Y-31577619D02*
X256484333Y-31577619D01*
X256484333Y-31577619D02*
X256389095Y-31530000D01*
X256389095Y-31530000D02*
X256341476Y-31482380D01*
X256341476Y-31482380D02*
X256293857Y-31387142D01*
X256293857Y-31387142D02*
X256246238Y-31196666D01*
X256246238Y-31196666D02*
X256246238Y-30958571D01*
X256246238Y-30958571D02*
X256293857Y-30768095D01*
X256293857Y-30768095D02*
X256341476Y-30672857D01*
X256341476Y-30672857D02*
X256389095Y-30625238D01*
X256389095Y-30625238D02*
X256484333Y-30577619D01*
X257674809Y-30910952D02*
X257674809Y-31577619D01*
X257436714Y-30530000D02*
X257198619Y-31244285D01*
X257198619Y-31244285D02*
X257817666Y-31244285D01*
X270353619Y-31170285D02*
X270353619Y-30598857D01*
X271353619Y-30884571D02*
X270353619Y-30884571D01*
X271353619Y-30265523D02*
X270353619Y-30265523D01*
X270353619Y-30265523D02*
X270353619Y-29884571D01*
X270353619Y-29884571D02*
X270401238Y-29789333D01*
X270401238Y-29789333D02*
X270448857Y-29741714D01*
X270448857Y-29741714D02*
X270544095Y-29694095D01*
X270544095Y-29694095D02*
X270686952Y-29694095D01*
X270686952Y-29694095D02*
X270782190Y-29741714D01*
X270782190Y-29741714D02*
X270829809Y-29789333D01*
X270829809Y-29789333D02*
X270877428Y-29884571D01*
X270877428Y-29884571D02*
X270877428Y-30265523D01*
X271353619Y-28741714D02*
X271353619Y-29313142D01*
X271353619Y-29027428D02*
X270353619Y-29027428D01*
X270353619Y-29027428D02*
X270496476Y-29122666D01*
X270496476Y-29122666D02*
X270591714Y-29217904D01*
X270591714Y-29217904D02*
X270639333Y-29313142D01*
X270353619Y-28122666D02*
X270353619Y-28027428D01*
X270353619Y-28027428D02*
X270401238Y-27932190D01*
X270401238Y-27932190D02*
X270448857Y-27884571D01*
X270448857Y-27884571D02*
X270544095Y-27836952D01*
X270544095Y-27836952D02*
X270734571Y-27789333D01*
X270734571Y-27789333D02*
X270972666Y-27789333D01*
X270972666Y-27789333D02*
X271163142Y-27836952D01*
X271163142Y-27836952D02*
X271258380Y-27884571D01*
X271258380Y-27884571D02*
X271306000Y-27932190D01*
X271306000Y-27932190D02*
X271353619Y-28027428D01*
X271353619Y-28027428D02*
X271353619Y-28122666D01*
X271353619Y-28122666D02*
X271306000Y-28217904D01*
X271306000Y-28217904D02*
X271258380Y-28265523D01*
X271258380Y-28265523D02*
X271163142Y-28313142D01*
X271163142Y-28313142D02*
X270972666Y-28360761D01*
X270972666Y-28360761D02*
X270734571Y-28360761D01*
X270734571Y-28360761D02*
X270544095Y-28313142D01*
X270544095Y-28313142D02*
X270448857Y-28265523D01*
X270448857Y-28265523D02*
X270401238Y-28217904D01*
X270401238Y-28217904D02*
X270353619Y-28122666D01*
X270353619Y-26932190D02*
X270353619Y-27122666D01*
X270353619Y-27122666D02*
X270401238Y-27217904D01*
X270401238Y-27217904D02*
X270448857Y-27265523D01*
X270448857Y-27265523D02*
X270591714Y-27360761D01*
X270591714Y-27360761D02*
X270782190Y-27408380D01*
X270782190Y-27408380D02*
X271163142Y-27408380D01*
X271163142Y-27408380D02*
X271258380Y-27360761D01*
X271258380Y-27360761D02*
X271306000Y-27313142D01*
X271306000Y-27313142D02*
X271353619Y-27217904D01*
X271353619Y-27217904D02*
X271353619Y-27027428D01*
X271353619Y-27027428D02*
X271306000Y-26932190D01*
X271306000Y-26932190D02*
X271258380Y-26884571D01*
X271258380Y-26884571D02*
X271163142Y-26836952D01*
X271163142Y-26836952D02*
X270925047Y-26836952D01*
X270925047Y-26836952D02*
X270829809Y-26884571D01*
X270829809Y-26884571D02*
X270782190Y-26932190D01*
X270782190Y-26932190D02*
X270734571Y-27027428D01*
X270734571Y-27027428D02*
X270734571Y-27217904D01*
X270734571Y-27217904D02*
X270782190Y-27313142D01*
X270782190Y-27313142D02*
X270829809Y-27360761D01*
X270829809Y-27360761D02*
X270925047Y-27408380D01*
X270074714Y-41788619D02*
X269503286Y-41788619D01*
X269789000Y-41788619D02*
X269789000Y-40788619D01*
X269789000Y-40788619D02*
X269693762Y-40931476D01*
X269693762Y-40931476D02*
X269598524Y-41026714D01*
X269598524Y-41026714D02*
X269503286Y-41074333D01*
X119158036Y-59090000D02*
X119300893Y-59137619D01*
X119300893Y-59137619D02*
X119538988Y-59137619D01*
X119538988Y-59137619D02*
X119634226Y-59090000D01*
X119634226Y-59090000D02*
X119681845Y-59042380D01*
X119681845Y-59042380D02*
X119729464Y-58947142D01*
X119729464Y-58947142D02*
X119729464Y-58851904D01*
X119729464Y-58851904D02*
X119681845Y-58756666D01*
X119681845Y-58756666D02*
X119634226Y-58709047D01*
X119634226Y-58709047D02*
X119538988Y-58661428D01*
X119538988Y-58661428D02*
X119348512Y-58613809D01*
X119348512Y-58613809D02*
X119253274Y-58566190D01*
X119253274Y-58566190D02*
X119205655Y-58518571D01*
X119205655Y-58518571D02*
X119158036Y-58423333D01*
X119158036Y-58423333D02*
X119158036Y-58328095D01*
X119158036Y-58328095D02*
X119205655Y-58232857D01*
X119205655Y-58232857D02*
X119253274Y-58185238D01*
X119253274Y-58185238D02*
X119348512Y-58137619D01*
X119348512Y-58137619D02*
X119586607Y-58137619D01*
X119586607Y-58137619D02*
X119729464Y-58185238D01*
X120062798Y-58137619D02*
X120300893Y-59137619D01*
X120300893Y-59137619D02*
X120491369Y-58423333D01*
X120491369Y-58423333D02*
X120681845Y-59137619D01*
X120681845Y-59137619D02*
X120919941Y-58137619D01*
X121205655Y-58137619D02*
X121824702Y-58137619D01*
X121824702Y-58137619D02*
X121491369Y-58518571D01*
X121491369Y-58518571D02*
X121634226Y-58518571D01*
X121634226Y-58518571D02*
X121729464Y-58566190D01*
X121729464Y-58566190D02*
X121777083Y-58613809D01*
X121777083Y-58613809D02*
X121824702Y-58709047D01*
X121824702Y-58709047D02*
X121824702Y-58947142D01*
X121824702Y-58947142D02*
X121777083Y-59042380D01*
X121777083Y-59042380D02*
X121729464Y-59090000D01*
X121729464Y-59090000D02*
X121634226Y-59137619D01*
X121634226Y-59137619D02*
X121348512Y-59137619D01*
X121348512Y-59137619D02*
X121253274Y-59090000D01*
X121253274Y-59090000D02*
X121205655Y-59042380D01*
X122777083Y-59137619D02*
X122205655Y-59137619D01*
X122491369Y-59137619D02*
X122491369Y-58137619D01*
X122491369Y-58137619D02*
X122396131Y-58280476D01*
X122396131Y-58280476D02*
X122300893Y-58375714D01*
X122300893Y-58375714D02*
X122205655Y-58423333D01*
X123348512Y-58566190D02*
X123253274Y-58518571D01*
X123253274Y-58518571D02*
X123205655Y-58470952D01*
X123205655Y-58470952D02*
X123158036Y-58375714D01*
X123158036Y-58375714D02*
X123158036Y-58328095D01*
X123158036Y-58328095D02*
X123205655Y-58232857D01*
X123205655Y-58232857D02*
X123253274Y-58185238D01*
X123253274Y-58185238D02*
X123348512Y-58137619D01*
X123348512Y-58137619D02*
X123538988Y-58137619D01*
X123538988Y-58137619D02*
X123634226Y-58185238D01*
X123634226Y-58185238D02*
X123681845Y-58232857D01*
X123681845Y-58232857D02*
X123729464Y-58328095D01*
X123729464Y-58328095D02*
X123729464Y-58375714D01*
X123729464Y-58375714D02*
X123681845Y-58470952D01*
X123681845Y-58470952D02*
X123634226Y-58518571D01*
X123634226Y-58518571D02*
X123538988Y-58566190D01*
X123538988Y-58566190D02*
X123348512Y-58566190D01*
X123348512Y-58566190D02*
X123253274Y-58613809D01*
X123253274Y-58613809D02*
X123205655Y-58661428D01*
X123205655Y-58661428D02*
X123158036Y-58756666D01*
X123158036Y-58756666D02*
X123158036Y-58947142D01*
X123158036Y-58947142D02*
X123205655Y-59042380D01*
X123205655Y-59042380D02*
X123253274Y-59090000D01*
X123253274Y-59090000D02*
X123348512Y-59137619D01*
X123348512Y-59137619D02*
X123538988Y-59137619D01*
X123538988Y-59137619D02*
X123634226Y-59090000D01*
X123634226Y-59090000D02*
X123681845Y-59042380D01*
X123681845Y-59042380D02*
X123729464Y-58947142D01*
X123729464Y-58947142D02*
X123729464Y-58756666D01*
X123729464Y-58756666D02*
X123681845Y-58661428D01*
X123681845Y-58661428D02*
X123634226Y-58613809D01*
X123634226Y-58613809D02*
X123538988Y-58566190D01*
X195358036Y-59090000D02*
X195500893Y-59137619D01*
X195500893Y-59137619D02*
X195738988Y-59137619D01*
X195738988Y-59137619D02*
X195834226Y-59090000D01*
X195834226Y-59090000D02*
X195881845Y-59042380D01*
X195881845Y-59042380D02*
X195929464Y-58947142D01*
X195929464Y-58947142D02*
X195929464Y-58851904D01*
X195929464Y-58851904D02*
X195881845Y-58756666D01*
X195881845Y-58756666D02*
X195834226Y-58709047D01*
X195834226Y-58709047D02*
X195738988Y-58661428D01*
X195738988Y-58661428D02*
X195548512Y-58613809D01*
X195548512Y-58613809D02*
X195453274Y-58566190D01*
X195453274Y-58566190D02*
X195405655Y-58518571D01*
X195405655Y-58518571D02*
X195358036Y-58423333D01*
X195358036Y-58423333D02*
X195358036Y-58328095D01*
X195358036Y-58328095D02*
X195405655Y-58232857D01*
X195405655Y-58232857D02*
X195453274Y-58185238D01*
X195453274Y-58185238D02*
X195548512Y-58137619D01*
X195548512Y-58137619D02*
X195786607Y-58137619D01*
X195786607Y-58137619D02*
X195929464Y-58185238D01*
X196262798Y-58137619D02*
X196500893Y-59137619D01*
X196500893Y-59137619D02*
X196691369Y-58423333D01*
X196691369Y-58423333D02*
X196881845Y-59137619D01*
X196881845Y-59137619D02*
X197119941Y-58137619D01*
X197405655Y-58137619D02*
X198024702Y-58137619D01*
X198024702Y-58137619D02*
X197691369Y-58518571D01*
X197691369Y-58518571D02*
X197834226Y-58518571D01*
X197834226Y-58518571D02*
X197929464Y-58566190D01*
X197929464Y-58566190D02*
X197977083Y-58613809D01*
X197977083Y-58613809D02*
X198024702Y-58709047D01*
X198024702Y-58709047D02*
X198024702Y-58947142D01*
X198024702Y-58947142D02*
X197977083Y-59042380D01*
X197977083Y-59042380D02*
X197929464Y-59090000D01*
X197929464Y-59090000D02*
X197834226Y-59137619D01*
X197834226Y-59137619D02*
X197548512Y-59137619D01*
X197548512Y-59137619D02*
X197453274Y-59090000D01*
X197453274Y-59090000D02*
X197405655Y-59042380D01*
X198358036Y-58137619D02*
X198977083Y-58137619D01*
X198977083Y-58137619D02*
X198643750Y-58518571D01*
X198643750Y-58518571D02*
X198786607Y-58518571D01*
X198786607Y-58518571D02*
X198881845Y-58566190D01*
X198881845Y-58566190D02*
X198929464Y-58613809D01*
X198929464Y-58613809D02*
X198977083Y-58709047D01*
X198977083Y-58709047D02*
X198977083Y-58947142D01*
X198977083Y-58947142D02*
X198929464Y-59042380D01*
X198929464Y-59042380D02*
X198881845Y-59090000D01*
X198881845Y-59090000D02*
X198786607Y-59137619D01*
X198786607Y-59137619D02*
X198500893Y-59137619D01*
X198500893Y-59137619D02*
X198405655Y-59090000D01*
X198405655Y-59090000D02*
X198358036Y-59042380D01*
X199310417Y-58137619D02*
X199929464Y-58137619D01*
X199929464Y-58137619D02*
X199596131Y-58518571D01*
X199596131Y-58518571D02*
X199738988Y-58518571D01*
X199738988Y-58518571D02*
X199834226Y-58566190D01*
X199834226Y-58566190D02*
X199881845Y-58613809D01*
X199881845Y-58613809D02*
X199929464Y-58709047D01*
X199929464Y-58709047D02*
X199929464Y-58947142D01*
X199929464Y-58947142D02*
X199881845Y-59042380D01*
X199881845Y-59042380D02*
X199834226Y-59090000D01*
X199834226Y-59090000D02*
X199738988Y-59137619D01*
X199738988Y-59137619D02*
X199453274Y-59137619D01*
X199453274Y-59137619D02*
X199358036Y-59090000D01*
X199358036Y-59090000D02*
X199310417Y-59042380D01*
X147733036Y-40040000D02*
X147875893Y-40087619D01*
X147875893Y-40087619D02*
X148113988Y-40087619D01*
X148113988Y-40087619D02*
X148209226Y-40040000D01*
X148209226Y-40040000D02*
X148256845Y-39992380D01*
X148256845Y-39992380D02*
X148304464Y-39897142D01*
X148304464Y-39897142D02*
X148304464Y-39801904D01*
X148304464Y-39801904D02*
X148256845Y-39706666D01*
X148256845Y-39706666D02*
X148209226Y-39659047D01*
X148209226Y-39659047D02*
X148113988Y-39611428D01*
X148113988Y-39611428D02*
X147923512Y-39563809D01*
X147923512Y-39563809D02*
X147828274Y-39516190D01*
X147828274Y-39516190D02*
X147780655Y-39468571D01*
X147780655Y-39468571D02*
X147733036Y-39373333D01*
X147733036Y-39373333D02*
X147733036Y-39278095D01*
X147733036Y-39278095D02*
X147780655Y-39182857D01*
X147780655Y-39182857D02*
X147828274Y-39135238D01*
X147828274Y-39135238D02*
X147923512Y-39087619D01*
X147923512Y-39087619D02*
X148161607Y-39087619D01*
X148161607Y-39087619D02*
X148304464Y-39135238D01*
X148637798Y-39087619D02*
X148875893Y-40087619D01*
X148875893Y-40087619D02*
X149066369Y-39373333D01*
X149066369Y-39373333D02*
X149256845Y-40087619D01*
X149256845Y-40087619D02*
X149494941Y-39087619D01*
X149780655Y-39087619D02*
X150399702Y-39087619D01*
X150399702Y-39087619D02*
X150066369Y-39468571D01*
X150066369Y-39468571D02*
X150209226Y-39468571D01*
X150209226Y-39468571D02*
X150304464Y-39516190D01*
X150304464Y-39516190D02*
X150352083Y-39563809D01*
X150352083Y-39563809D02*
X150399702Y-39659047D01*
X150399702Y-39659047D02*
X150399702Y-39897142D01*
X150399702Y-39897142D02*
X150352083Y-39992380D01*
X150352083Y-39992380D02*
X150304464Y-40040000D01*
X150304464Y-40040000D02*
X150209226Y-40087619D01*
X150209226Y-40087619D02*
X149923512Y-40087619D01*
X149923512Y-40087619D02*
X149828274Y-40040000D01*
X149828274Y-40040000D02*
X149780655Y-39992380D01*
X150780655Y-39182857D02*
X150828274Y-39135238D01*
X150828274Y-39135238D02*
X150923512Y-39087619D01*
X150923512Y-39087619D02*
X151161607Y-39087619D01*
X151161607Y-39087619D02*
X151256845Y-39135238D01*
X151256845Y-39135238D02*
X151304464Y-39182857D01*
X151304464Y-39182857D02*
X151352083Y-39278095D01*
X151352083Y-39278095D02*
X151352083Y-39373333D01*
X151352083Y-39373333D02*
X151304464Y-39516190D01*
X151304464Y-39516190D02*
X150733036Y-40087619D01*
X150733036Y-40087619D02*
X151352083Y-40087619D01*
X152209226Y-39420952D02*
X152209226Y-40087619D01*
X151971131Y-39040000D02*
X151733036Y-39754285D01*
X151733036Y-39754285D02*
X152352083Y-39754285D01*
X119158036Y-78140000D02*
X119300893Y-78187619D01*
X119300893Y-78187619D02*
X119538988Y-78187619D01*
X119538988Y-78187619D02*
X119634226Y-78140000D01*
X119634226Y-78140000D02*
X119681845Y-78092380D01*
X119681845Y-78092380D02*
X119729464Y-77997142D01*
X119729464Y-77997142D02*
X119729464Y-77901904D01*
X119729464Y-77901904D02*
X119681845Y-77806666D01*
X119681845Y-77806666D02*
X119634226Y-77759047D01*
X119634226Y-77759047D02*
X119538988Y-77711428D01*
X119538988Y-77711428D02*
X119348512Y-77663809D01*
X119348512Y-77663809D02*
X119253274Y-77616190D01*
X119253274Y-77616190D02*
X119205655Y-77568571D01*
X119205655Y-77568571D02*
X119158036Y-77473333D01*
X119158036Y-77473333D02*
X119158036Y-77378095D01*
X119158036Y-77378095D02*
X119205655Y-77282857D01*
X119205655Y-77282857D02*
X119253274Y-77235238D01*
X119253274Y-77235238D02*
X119348512Y-77187619D01*
X119348512Y-77187619D02*
X119586607Y-77187619D01*
X119586607Y-77187619D02*
X119729464Y-77235238D01*
X120062798Y-77187619D02*
X120300893Y-78187619D01*
X120300893Y-78187619D02*
X120491369Y-77473333D01*
X120491369Y-77473333D02*
X120681845Y-78187619D01*
X120681845Y-78187619D02*
X120919941Y-77187619D01*
X121205655Y-77187619D02*
X121824702Y-77187619D01*
X121824702Y-77187619D02*
X121491369Y-77568571D01*
X121491369Y-77568571D02*
X121634226Y-77568571D01*
X121634226Y-77568571D02*
X121729464Y-77616190D01*
X121729464Y-77616190D02*
X121777083Y-77663809D01*
X121777083Y-77663809D02*
X121824702Y-77759047D01*
X121824702Y-77759047D02*
X121824702Y-77997142D01*
X121824702Y-77997142D02*
X121777083Y-78092380D01*
X121777083Y-78092380D02*
X121729464Y-78140000D01*
X121729464Y-78140000D02*
X121634226Y-78187619D01*
X121634226Y-78187619D02*
X121348512Y-78187619D01*
X121348512Y-78187619D02*
X121253274Y-78140000D01*
X121253274Y-78140000D02*
X121205655Y-78092380D01*
X122777083Y-78187619D02*
X122205655Y-78187619D01*
X122491369Y-78187619D02*
X122491369Y-77187619D01*
X122491369Y-77187619D02*
X122396131Y-77330476D01*
X122396131Y-77330476D02*
X122300893Y-77425714D01*
X122300893Y-77425714D02*
X122205655Y-77473333D01*
X123253274Y-78187619D02*
X123443750Y-78187619D01*
X123443750Y-78187619D02*
X123538988Y-78140000D01*
X123538988Y-78140000D02*
X123586607Y-78092380D01*
X123586607Y-78092380D02*
X123681845Y-77949523D01*
X123681845Y-77949523D02*
X123729464Y-77759047D01*
X123729464Y-77759047D02*
X123729464Y-77378095D01*
X123729464Y-77378095D02*
X123681845Y-77282857D01*
X123681845Y-77282857D02*
X123634226Y-77235238D01*
X123634226Y-77235238D02*
X123538988Y-77187619D01*
X123538988Y-77187619D02*
X123348512Y-77187619D01*
X123348512Y-77187619D02*
X123253274Y-77235238D01*
X123253274Y-77235238D02*
X123205655Y-77282857D01*
X123205655Y-77282857D02*
X123158036Y-77378095D01*
X123158036Y-77378095D02*
X123158036Y-77616190D01*
X123158036Y-77616190D02*
X123205655Y-77711428D01*
X123205655Y-77711428D02*
X123253274Y-77759047D01*
X123253274Y-77759047D02*
X123348512Y-77806666D01*
X123348512Y-77806666D02*
X123538988Y-77806666D01*
X123538988Y-77806666D02*
X123634226Y-77759047D01*
X123634226Y-77759047D02*
X123681845Y-77711428D01*
X123681845Y-77711428D02*
X123729464Y-77616190D01*
X270074714Y-59314619D02*
X269503286Y-59314619D01*
X269789000Y-59314619D02*
X269789000Y-58314619D01*
X269789000Y-58314619D02*
X269693762Y-58457476D01*
X269693762Y-58457476D02*
X269598524Y-58552714D01*
X269598524Y-58552714D02*
X269503286Y-58600333D01*
X109633036Y-40040000D02*
X109775893Y-40087619D01*
X109775893Y-40087619D02*
X110013988Y-40087619D01*
X110013988Y-40087619D02*
X110109226Y-40040000D01*
X110109226Y-40040000D02*
X110156845Y-39992380D01*
X110156845Y-39992380D02*
X110204464Y-39897142D01*
X110204464Y-39897142D02*
X110204464Y-39801904D01*
X110204464Y-39801904D02*
X110156845Y-39706666D01*
X110156845Y-39706666D02*
X110109226Y-39659047D01*
X110109226Y-39659047D02*
X110013988Y-39611428D01*
X110013988Y-39611428D02*
X109823512Y-39563809D01*
X109823512Y-39563809D02*
X109728274Y-39516190D01*
X109728274Y-39516190D02*
X109680655Y-39468571D01*
X109680655Y-39468571D02*
X109633036Y-39373333D01*
X109633036Y-39373333D02*
X109633036Y-39278095D01*
X109633036Y-39278095D02*
X109680655Y-39182857D01*
X109680655Y-39182857D02*
X109728274Y-39135238D01*
X109728274Y-39135238D02*
X109823512Y-39087619D01*
X109823512Y-39087619D02*
X110061607Y-39087619D01*
X110061607Y-39087619D02*
X110204464Y-39135238D01*
X110537798Y-39087619D02*
X110775893Y-40087619D01*
X110775893Y-40087619D02*
X110966369Y-39373333D01*
X110966369Y-39373333D02*
X111156845Y-40087619D01*
X111156845Y-40087619D02*
X111394941Y-39087619D01*
X111680655Y-39087619D02*
X112299702Y-39087619D01*
X112299702Y-39087619D02*
X111966369Y-39468571D01*
X111966369Y-39468571D02*
X112109226Y-39468571D01*
X112109226Y-39468571D02*
X112204464Y-39516190D01*
X112204464Y-39516190D02*
X112252083Y-39563809D01*
X112252083Y-39563809D02*
X112299702Y-39659047D01*
X112299702Y-39659047D02*
X112299702Y-39897142D01*
X112299702Y-39897142D02*
X112252083Y-39992380D01*
X112252083Y-39992380D02*
X112204464Y-40040000D01*
X112204464Y-40040000D02*
X112109226Y-40087619D01*
X112109226Y-40087619D02*
X111823512Y-40087619D01*
X111823512Y-40087619D02*
X111728274Y-40040000D01*
X111728274Y-40040000D02*
X111680655Y-39992380D01*
X113252083Y-40087619D02*
X112680655Y-40087619D01*
X112966369Y-40087619D02*
X112966369Y-39087619D01*
X112966369Y-39087619D02*
X112871131Y-39230476D01*
X112871131Y-39230476D02*
X112775893Y-39325714D01*
X112775893Y-39325714D02*
X112680655Y-39373333D01*
X113585417Y-39087619D02*
X114252083Y-39087619D01*
X114252083Y-39087619D02*
X113823512Y-40087619D01*
X69151786Y-78140000D02*
X69294643Y-78187619D01*
X69294643Y-78187619D02*
X69532738Y-78187619D01*
X69532738Y-78187619D02*
X69627976Y-78140000D01*
X69627976Y-78140000D02*
X69675595Y-78092380D01*
X69675595Y-78092380D02*
X69723214Y-77997142D01*
X69723214Y-77997142D02*
X69723214Y-77901904D01*
X69723214Y-77901904D02*
X69675595Y-77806666D01*
X69675595Y-77806666D02*
X69627976Y-77759047D01*
X69627976Y-77759047D02*
X69532738Y-77711428D01*
X69532738Y-77711428D02*
X69342262Y-77663809D01*
X69342262Y-77663809D02*
X69247024Y-77616190D01*
X69247024Y-77616190D02*
X69199405Y-77568571D01*
X69199405Y-77568571D02*
X69151786Y-77473333D01*
X69151786Y-77473333D02*
X69151786Y-77378095D01*
X69151786Y-77378095D02*
X69199405Y-77282857D01*
X69199405Y-77282857D02*
X69247024Y-77235238D01*
X69247024Y-77235238D02*
X69342262Y-77187619D01*
X69342262Y-77187619D02*
X69580357Y-77187619D01*
X69580357Y-77187619D02*
X69723214Y-77235238D01*
X70056548Y-77187619D02*
X70294643Y-78187619D01*
X70294643Y-78187619D02*
X70485119Y-77473333D01*
X70485119Y-77473333D02*
X70675595Y-78187619D01*
X70675595Y-78187619D02*
X70913691Y-77187619D01*
X71199405Y-77187619D02*
X71818452Y-77187619D01*
X71818452Y-77187619D02*
X71485119Y-77568571D01*
X71485119Y-77568571D02*
X71627976Y-77568571D01*
X71627976Y-77568571D02*
X71723214Y-77616190D01*
X71723214Y-77616190D02*
X71770833Y-77663809D01*
X71770833Y-77663809D02*
X71818452Y-77759047D01*
X71818452Y-77759047D02*
X71818452Y-77997142D01*
X71818452Y-77997142D02*
X71770833Y-78092380D01*
X71770833Y-78092380D02*
X71723214Y-78140000D01*
X71723214Y-78140000D02*
X71627976Y-78187619D01*
X71627976Y-78187619D02*
X71342262Y-78187619D01*
X71342262Y-78187619D02*
X71247024Y-78140000D01*
X71247024Y-78140000D02*
X71199405Y-78092380D01*
X72437500Y-77187619D02*
X72532738Y-77187619D01*
X72532738Y-77187619D02*
X72627976Y-77235238D01*
X72627976Y-77235238D02*
X72675595Y-77282857D01*
X72675595Y-77282857D02*
X72723214Y-77378095D01*
X72723214Y-77378095D02*
X72770833Y-77568571D01*
X72770833Y-77568571D02*
X72770833Y-77806666D01*
X72770833Y-77806666D02*
X72723214Y-77997142D01*
X72723214Y-77997142D02*
X72675595Y-78092380D01*
X72675595Y-78092380D02*
X72627976Y-78140000D01*
X72627976Y-78140000D02*
X72532738Y-78187619D01*
X72532738Y-78187619D02*
X72437500Y-78187619D01*
X72437500Y-78187619D02*
X72342262Y-78140000D01*
X72342262Y-78140000D02*
X72294643Y-78092380D01*
X72294643Y-78092380D02*
X72247024Y-77997142D01*
X72247024Y-77997142D02*
X72199405Y-77806666D01*
X72199405Y-77806666D02*
X72199405Y-77568571D01*
X72199405Y-77568571D02*
X72247024Y-77378095D01*
X72247024Y-77378095D02*
X72294643Y-77282857D01*
X72294643Y-77282857D02*
X72342262Y-77235238D01*
X72342262Y-77235238D02*
X72437500Y-77187619D01*
X73342262Y-77616190D02*
X73247024Y-77568571D01*
X73247024Y-77568571D02*
X73199405Y-77520952D01*
X73199405Y-77520952D02*
X73151786Y-77425714D01*
X73151786Y-77425714D02*
X73151786Y-77378095D01*
X73151786Y-77378095D02*
X73199405Y-77282857D01*
X73199405Y-77282857D02*
X73247024Y-77235238D01*
X73247024Y-77235238D02*
X73342262Y-77187619D01*
X73342262Y-77187619D02*
X73532738Y-77187619D01*
X73532738Y-77187619D02*
X73627976Y-77235238D01*
X73627976Y-77235238D02*
X73675595Y-77282857D01*
X73675595Y-77282857D02*
X73723214Y-77378095D01*
X73723214Y-77378095D02*
X73723214Y-77425714D01*
X73723214Y-77425714D02*
X73675595Y-77520952D01*
X73675595Y-77520952D02*
X73627976Y-77568571D01*
X73627976Y-77568571D02*
X73532738Y-77616190D01*
X73532738Y-77616190D02*
X73342262Y-77616190D01*
X73342262Y-77616190D02*
X73247024Y-77663809D01*
X73247024Y-77663809D02*
X73199405Y-77711428D01*
X73199405Y-77711428D02*
X73151786Y-77806666D01*
X73151786Y-77806666D02*
X73151786Y-77997142D01*
X73151786Y-77997142D02*
X73199405Y-78092380D01*
X73199405Y-78092380D02*
X73247024Y-78140000D01*
X73247024Y-78140000D02*
X73342262Y-78187619D01*
X73342262Y-78187619D02*
X73532738Y-78187619D01*
X73532738Y-78187619D02*
X73627976Y-78140000D01*
X73627976Y-78140000D02*
X73675595Y-78092380D01*
X73675595Y-78092380D02*
X73723214Y-77997142D01*
X73723214Y-77997142D02*
X73723214Y-77806666D01*
X73723214Y-77806666D02*
X73675595Y-77711428D01*
X73675595Y-77711428D02*
X73627976Y-77663809D01*
X73627976Y-77663809D02*
X73532738Y-77616190D01*
X207264286Y-78140000D02*
X207407143Y-78187619D01*
X207407143Y-78187619D02*
X207645238Y-78187619D01*
X207645238Y-78187619D02*
X207740476Y-78140000D01*
X207740476Y-78140000D02*
X207788095Y-78092380D01*
X207788095Y-78092380D02*
X207835714Y-77997142D01*
X207835714Y-77997142D02*
X207835714Y-77901904D01*
X207835714Y-77901904D02*
X207788095Y-77806666D01*
X207788095Y-77806666D02*
X207740476Y-77759047D01*
X207740476Y-77759047D02*
X207645238Y-77711428D01*
X207645238Y-77711428D02*
X207454762Y-77663809D01*
X207454762Y-77663809D02*
X207359524Y-77616190D01*
X207359524Y-77616190D02*
X207311905Y-77568571D01*
X207311905Y-77568571D02*
X207264286Y-77473333D01*
X207264286Y-77473333D02*
X207264286Y-77378095D01*
X207264286Y-77378095D02*
X207311905Y-77282857D01*
X207311905Y-77282857D02*
X207359524Y-77235238D01*
X207359524Y-77235238D02*
X207454762Y-77187619D01*
X207454762Y-77187619D02*
X207692857Y-77187619D01*
X207692857Y-77187619D02*
X207835714Y-77235238D01*
X208169048Y-77187619D02*
X208407143Y-78187619D01*
X208407143Y-78187619D02*
X208597619Y-77473333D01*
X208597619Y-77473333D02*
X208788095Y-78187619D01*
X208788095Y-78187619D02*
X209026191Y-77187619D01*
X209311905Y-77187619D02*
X209930952Y-77187619D01*
X209930952Y-77187619D02*
X209597619Y-77568571D01*
X209597619Y-77568571D02*
X209740476Y-77568571D01*
X209740476Y-77568571D02*
X209835714Y-77616190D01*
X209835714Y-77616190D02*
X209883333Y-77663809D01*
X209883333Y-77663809D02*
X209930952Y-77759047D01*
X209930952Y-77759047D02*
X209930952Y-77997142D01*
X209930952Y-77997142D02*
X209883333Y-78092380D01*
X209883333Y-78092380D02*
X209835714Y-78140000D01*
X209835714Y-78140000D02*
X209740476Y-78187619D01*
X209740476Y-78187619D02*
X209454762Y-78187619D01*
X209454762Y-78187619D02*
X209359524Y-78140000D01*
X209359524Y-78140000D02*
X209311905Y-78092380D01*
X210264286Y-77187619D02*
X210883333Y-77187619D01*
X210883333Y-77187619D02*
X210550000Y-77568571D01*
X210550000Y-77568571D02*
X210692857Y-77568571D01*
X210692857Y-77568571D02*
X210788095Y-77616190D01*
X210788095Y-77616190D02*
X210835714Y-77663809D01*
X210835714Y-77663809D02*
X210883333Y-77759047D01*
X210883333Y-77759047D02*
X210883333Y-77997142D01*
X210883333Y-77997142D02*
X210835714Y-78092380D01*
X210835714Y-78092380D02*
X210788095Y-78140000D01*
X210788095Y-78140000D02*
X210692857Y-78187619D01*
X210692857Y-78187619D02*
X210407143Y-78187619D01*
X210407143Y-78187619D02*
X210311905Y-78140000D01*
X210311905Y-78140000D02*
X210264286Y-78092380D01*
X211740476Y-77520952D02*
X211740476Y-78187619D01*
X211502381Y-77140000D02*
X211264286Y-77854285D01*
X211264286Y-77854285D02*
X211883333Y-77854285D01*
X271558036Y-78140000D02*
X271700893Y-78187619D01*
X271700893Y-78187619D02*
X271938988Y-78187619D01*
X271938988Y-78187619D02*
X272034226Y-78140000D01*
X272034226Y-78140000D02*
X272081845Y-78092380D01*
X272081845Y-78092380D02*
X272129464Y-77997142D01*
X272129464Y-77997142D02*
X272129464Y-77901904D01*
X272129464Y-77901904D02*
X272081845Y-77806666D01*
X272081845Y-77806666D02*
X272034226Y-77759047D01*
X272034226Y-77759047D02*
X271938988Y-77711428D01*
X271938988Y-77711428D02*
X271748512Y-77663809D01*
X271748512Y-77663809D02*
X271653274Y-77616190D01*
X271653274Y-77616190D02*
X271605655Y-77568571D01*
X271605655Y-77568571D02*
X271558036Y-77473333D01*
X271558036Y-77473333D02*
X271558036Y-77378095D01*
X271558036Y-77378095D02*
X271605655Y-77282857D01*
X271605655Y-77282857D02*
X271653274Y-77235238D01*
X271653274Y-77235238D02*
X271748512Y-77187619D01*
X271748512Y-77187619D02*
X271986607Y-77187619D01*
X271986607Y-77187619D02*
X272129464Y-77235238D01*
X272462798Y-77187619D02*
X272700893Y-78187619D01*
X272700893Y-78187619D02*
X272891369Y-77473333D01*
X272891369Y-77473333D02*
X273081845Y-78187619D01*
X273081845Y-78187619D02*
X273319941Y-77187619D01*
X273605655Y-77187619D02*
X274224702Y-77187619D01*
X274224702Y-77187619D02*
X273891369Y-77568571D01*
X273891369Y-77568571D02*
X274034226Y-77568571D01*
X274034226Y-77568571D02*
X274129464Y-77616190D01*
X274129464Y-77616190D02*
X274177083Y-77663809D01*
X274177083Y-77663809D02*
X274224702Y-77759047D01*
X274224702Y-77759047D02*
X274224702Y-77997142D01*
X274224702Y-77997142D02*
X274177083Y-78092380D01*
X274177083Y-78092380D02*
X274129464Y-78140000D01*
X274129464Y-78140000D02*
X274034226Y-78187619D01*
X274034226Y-78187619D02*
X273748512Y-78187619D01*
X273748512Y-78187619D02*
X273653274Y-78140000D01*
X273653274Y-78140000D02*
X273605655Y-78092380D01*
X275081845Y-77520952D02*
X275081845Y-78187619D01*
X274843750Y-77140000D02*
X274605655Y-77854285D01*
X274605655Y-77854285D02*
X275224702Y-77854285D01*
X276034226Y-77187619D02*
X275843750Y-77187619D01*
X275843750Y-77187619D02*
X275748512Y-77235238D01*
X275748512Y-77235238D02*
X275700893Y-77282857D01*
X275700893Y-77282857D02*
X275605655Y-77425714D01*
X275605655Y-77425714D02*
X275558036Y-77616190D01*
X275558036Y-77616190D02*
X275558036Y-77997142D01*
X275558036Y-77997142D02*
X275605655Y-78092380D01*
X275605655Y-78092380D02*
X275653274Y-78140000D01*
X275653274Y-78140000D02*
X275748512Y-78187619D01*
X275748512Y-78187619D02*
X275938988Y-78187619D01*
X275938988Y-78187619D02*
X276034226Y-78140000D01*
X276034226Y-78140000D02*
X276081845Y-78092380D01*
X276081845Y-78092380D02*
X276129464Y-77997142D01*
X276129464Y-77997142D02*
X276129464Y-77759047D01*
X276129464Y-77759047D02*
X276081845Y-77663809D01*
X276081845Y-77663809D02*
X276034226Y-77616190D01*
X276034226Y-77616190D02*
X275938988Y-77568571D01*
X275938988Y-77568571D02*
X275748512Y-77568571D01*
X275748512Y-77568571D02*
X275653274Y-77616190D01*
X275653274Y-77616190D02*
X275605655Y-77663809D01*
X275605655Y-77663809D02*
X275558036Y-77759047D01*
X104870536Y-20990000D02*
X105013393Y-21037619D01*
X105013393Y-21037619D02*
X105251488Y-21037619D01*
X105251488Y-21037619D02*
X105346726Y-20990000D01*
X105346726Y-20990000D02*
X105394345Y-20942380D01*
X105394345Y-20942380D02*
X105441964Y-20847142D01*
X105441964Y-20847142D02*
X105441964Y-20751904D01*
X105441964Y-20751904D02*
X105394345Y-20656666D01*
X105394345Y-20656666D02*
X105346726Y-20609047D01*
X105346726Y-20609047D02*
X105251488Y-20561428D01*
X105251488Y-20561428D02*
X105061012Y-20513809D01*
X105061012Y-20513809D02*
X104965774Y-20466190D01*
X104965774Y-20466190D02*
X104918155Y-20418571D01*
X104918155Y-20418571D02*
X104870536Y-20323333D01*
X104870536Y-20323333D02*
X104870536Y-20228095D01*
X104870536Y-20228095D02*
X104918155Y-20132857D01*
X104918155Y-20132857D02*
X104965774Y-20085238D01*
X104965774Y-20085238D02*
X105061012Y-20037619D01*
X105061012Y-20037619D02*
X105299107Y-20037619D01*
X105299107Y-20037619D02*
X105441964Y-20085238D01*
X105775298Y-20037619D02*
X106013393Y-21037619D01*
X106013393Y-21037619D02*
X106203869Y-20323333D01*
X106203869Y-20323333D02*
X106394345Y-21037619D01*
X106394345Y-21037619D02*
X106632441Y-20037619D01*
X106918155Y-20037619D02*
X107537202Y-20037619D01*
X107537202Y-20037619D02*
X107203869Y-20418571D01*
X107203869Y-20418571D02*
X107346726Y-20418571D01*
X107346726Y-20418571D02*
X107441964Y-20466190D01*
X107441964Y-20466190D02*
X107489583Y-20513809D01*
X107489583Y-20513809D02*
X107537202Y-20609047D01*
X107537202Y-20609047D02*
X107537202Y-20847142D01*
X107537202Y-20847142D02*
X107489583Y-20942380D01*
X107489583Y-20942380D02*
X107441964Y-20990000D01*
X107441964Y-20990000D02*
X107346726Y-21037619D01*
X107346726Y-21037619D02*
X107061012Y-21037619D01*
X107061012Y-21037619D02*
X106965774Y-20990000D01*
X106965774Y-20990000D02*
X106918155Y-20942380D01*
X108489583Y-21037619D02*
X107918155Y-21037619D01*
X108203869Y-21037619D02*
X108203869Y-20037619D01*
X108203869Y-20037619D02*
X108108631Y-20180476D01*
X108108631Y-20180476D02*
X108013393Y-20275714D01*
X108013393Y-20275714D02*
X107918155Y-20323333D01*
X109346726Y-20037619D02*
X109156250Y-20037619D01*
X109156250Y-20037619D02*
X109061012Y-20085238D01*
X109061012Y-20085238D02*
X109013393Y-20132857D01*
X109013393Y-20132857D02*
X108918155Y-20275714D01*
X108918155Y-20275714D02*
X108870536Y-20466190D01*
X108870536Y-20466190D02*
X108870536Y-20847142D01*
X108870536Y-20847142D02*
X108918155Y-20942380D01*
X108918155Y-20942380D02*
X108965774Y-20990000D01*
X108965774Y-20990000D02*
X109061012Y-21037619D01*
X109061012Y-21037619D02*
X109251488Y-21037619D01*
X109251488Y-21037619D02*
X109346726Y-20990000D01*
X109346726Y-20990000D02*
X109394345Y-20942380D01*
X109394345Y-20942380D02*
X109441964Y-20847142D01*
X109441964Y-20847142D02*
X109441964Y-20609047D01*
X109441964Y-20609047D02*
X109394345Y-20513809D01*
X109394345Y-20513809D02*
X109346726Y-20466190D01*
X109346726Y-20466190D02*
X109251488Y-20418571D01*
X109251488Y-20418571D02*
X109061012Y-20418571D01*
X109061012Y-20418571D02*
X108965774Y-20466190D01*
X108965774Y-20466190D02*
X108918155Y-20513809D01*
X108918155Y-20513809D02*
X108870536Y-20609047D01*
X260447619Y-56443285D02*
X260447619Y-55871857D01*
X261447619Y-56157571D02*
X260447619Y-56157571D01*
X261447619Y-55538523D02*
X260447619Y-55538523D01*
X260447619Y-55538523D02*
X260447619Y-55157571D01*
X260447619Y-55157571D02*
X260495238Y-55062333D01*
X260495238Y-55062333D02*
X260542857Y-55014714D01*
X260542857Y-55014714D02*
X260638095Y-54967095D01*
X260638095Y-54967095D02*
X260780952Y-54967095D01*
X260780952Y-54967095D02*
X260876190Y-55014714D01*
X260876190Y-55014714D02*
X260923809Y-55062333D01*
X260923809Y-55062333D02*
X260971428Y-55157571D01*
X260971428Y-55157571D02*
X260971428Y-55538523D01*
X261447619Y-54014714D02*
X261447619Y-54586142D01*
X261447619Y-54300428D02*
X260447619Y-54300428D01*
X260447619Y-54300428D02*
X260590476Y-54395666D01*
X260590476Y-54395666D02*
X260685714Y-54490904D01*
X260685714Y-54490904D02*
X260733333Y-54586142D01*
X260447619Y-53395666D02*
X260447619Y-53300428D01*
X260447619Y-53300428D02*
X260495238Y-53205190D01*
X260495238Y-53205190D02*
X260542857Y-53157571D01*
X260542857Y-53157571D02*
X260638095Y-53109952D01*
X260638095Y-53109952D02*
X260828571Y-53062333D01*
X260828571Y-53062333D02*
X261066666Y-53062333D01*
X261066666Y-53062333D02*
X261257142Y-53109952D01*
X261257142Y-53109952D02*
X261352380Y-53157571D01*
X261352380Y-53157571D02*
X261400000Y-53205190D01*
X261400000Y-53205190D02*
X261447619Y-53300428D01*
X261447619Y-53300428D02*
X261447619Y-53395666D01*
X261447619Y-53395666D02*
X261400000Y-53490904D01*
X261400000Y-53490904D02*
X261352380Y-53538523D01*
X261352380Y-53538523D02*
X261257142Y-53586142D01*
X261257142Y-53586142D02*
X261066666Y-53633761D01*
X261066666Y-53633761D02*
X260828571Y-53633761D01*
X260828571Y-53633761D02*
X260638095Y-53586142D01*
X260638095Y-53586142D02*
X260542857Y-53538523D01*
X260542857Y-53538523D02*
X260495238Y-53490904D01*
X260495238Y-53490904D02*
X260447619Y-53395666D01*
X260447619Y-52157571D02*
X260447619Y-52633761D01*
X260447619Y-52633761D02*
X260923809Y-52681380D01*
X260923809Y-52681380D02*
X260876190Y-52633761D01*
X260876190Y-52633761D02*
X260828571Y-52538523D01*
X260828571Y-52538523D02*
X260828571Y-52300428D01*
X260828571Y-52300428D02*
X260876190Y-52205190D01*
X260876190Y-52205190D02*
X260923809Y-52157571D01*
X260923809Y-52157571D02*
X261019047Y-52109952D01*
X261019047Y-52109952D02*
X261257142Y-52109952D01*
X261257142Y-52109952D02*
X261352380Y-52157571D01*
X261352380Y-52157571D02*
X261400000Y-52205190D01*
X261400000Y-52205190D02*
X261447619Y-52300428D01*
X261447619Y-52300428D02*
X261447619Y-52538523D01*
X261447619Y-52538523D02*
X261400000Y-52633761D01*
X261400000Y-52633761D02*
X261352380Y-52681380D01*
X278050666Y-21814809D02*
X277717333Y-21814809D01*
X277717333Y-22338619D02*
X277717333Y-21338619D01*
X277717333Y-21338619D02*
X278193523Y-21338619D01*
X278479238Y-21338619D02*
X279098285Y-21338619D01*
X279098285Y-21338619D02*
X278764952Y-21719571D01*
X278764952Y-21719571D02*
X278907809Y-21719571D01*
X278907809Y-21719571D02*
X279003047Y-21767190D01*
X279003047Y-21767190D02*
X279050666Y-21814809D01*
X279050666Y-21814809D02*
X279098285Y-21910047D01*
X279098285Y-21910047D02*
X279098285Y-22148142D01*
X279098285Y-22148142D02*
X279050666Y-22243380D01*
X279050666Y-22243380D02*
X279003047Y-22291000D01*
X279003047Y-22291000D02*
X278907809Y-22338619D01*
X278907809Y-22338619D02*
X278622095Y-22338619D01*
X278622095Y-22338619D02*
X278526857Y-22291000D01*
X278526857Y-22291000D02*
X278479238Y-22243380D01*
X263622619Y-47934285D02*
X263622619Y-47362857D01*
X264622619Y-47648571D02*
X263622619Y-47648571D01*
X264622619Y-47029523D02*
X263622619Y-47029523D01*
X263622619Y-47029523D02*
X263622619Y-46648571D01*
X263622619Y-46648571D02*
X263670238Y-46553333D01*
X263670238Y-46553333D02*
X263717857Y-46505714D01*
X263717857Y-46505714D02*
X263813095Y-46458095D01*
X263813095Y-46458095D02*
X263955952Y-46458095D01*
X263955952Y-46458095D02*
X264051190Y-46505714D01*
X264051190Y-46505714D02*
X264098809Y-46553333D01*
X264098809Y-46553333D02*
X264146428Y-46648571D01*
X264146428Y-46648571D02*
X264146428Y-47029523D01*
X264622619Y-45505714D02*
X264622619Y-46077142D01*
X264622619Y-45791428D02*
X263622619Y-45791428D01*
X263622619Y-45791428D02*
X263765476Y-45886666D01*
X263765476Y-45886666D02*
X263860714Y-45981904D01*
X263860714Y-45981904D02*
X263908333Y-46077142D01*
X263622619Y-44886666D02*
X263622619Y-44791428D01*
X263622619Y-44791428D02*
X263670238Y-44696190D01*
X263670238Y-44696190D02*
X263717857Y-44648571D01*
X263717857Y-44648571D02*
X263813095Y-44600952D01*
X263813095Y-44600952D02*
X264003571Y-44553333D01*
X264003571Y-44553333D02*
X264241666Y-44553333D01*
X264241666Y-44553333D02*
X264432142Y-44600952D01*
X264432142Y-44600952D02*
X264527380Y-44648571D01*
X264527380Y-44648571D02*
X264575000Y-44696190D01*
X264575000Y-44696190D02*
X264622619Y-44791428D01*
X264622619Y-44791428D02*
X264622619Y-44886666D01*
X264622619Y-44886666D02*
X264575000Y-44981904D01*
X264575000Y-44981904D02*
X264527380Y-45029523D01*
X264527380Y-45029523D02*
X264432142Y-45077142D01*
X264432142Y-45077142D02*
X264241666Y-45124761D01*
X264241666Y-45124761D02*
X264003571Y-45124761D01*
X264003571Y-45124761D02*
X263813095Y-45077142D01*
X263813095Y-45077142D02*
X263717857Y-45029523D01*
X263717857Y-45029523D02*
X263670238Y-44981904D01*
X263670238Y-44981904D02*
X263622619Y-44886666D01*
X264622619Y-43600952D02*
X264622619Y-44172380D01*
X264622619Y-43886666D02*
X263622619Y-43886666D01*
X263622619Y-43886666D02*
X263765476Y-43981904D01*
X263765476Y-43981904D02*
X263860714Y-44077142D01*
X263860714Y-44077142D02*
X263908333Y-44172380D01*
X223933036Y-40040000D02*
X224075893Y-40087619D01*
X224075893Y-40087619D02*
X224313988Y-40087619D01*
X224313988Y-40087619D02*
X224409226Y-40040000D01*
X224409226Y-40040000D02*
X224456845Y-39992380D01*
X224456845Y-39992380D02*
X224504464Y-39897142D01*
X224504464Y-39897142D02*
X224504464Y-39801904D01*
X224504464Y-39801904D02*
X224456845Y-39706666D01*
X224456845Y-39706666D02*
X224409226Y-39659047D01*
X224409226Y-39659047D02*
X224313988Y-39611428D01*
X224313988Y-39611428D02*
X224123512Y-39563809D01*
X224123512Y-39563809D02*
X224028274Y-39516190D01*
X224028274Y-39516190D02*
X223980655Y-39468571D01*
X223980655Y-39468571D02*
X223933036Y-39373333D01*
X223933036Y-39373333D02*
X223933036Y-39278095D01*
X223933036Y-39278095D02*
X223980655Y-39182857D01*
X223980655Y-39182857D02*
X224028274Y-39135238D01*
X224028274Y-39135238D02*
X224123512Y-39087619D01*
X224123512Y-39087619D02*
X224361607Y-39087619D01*
X224361607Y-39087619D02*
X224504464Y-39135238D01*
X224837798Y-39087619D02*
X225075893Y-40087619D01*
X225075893Y-40087619D02*
X225266369Y-39373333D01*
X225266369Y-39373333D02*
X225456845Y-40087619D01*
X225456845Y-40087619D02*
X225694941Y-39087619D01*
X225980655Y-39087619D02*
X226599702Y-39087619D01*
X226599702Y-39087619D02*
X226266369Y-39468571D01*
X226266369Y-39468571D02*
X226409226Y-39468571D01*
X226409226Y-39468571D02*
X226504464Y-39516190D01*
X226504464Y-39516190D02*
X226552083Y-39563809D01*
X226552083Y-39563809D02*
X226599702Y-39659047D01*
X226599702Y-39659047D02*
X226599702Y-39897142D01*
X226599702Y-39897142D02*
X226552083Y-39992380D01*
X226552083Y-39992380D02*
X226504464Y-40040000D01*
X226504464Y-40040000D02*
X226409226Y-40087619D01*
X226409226Y-40087619D02*
X226123512Y-40087619D01*
X226123512Y-40087619D02*
X226028274Y-40040000D01*
X226028274Y-40040000D02*
X225980655Y-39992380D01*
X227456845Y-39420952D02*
X227456845Y-40087619D01*
X227218750Y-39040000D02*
X226980655Y-39754285D01*
X226980655Y-39754285D02*
X227599702Y-39754285D01*
X228171131Y-39087619D02*
X228266369Y-39087619D01*
X228266369Y-39087619D02*
X228361607Y-39135238D01*
X228361607Y-39135238D02*
X228409226Y-39182857D01*
X228409226Y-39182857D02*
X228456845Y-39278095D01*
X228456845Y-39278095D02*
X228504464Y-39468571D01*
X228504464Y-39468571D02*
X228504464Y-39706666D01*
X228504464Y-39706666D02*
X228456845Y-39897142D01*
X228456845Y-39897142D02*
X228409226Y-39992380D01*
X228409226Y-39992380D02*
X228361607Y-40040000D01*
X228361607Y-40040000D02*
X228266369Y-40087619D01*
X228266369Y-40087619D02*
X228171131Y-40087619D01*
X228171131Y-40087619D02*
X228075893Y-40040000D01*
X228075893Y-40040000D02*
X228028274Y-39992380D01*
X228028274Y-39992380D02*
X227980655Y-39897142D01*
X227980655Y-39897142D02*
X227933036Y-39706666D01*
X227933036Y-39706666D02*
X227933036Y-39468571D01*
X227933036Y-39468571D02*
X227980655Y-39278095D01*
X227980655Y-39278095D02*
X228028274Y-39182857D01*
X228028274Y-39182857D02*
X228075893Y-39135238D01*
X228075893Y-39135238D02*
X228171131Y-39087619D01*
X71533036Y-40040000D02*
X71675893Y-40087619D01*
X71675893Y-40087619D02*
X71913988Y-40087619D01*
X71913988Y-40087619D02*
X72009226Y-40040000D01*
X72009226Y-40040000D02*
X72056845Y-39992380D01*
X72056845Y-39992380D02*
X72104464Y-39897142D01*
X72104464Y-39897142D02*
X72104464Y-39801904D01*
X72104464Y-39801904D02*
X72056845Y-39706666D01*
X72056845Y-39706666D02*
X72009226Y-39659047D01*
X72009226Y-39659047D02*
X71913988Y-39611428D01*
X71913988Y-39611428D02*
X71723512Y-39563809D01*
X71723512Y-39563809D02*
X71628274Y-39516190D01*
X71628274Y-39516190D02*
X71580655Y-39468571D01*
X71580655Y-39468571D02*
X71533036Y-39373333D01*
X71533036Y-39373333D02*
X71533036Y-39278095D01*
X71533036Y-39278095D02*
X71580655Y-39182857D01*
X71580655Y-39182857D02*
X71628274Y-39135238D01*
X71628274Y-39135238D02*
X71723512Y-39087619D01*
X71723512Y-39087619D02*
X71961607Y-39087619D01*
X71961607Y-39087619D02*
X72104464Y-39135238D01*
X72437798Y-39087619D02*
X72675893Y-40087619D01*
X72675893Y-40087619D02*
X72866369Y-39373333D01*
X72866369Y-39373333D02*
X73056845Y-40087619D01*
X73056845Y-40087619D02*
X73294941Y-39087619D01*
X73580655Y-39087619D02*
X74199702Y-39087619D01*
X74199702Y-39087619D02*
X73866369Y-39468571D01*
X73866369Y-39468571D02*
X74009226Y-39468571D01*
X74009226Y-39468571D02*
X74104464Y-39516190D01*
X74104464Y-39516190D02*
X74152083Y-39563809D01*
X74152083Y-39563809D02*
X74199702Y-39659047D01*
X74199702Y-39659047D02*
X74199702Y-39897142D01*
X74199702Y-39897142D02*
X74152083Y-39992380D01*
X74152083Y-39992380D02*
X74104464Y-40040000D01*
X74104464Y-40040000D02*
X74009226Y-40087619D01*
X74009226Y-40087619D02*
X73723512Y-40087619D01*
X73723512Y-40087619D02*
X73628274Y-40040000D01*
X73628274Y-40040000D02*
X73580655Y-39992380D01*
X75152083Y-40087619D02*
X74580655Y-40087619D01*
X74866369Y-40087619D02*
X74866369Y-39087619D01*
X74866369Y-39087619D02*
X74771131Y-39230476D01*
X74771131Y-39230476D02*
X74675893Y-39325714D01*
X74675893Y-39325714D02*
X74580655Y-39373333D01*
X75771131Y-39087619D02*
X75866369Y-39087619D01*
X75866369Y-39087619D02*
X75961607Y-39135238D01*
X75961607Y-39135238D02*
X76009226Y-39182857D01*
X76009226Y-39182857D02*
X76056845Y-39278095D01*
X76056845Y-39278095D02*
X76104464Y-39468571D01*
X76104464Y-39468571D02*
X76104464Y-39706666D01*
X76104464Y-39706666D02*
X76056845Y-39897142D01*
X76056845Y-39897142D02*
X76009226Y-39992380D01*
X76009226Y-39992380D02*
X75961607Y-40040000D01*
X75961607Y-40040000D02*
X75866369Y-40087619D01*
X75866369Y-40087619D02*
X75771131Y-40087619D01*
X75771131Y-40087619D02*
X75675893Y-40040000D01*
X75675893Y-40040000D02*
X75628274Y-39992380D01*
X75628274Y-39992380D02*
X75580655Y-39897142D01*
X75580655Y-39897142D02*
X75533036Y-39706666D01*
X75533036Y-39706666D02*
X75533036Y-39468571D01*
X75533036Y-39468571D02*
X75580655Y-39278095D01*
X75580655Y-39278095D02*
X75628274Y-39182857D01*
X75628274Y-39182857D02*
X75675893Y-39135238D01*
X75675893Y-39135238D02*
X75771131Y-39087619D01*
X66770536Y-20990000D02*
X66913393Y-21037619D01*
X66913393Y-21037619D02*
X67151488Y-21037619D01*
X67151488Y-21037619D02*
X67246726Y-20990000D01*
X67246726Y-20990000D02*
X67294345Y-20942380D01*
X67294345Y-20942380D02*
X67341964Y-20847142D01*
X67341964Y-20847142D02*
X67341964Y-20751904D01*
X67341964Y-20751904D02*
X67294345Y-20656666D01*
X67294345Y-20656666D02*
X67246726Y-20609047D01*
X67246726Y-20609047D02*
X67151488Y-20561428D01*
X67151488Y-20561428D02*
X66961012Y-20513809D01*
X66961012Y-20513809D02*
X66865774Y-20466190D01*
X66865774Y-20466190D02*
X66818155Y-20418571D01*
X66818155Y-20418571D02*
X66770536Y-20323333D01*
X66770536Y-20323333D02*
X66770536Y-20228095D01*
X66770536Y-20228095D02*
X66818155Y-20132857D01*
X66818155Y-20132857D02*
X66865774Y-20085238D01*
X66865774Y-20085238D02*
X66961012Y-20037619D01*
X66961012Y-20037619D02*
X67199107Y-20037619D01*
X67199107Y-20037619D02*
X67341964Y-20085238D01*
X67675298Y-20037619D02*
X67913393Y-21037619D01*
X67913393Y-21037619D02*
X68103869Y-20323333D01*
X68103869Y-20323333D02*
X68294345Y-21037619D01*
X68294345Y-21037619D02*
X68532441Y-20037619D01*
X68818155Y-20037619D02*
X69437202Y-20037619D01*
X69437202Y-20037619D02*
X69103869Y-20418571D01*
X69103869Y-20418571D02*
X69246726Y-20418571D01*
X69246726Y-20418571D02*
X69341964Y-20466190D01*
X69341964Y-20466190D02*
X69389583Y-20513809D01*
X69389583Y-20513809D02*
X69437202Y-20609047D01*
X69437202Y-20609047D02*
X69437202Y-20847142D01*
X69437202Y-20847142D02*
X69389583Y-20942380D01*
X69389583Y-20942380D02*
X69341964Y-20990000D01*
X69341964Y-20990000D02*
X69246726Y-21037619D01*
X69246726Y-21037619D02*
X68961012Y-21037619D01*
X68961012Y-21037619D02*
X68865774Y-20990000D01*
X68865774Y-20990000D02*
X68818155Y-20942380D01*
X70056250Y-20037619D02*
X70151488Y-20037619D01*
X70151488Y-20037619D02*
X70246726Y-20085238D01*
X70246726Y-20085238D02*
X70294345Y-20132857D01*
X70294345Y-20132857D02*
X70341964Y-20228095D01*
X70341964Y-20228095D02*
X70389583Y-20418571D01*
X70389583Y-20418571D02*
X70389583Y-20656666D01*
X70389583Y-20656666D02*
X70341964Y-20847142D01*
X70341964Y-20847142D02*
X70294345Y-20942380D01*
X70294345Y-20942380D02*
X70246726Y-20990000D01*
X70246726Y-20990000D02*
X70151488Y-21037619D01*
X70151488Y-21037619D02*
X70056250Y-21037619D01*
X70056250Y-21037619D02*
X69961012Y-20990000D01*
X69961012Y-20990000D02*
X69913393Y-20942380D01*
X69913393Y-20942380D02*
X69865774Y-20847142D01*
X69865774Y-20847142D02*
X69818155Y-20656666D01*
X69818155Y-20656666D02*
X69818155Y-20418571D01*
X69818155Y-20418571D02*
X69865774Y-20228095D01*
X69865774Y-20228095D02*
X69913393Y-20132857D01*
X69913393Y-20132857D02*
X69961012Y-20085238D01*
X69961012Y-20085238D02*
X70056250Y-20037619D01*
X70865774Y-21037619D02*
X71056250Y-21037619D01*
X71056250Y-21037619D02*
X71151488Y-20990000D01*
X71151488Y-20990000D02*
X71199107Y-20942380D01*
X71199107Y-20942380D02*
X71294345Y-20799523D01*
X71294345Y-20799523D02*
X71341964Y-20609047D01*
X71341964Y-20609047D02*
X71341964Y-20228095D01*
X71341964Y-20228095D02*
X71294345Y-20132857D01*
X71294345Y-20132857D02*
X71246726Y-20085238D01*
X71246726Y-20085238D02*
X71151488Y-20037619D01*
X71151488Y-20037619D02*
X70961012Y-20037619D01*
X70961012Y-20037619D02*
X70865774Y-20085238D01*
X70865774Y-20085238D02*
X70818155Y-20132857D01*
X70818155Y-20132857D02*
X70770536Y-20228095D01*
X70770536Y-20228095D02*
X70770536Y-20466190D01*
X70770536Y-20466190D02*
X70818155Y-20561428D01*
X70818155Y-20561428D02*
X70865774Y-20609047D01*
X70865774Y-20609047D02*
X70961012Y-20656666D01*
X70961012Y-20656666D02*
X71151488Y-20656666D01*
X71151488Y-20656666D02*
X71246726Y-20609047D01*
X71246726Y-20609047D02*
X71294345Y-20561428D01*
X71294345Y-20561428D02*
X71341964Y-20466190D01*
X276576619Y-34726285D02*
X276576619Y-34154857D01*
X277576619Y-34440571D02*
X276576619Y-34440571D01*
X277576619Y-33821523D02*
X276576619Y-33821523D01*
X276576619Y-33821523D02*
X276576619Y-33440571D01*
X276576619Y-33440571D02*
X276624238Y-33345333D01*
X276624238Y-33345333D02*
X276671857Y-33297714D01*
X276671857Y-33297714D02*
X276767095Y-33250095D01*
X276767095Y-33250095D02*
X276909952Y-33250095D01*
X276909952Y-33250095D02*
X277005190Y-33297714D01*
X277005190Y-33297714D02*
X277052809Y-33345333D01*
X277052809Y-33345333D02*
X277100428Y-33440571D01*
X277100428Y-33440571D02*
X277100428Y-33821523D01*
X277576619Y-32297714D02*
X277576619Y-32869142D01*
X277576619Y-32583428D02*
X276576619Y-32583428D01*
X276576619Y-32583428D02*
X276719476Y-32678666D01*
X276719476Y-32678666D02*
X276814714Y-32773904D01*
X276814714Y-32773904D02*
X276862333Y-32869142D01*
X276576619Y-31678666D02*
X276576619Y-31583428D01*
X276576619Y-31583428D02*
X276624238Y-31488190D01*
X276624238Y-31488190D02*
X276671857Y-31440571D01*
X276671857Y-31440571D02*
X276767095Y-31392952D01*
X276767095Y-31392952D02*
X276957571Y-31345333D01*
X276957571Y-31345333D02*
X277195666Y-31345333D01*
X277195666Y-31345333D02*
X277386142Y-31392952D01*
X277386142Y-31392952D02*
X277481380Y-31440571D01*
X277481380Y-31440571D02*
X277529000Y-31488190D01*
X277529000Y-31488190D02*
X277576619Y-31583428D01*
X277576619Y-31583428D02*
X277576619Y-31678666D01*
X277576619Y-31678666D02*
X277529000Y-31773904D01*
X277529000Y-31773904D02*
X277481380Y-31821523D01*
X277481380Y-31821523D02*
X277386142Y-31869142D01*
X277386142Y-31869142D02*
X277195666Y-31916761D01*
X277195666Y-31916761D02*
X276957571Y-31916761D01*
X276957571Y-31916761D02*
X276767095Y-31869142D01*
X276767095Y-31869142D02*
X276671857Y-31821523D01*
X276671857Y-31821523D02*
X276624238Y-31773904D01*
X276624238Y-31773904D02*
X276576619Y-31678666D01*
X277005190Y-30773904D02*
X276957571Y-30869142D01*
X276957571Y-30869142D02*
X276909952Y-30916761D01*
X276909952Y-30916761D02*
X276814714Y-30964380D01*
X276814714Y-30964380D02*
X276767095Y-30964380D01*
X276767095Y-30964380D02*
X276671857Y-30916761D01*
X276671857Y-30916761D02*
X276624238Y-30869142D01*
X276624238Y-30869142D02*
X276576619Y-30773904D01*
X276576619Y-30773904D02*
X276576619Y-30583428D01*
X276576619Y-30583428D02*
X276624238Y-30488190D01*
X276624238Y-30488190D02*
X276671857Y-30440571D01*
X276671857Y-30440571D02*
X276767095Y-30392952D01*
X276767095Y-30392952D02*
X276814714Y-30392952D01*
X276814714Y-30392952D02*
X276909952Y-30440571D01*
X276909952Y-30440571D02*
X276957571Y-30488190D01*
X276957571Y-30488190D02*
X277005190Y-30583428D01*
X277005190Y-30583428D02*
X277005190Y-30773904D01*
X277005190Y-30773904D02*
X277052809Y-30869142D01*
X277052809Y-30869142D02*
X277100428Y-30916761D01*
X277100428Y-30916761D02*
X277195666Y-30964380D01*
X277195666Y-30964380D02*
X277386142Y-30964380D01*
X277386142Y-30964380D02*
X277481380Y-30916761D01*
X277481380Y-30916761D02*
X277529000Y-30869142D01*
X277529000Y-30869142D02*
X277576619Y-30773904D01*
X277576619Y-30773904D02*
X277576619Y-30583428D01*
X277576619Y-30583428D02*
X277529000Y-30488190D01*
X277529000Y-30488190D02*
X277481380Y-30440571D01*
X277481380Y-30440571D02*
X277386142Y-30392952D01*
X277386142Y-30392952D02*
X277195666Y-30392952D01*
X277195666Y-30392952D02*
X277100428Y-30440571D01*
X277100428Y-30440571D02*
X277052809Y-30488190D01*
X277052809Y-30488190D02*
X277005190Y-30583428D01*
D11*
X228643750Y-78625000D02*
X228643750Y-92825000D01*
X228643750Y-92825000D02*
X242843750Y-92825000D01*
X242843750Y-78625000D02*
X228643750Y-78625000D01*
X242843750Y-92825000D02*
X242843750Y-78625000D01*
X42906250Y-21475000D02*
X42906250Y-35675000D01*
X42906250Y-35675000D02*
X57106250Y-35675000D01*
X57106250Y-21475000D02*
X42906250Y-21475000D01*
X57106250Y-35675000D02*
X57106250Y-21475000D01*
X228643750Y-59575000D02*
X228643750Y-73775000D01*
X228643750Y-73775000D02*
X242843750Y-73775000D01*
X242843750Y-59575000D02*
X228643750Y-59575000D01*
X242843750Y-73775000D02*
X242843750Y-59575000D01*
X40525000Y-78625000D02*
X40525000Y-92825000D01*
X40525000Y-92825000D02*
X54725000Y-92825000D01*
X54725000Y-78625000D02*
X40525000Y-78625000D01*
X54725000Y-92825000D02*
X54725000Y-78625000D01*
X263844000Y-50927000D02*
G75*
G03*
X263844000Y-50927000I-700000J0D01*
G01*
X76243750Y-59575000D02*
X76243750Y-73775000D01*
X76243750Y-73775000D02*
X90443750Y-73775000D01*
X90443750Y-59575000D02*
X76243750Y-59575000D01*
X90443750Y-73775000D02*
X90443750Y-59575000D01*
X157206250Y-21475000D02*
X157206250Y-35675000D01*
X157206250Y-35675000D02*
X171406250Y-35675000D01*
X171406250Y-21475000D02*
X157206250Y-21475000D01*
X171406250Y-35675000D02*
X171406250Y-21475000D01*
X152443750Y-59575000D02*
X152443750Y-73775000D01*
X152443750Y-73775000D02*
X166643750Y-73775000D01*
X166643750Y-59575000D02*
X152443750Y-59575000D01*
X166643750Y-73775000D02*
X166643750Y-59575000D01*
X259653000Y-33147000D02*
G75*
G03*
X259653000Y-33147000I-700000J0D01*
G01*
X181018750Y-40525000D02*
X181018750Y-54725000D01*
X181018750Y-54725000D02*
X195218750Y-54725000D01*
X195218750Y-40525000D02*
X181018750Y-40525000D01*
X195218750Y-54725000D02*
X195218750Y-40525000D01*
X161968750Y-40525000D02*
X161968750Y-54725000D01*
X161968750Y-54725000D02*
X176168750Y-54725000D01*
X176168750Y-40525000D02*
X161968750Y-40525000D01*
X176168750Y-54725000D02*
X176168750Y-40525000D01*
X119106250Y-21475000D02*
X119106250Y-35675000D01*
X119106250Y-35675000D02*
X133306250Y-35675000D01*
X133306250Y-21475000D02*
X119106250Y-21475000D01*
X133306250Y-35675000D02*
X133306250Y-21475000D01*
X47668750Y-40525000D02*
X47668750Y-54725000D01*
X47668750Y-54725000D02*
X61868750Y-54725000D01*
X61868750Y-40525000D02*
X47668750Y-40525000D01*
X61868750Y-54725000D02*
X61868750Y-40525000D01*
X235787500Y-21475000D02*
X235787500Y-35675000D01*
X235787500Y-35675000D02*
X249987500Y-35675000D01*
X249987500Y-21475000D02*
X235787500Y-21475000D01*
X249987500Y-35675000D02*
X249987500Y-21475000D01*
X240550000Y-40525000D02*
X240550000Y-54725000D01*
X240550000Y-54725000D02*
X254750000Y-54725000D01*
X254750000Y-40525000D02*
X240550000Y-40525000D01*
X254750000Y-54725000D02*
X254750000Y-40525000D01*
X181018750Y-78625000D02*
X181018750Y-92825000D01*
X181018750Y-92825000D02*
X195218750Y-92825000D01*
X195218750Y-78625000D02*
X181018750Y-78625000D01*
X195218750Y-92825000D02*
X195218750Y-78625000D01*
X152443750Y-78625000D02*
X152443750Y-92825000D01*
X152443750Y-92825000D02*
X166643750Y-92825000D01*
X166643750Y-78625000D02*
X152443750Y-78625000D01*
X166643750Y-92825000D02*
X166643750Y-78625000D01*
X209593750Y-59575000D02*
X209593750Y-73775000D01*
X209593750Y-73775000D02*
X223793750Y-73775000D01*
X223793750Y-59575000D02*
X209593750Y-59575000D01*
X223793750Y-73775000D02*
X223793750Y-59575000D01*
X275655000Y-28956000D02*
G75*
G03*
X275655000Y-28956000I-700000J0D01*
G01*
X85768750Y-40525000D02*
X85768750Y-54725000D01*
X85768750Y-54725000D02*
X99968750Y-54725000D01*
X99968750Y-40525000D02*
X85768750Y-40525000D01*
X99968750Y-54725000D02*
X99968750Y-40525000D01*
X171493750Y-59575000D02*
X171493750Y-73775000D01*
X171493750Y-73775000D02*
X185693750Y-73775000D01*
X185693750Y-59575000D02*
X171493750Y-59575000D01*
X185693750Y-73775000D02*
X185693750Y-59575000D01*
X57193750Y-59575000D02*
X57193750Y-73775000D01*
X57193750Y-73775000D02*
X71393750Y-73775000D01*
X71393750Y-59575000D02*
X57193750Y-59575000D01*
X71393750Y-73775000D02*
X71393750Y-59575000D01*
X259653000Y-29083000D02*
G75*
G03*
X259653000Y-29083000I-700000J0D01*
G01*
X133393750Y-59575000D02*
X133393750Y-73775000D01*
X133393750Y-73775000D02*
X147593750Y-73775000D01*
X147593750Y-59575000D02*
X133393750Y-59575000D01*
X147593750Y-73775000D02*
X147593750Y-59575000D01*
X247693750Y-78625000D02*
X247693750Y-92825000D01*
X247693750Y-92825000D02*
X261893750Y-92825000D01*
X261893750Y-78625000D02*
X247693750Y-78625000D01*
X261893750Y-92825000D02*
X261893750Y-78625000D01*
X262828000Y-49149000D02*
G75*
G03*
X262828000Y-49149000I-700000J0D01*
G01*
X214356250Y-21475000D02*
X214356250Y-35675000D01*
X214356250Y-35675000D02*
X228556250Y-35675000D01*
X228556250Y-21475000D02*
X214356250Y-21475000D01*
X228556250Y-35675000D02*
X228556250Y-21475000D01*
X176256250Y-21475000D02*
X176256250Y-35675000D01*
X176256250Y-35675000D02*
X190456250Y-35675000D01*
X190456250Y-21475000D02*
X176256250Y-21475000D01*
X190456250Y-35675000D02*
X190456250Y-21475000D01*
X247693750Y-59575000D02*
X247693750Y-73775000D01*
X247693750Y-73775000D02*
X261893750Y-73775000D01*
X261893750Y-59575000D02*
X247693750Y-59575000D01*
X261893750Y-73775000D02*
X261893750Y-59575000D01*
X81006250Y-21475000D02*
X81006250Y-35675000D01*
X81006250Y-35675000D02*
X95206250Y-35675000D01*
X95206250Y-21475000D02*
X81006250Y-21475000D01*
X95206250Y-35675000D02*
X95206250Y-21475000D01*
X85768750Y-78625000D02*
X85768750Y-92825000D01*
X85768750Y-92825000D02*
X99968750Y-92825000D01*
X99968750Y-78625000D02*
X85768750Y-78625000D01*
X99968750Y-92825000D02*
X99968750Y-78625000D01*
X200068750Y-40525000D02*
X200068750Y-54725000D01*
X200068750Y-54725000D02*
X214268750Y-54725000D01*
X214268750Y-40525000D02*
X200068750Y-40525000D01*
X214268750Y-54725000D02*
X214268750Y-40525000D01*
X95293750Y-59575000D02*
X95293750Y-73775000D01*
X95293750Y-73775000D02*
X109493750Y-73775000D01*
X109493750Y-59575000D02*
X95293750Y-59575000D01*
X109493750Y-73775000D02*
X109493750Y-59575000D01*
X138156250Y-21475000D02*
X138156250Y-35675000D01*
X138156250Y-35675000D02*
X152356250Y-35675000D01*
X152356250Y-21475000D02*
X138156250Y-21475000D01*
X152356250Y-35675000D02*
X152356250Y-21475000D01*
X123868750Y-40525000D02*
X123868750Y-54725000D01*
X123868750Y-54725000D02*
X138068750Y-54725000D01*
X138068750Y-40525000D02*
X123868750Y-40525000D01*
X138068750Y-54725000D02*
X138068750Y-40525000D01*
X195306250Y-21475000D02*
X195306250Y-35675000D01*
X195306250Y-35675000D02*
X209506250Y-35675000D01*
X209506250Y-21475000D02*
X195306250Y-21475000D01*
X209506250Y-35675000D02*
X209506250Y-21475000D01*
X279846000Y-28956000D02*
G75*
G03*
X279846000Y-28956000I-700000J0D01*
G01*
X21475000Y-21475000D02*
X21475000Y-35675000D01*
X21475000Y-35675000D02*
X35675000Y-35675000D01*
X35675000Y-21475000D02*
X21475000Y-21475000D01*
X35675000Y-35675000D02*
X35675000Y-21475000D01*
X270416000Y-48812000D02*
X277716000Y-48812000D01*
X270416000Y-54312000D02*
X277716000Y-54312000D01*
X277716000Y-54312000D02*
X277716000Y-53162000D01*
X26237500Y-40525000D02*
X26237500Y-54725000D01*
X26237500Y-54725000D02*
X40437500Y-54725000D01*
X40437500Y-40525000D02*
X26237500Y-40525000D01*
X40437500Y-54725000D02*
X40437500Y-40525000D01*
X35762500Y-59575000D02*
X35762500Y-73775000D01*
X35762500Y-73775000D02*
X49962500Y-73775000D01*
X49962500Y-59575000D02*
X35762500Y-59575000D01*
X49962500Y-73775000D02*
X49962500Y-59575000D01*
X259653000Y-31115000D02*
G75*
G03*
X259653000Y-31115000I-700000J0D01*
G01*
X273496000Y-28956000D02*
G75*
G03*
X273496000Y-28956000I-700000J0D01*
G01*
X270289000Y-40176000D02*
X277589000Y-40176000D01*
X270289000Y-45676000D02*
X277589000Y-45676000D01*
X277589000Y-45676000D02*
X277589000Y-44526000D01*
X114343750Y-59575000D02*
X114343750Y-73775000D01*
X114343750Y-73775000D02*
X128543750Y-73775000D01*
X128543750Y-59575000D02*
X114343750Y-59575000D01*
X128543750Y-73775000D02*
X128543750Y-59575000D01*
X190543750Y-59575000D02*
X190543750Y-73775000D01*
X190543750Y-73775000D02*
X204743750Y-73775000D01*
X204743750Y-59575000D02*
X190543750Y-59575000D01*
X204743750Y-73775000D02*
X204743750Y-59575000D01*
X142918750Y-40525000D02*
X142918750Y-54725000D01*
X142918750Y-54725000D02*
X157118750Y-54725000D01*
X157118750Y-40525000D02*
X142918750Y-40525000D01*
X157118750Y-54725000D02*
X157118750Y-40525000D01*
X114343750Y-78625000D02*
X114343750Y-92825000D01*
X114343750Y-92825000D02*
X128543750Y-92825000D01*
X128543750Y-78625000D02*
X114343750Y-78625000D01*
X128543750Y-92825000D02*
X128543750Y-78625000D01*
X270289000Y-57702000D02*
X277589000Y-57702000D01*
X270289000Y-63202000D02*
X277589000Y-63202000D01*
X277589000Y-63202000D02*
X277589000Y-62052000D01*
X104818750Y-40525000D02*
X104818750Y-54725000D01*
X104818750Y-54725000D02*
X119018750Y-54725000D01*
X119018750Y-40525000D02*
X104818750Y-40525000D01*
X119018750Y-54725000D02*
X119018750Y-40525000D01*
X64337500Y-78625000D02*
X64337500Y-92825000D01*
X64337500Y-92825000D02*
X78537500Y-92825000D01*
X78537500Y-78625000D02*
X64337500Y-78625000D01*
X78537500Y-92825000D02*
X78537500Y-78625000D01*
X202450000Y-78625000D02*
X202450000Y-92825000D01*
X202450000Y-92825000D02*
X216650000Y-92825000D01*
X216650000Y-78625000D02*
X202450000Y-78625000D01*
X216650000Y-92825000D02*
X216650000Y-78625000D01*
X266743750Y-78625000D02*
X266743750Y-92825000D01*
X266743750Y-92825000D02*
X280943750Y-92825000D01*
X280943750Y-78625000D02*
X266743750Y-78625000D01*
X280943750Y-92825000D02*
X280943750Y-78625000D01*
X100056250Y-21475000D02*
X100056250Y-35675000D01*
X100056250Y-35675000D02*
X114256250Y-35675000D01*
X114256250Y-21475000D02*
X100056250Y-21475000D01*
X114256250Y-35675000D02*
X114256250Y-21475000D01*
X261812000Y-50927000D02*
G75*
G03*
X261812000Y-50927000I-700000J0D01*
G01*
X264860000Y-49149000D02*
G75*
G03*
X264860000Y-49149000I-700000J0D01*
G01*
X219118750Y-40525000D02*
X219118750Y-54725000D01*
X219118750Y-54725000D02*
X233318750Y-54725000D01*
X233318750Y-40525000D02*
X219118750Y-40525000D01*
X233318750Y-54725000D02*
X233318750Y-40525000D01*
X66718750Y-40525000D02*
X66718750Y-54725000D01*
X66718750Y-54725000D02*
X80918750Y-54725000D01*
X80918750Y-40525000D02*
X66718750Y-40525000D01*
X80918750Y-54725000D02*
X80918750Y-40525000D01*
D12*
X281114500Y-70231000D02*
X269049500Y-70231000D01*
X269049500Y-70231000D02*
X269049500Y-32131000D01*
X269049500Y-32131000D02*
X281114500Y-32131000D01*
X281114500Y-32131000D02*
X281114500Y-70231000D01*
D13*
X281932000Y-72517000D02*
G75*
G03*
X281932000Y-72517000I-500000J0D01*
G01*
D11*
X61956250Y-21475000D02*
X61956250Y-35675000D01*
X61956250Y-35675000D02*
X76156250Y-35675000D01*
X76156250Y-21475000D02*
X61956250Y-21475000D01*
X76156250Y-35675000D02*
X76156250Y-21475000D01*
X277814000Y-28956000D02*
G75*
G03*
X277814000Y-28956000I-700000J0D01*
G01*
%LPC*%
D14*
X230663750Y-85725000D03*
D15*
X231933750Y-83185000D03*
D16*
X235743750Y-85725000D03*
D15*
X238283750Y-80645000D03*
D14*
X240823750Y-85725000D03*
X44926250Y-28575000D03*
D15*
X46196250Y-26035000D03*
D16*
X50006250Y-28575000D03*
D15*
X52546250Y-23495000D03*
D14*
X55086250Y-28575000D03*
X230663750Y-66675000D03*
D15*
X231933750Y-64135000D03*
D16*
X235743750Y-66675000D03*
D15*
X238283750Y-61595000D03*
D14*
X240823750Y-66675000D03*
X42545000Y-85725000D03*
D15*
X43815000Y-83185000D03*
D16*
X47625000Y-85725000D03*
D15*
X50165000Y-80645000D03*
D14*
X52705000Y-85725000D03*
D17*
X263144000Y-50927000D03*
D14*
X78263750Y-66675000D03*
D15*
X79533750Y-64135000D03*
D16*
X83343750Y-66675000D03*
D15*
X85883750Y-61595000D03*
D14*
X88423750Y-66675000D03*
X159226250Y-28575000D03*
D15*
X160496250Y-26035000D03*
D16*
X164306250Y-28575000D03*
D15*
X166846250Y-23495000D03*
D14*
X169386250Y-28575000D03*
X154463750Y-66675000D03*
D15*
X155733750Y-64135000D03*
D16*
X159543750Y-66675000D03*
D15*
X162083750Y-61595000D03*
D14*
X164623750Y-66675000D03*
D17*
X258953000Y-33147000D03*
D14*
X183038750Y-47625000D03*
D15*
X184308750Y-45085000D03*
D16*
X188118750Y-47625000D03*
D15*
X190658750Y-42545000D03*
D14*
X193198750Y-47625000D03*
X163988750Y-47625000D03*
D15*
X165258750Y-45085000D03*
D16*
X169068750Y-47625000D03*
D15*
X171608750Y-42545000D03*
D14*
X174148750Y-47625000D03*
X121126250Y-28575000D03*
D15*
X122396250Y-26035000D03*
D16*
X126206250Y-28575000D03*
D15*
X128746250Y-23495000D03*
D14*
X131286250Y-28575000D03*
X49688750Y-47625000D03*
D15*
X50958750Y-45085000D03*
D16*
X54768750Y-47625000D03*
D15*
X57308750Y-42545000D03*
D14*
X59848750Y-47625000D03*
X237807500Y-28575000D03*
D15*
X239077500Y-26035000D03*
D16*
X242887500Y-28575000D03*
D15*
X245427500Y-23495000D03*
D14*
X247967500Y-28575000D03*
X242570000Y-47625000D03*
D15*
X243840000Y-45085000D03*
D16*
X247650000Y-47625000D03*
D15*
X250190000Y-42545000D03*
D14*
X252730000Y-47625000D03*
X183038750Y-85725000D03*
D15*
X184308750Y-83185000D03*
D16*
X188118750Y-85725000D03*
D15*
X190658750Y-80645000D03*
D14*
X193198750Y-85725000D03*
X154463750Y-85725000D03*
D15*
X155733750Y-83185000D03*
D16*
X159543750Y-85725000D03*
D15*
X162083750Y-80645000D03*
D14*
X164623750Y-85725000D03*
X211613750Y-66675000D03*
D15*
X212883750Y-64135000D03*
D16*
X216693750Y-66675000D03*
D15*
X219233750Y-61595000D03*
D14*
X221773750Y-66675000D03*
D17*
X274955000Y-28956000D03*
D14*
X87788750Y-47625000D03*
D15*
X89058750Y-45085000D03*
D16*
X92868750Y-47625000D03*
D15*
X95408750Y-42545000D03*
D14*
X97948750Y-47625000D03*
X173513750Y-66675000D03*
D15*
X174783750Y-64135000D03*
D16*
X178593750Y-66675000D03*
D15*
X181133750Y-61595000D03*
D14*
X183673750Y-66675000D03*
X59213750Y-66675000D03*
D15*
X60483750Y-64135000D03*
D16*
X64293750Y-66675000D03*
D15*
X66833750Y-61595000D03*
D14*
X69373750Y-66675000D03*
D17*
X258953000Y-29083000D03*
D18*
X253619000Y-52324000D03*
D14*
X135413750Y-66675000D03*
D15*
X136683750Y-64135000D03*
D16*
X140493750Y-66675000D03*
D15*
X143033750Y-61595000D03*
D14*
X145573750Y-66675000D03*
X249713750Y-85725000D03*
D15*
X250983750Y-83185000D03*
D16*
X254793750Y-85725000D03*
D15*
X257333750Y-80645000D03*
D14*
X259873750Y-85725000D03*
D17*
X262128000Y-49149000D03*
D14*
X216376250Y-28575000D03*
D15*
X217646250Y-26035000D03*
D16*
X221456250Y-28575000D03*
D15*
X223996250Y-23495000D03*
D14*
X226536250Y-28575000D03*
X178276250Y-28575000D03*
D15*
X179546250Y-26035000D03*
D16*
X183356250Y-28575000D03*
D15*
X185896250Y-23495000D03*
D14*
X188436250Y-28575000D03*
X249713750Y-66675000D03*
D15*
X250983750Y-64135000D03*
D16*
X254793750Y-66675000D03*
D15*
X257333750Y-61595000D03*
D14*
X259873750Y-66675000D03*
X83026250Y-28575000D03*
D15*
X84296250Y-26035000D03*
D16*
X88106250Y-28575000D03*
D15*
X90646250Y-23495000D03*
D14*
X93186250Y-28575000D03*
X87788750Y-85725000D03*
D15*
X89058750Y-83185000D03*
D16*
X92868750Y-85725000D03*
D15*
X95408750Y-80645000D03*
D14*
X97948750Y-85725000D03*
X202088750Y-47625000D03*
D15*
X203358750Y-45085000D03*
D16*
X207168750Y-47625000D03*
D15*
X209708750Y-42545000D03*
D14*
X212248750Y-47625000D03*
X97313750Y-66675000D03*
D15*
X98583750Y-64135000D03*
D16*
X102393750Y-66675000D03*
D15*
X104933750Y-61595000D03*
D14*
X107473750Y-66675000D03*
X140176250Y-28575000D03*
D15*
X141446250Y-26035000D03*
D16*
X145256250Y-28575000D03*
D15*
X147796250Y-23495000D03*
D14*
X150336250Y-28575000D03*
X125888750Y-47625000D03*
D15*
X127158750Y-45085000D03*
D16*
X130968750Y-47625000D03*
D15*
X133508750Y-42545000D03*
D14*
X136048750Y-47625000D03*
X197326250Y-28575000D03*
D15*
X198596250Y-26035000D03*
D16*
X202406250Y-28575000D03*
D15*
X204946250Y-23495000D03*
D14*
X207486250Y-28575000D03*
D18*
X253619000Y-23876000D03*
D17*
X279146000Y-28956000D03*
D14*
X23495000Y-28575000D03*
D15*
X24765000Y-26035000D03*
D16*
X28575000Y-28575000D03*
D15*
X31115000Y-23495000D03*
D14*
X33655000Y-28575000D03*
D19*
X271616000Y-49912000D03*
X271616000Y-53212000D03*
X276516000Y-53212000D03*
X276516000Y-49912000D03*
D14*
X28257500Y-47625000D03*
D15*
X29527500Y-45085000D03*
D16*
X33337500Y-47625000D03*
D15*
X35877500Y-42545000D03*
D14*
X38417500Y-47625000D03*
X37782500Y-66675000D03*
D15*
X39052500Y-64135000D03*
D16*
X42862500Y-66675000D03*
D15*
X45402500Y-61595000D03*
D14*
X47942500Y-66675000D03*
D17*
X258953000Y-31115000D03*
X272796000Y-28956000D03*
D19*
X271489000Y-41276000D03*
X271489000Y-44576000D03*
X276389000Y-44576000D03*
X276389000Y-41276000D03*
D14*
X116363750Y-66675000D03*
D15*
X117633750Y-64135000D03*
D16*
X121443750Y-66675000D03*
D15*
X123983750Y-61595000D03*
D14*
X126523750Y-66675000D03*
X192563750Y-66675000D03*
D15*
X193833750Y-64135000D03*
D16*
X197643750Y-66675000D03*
D15*
X200183750Y-61595000D03*
D14*
X202723750Y-66675000D03*
X144938750Y-47625000D03*
D15*
X146208750Y-45085000D03*
D16*
X150018750Y-47625000D03*
D15*
X152558750Y-42545000D03*
D14*
X155098750Y-47625000D03*
X116363750Y-85725000D03*
D15*
X117633750Y-83185000D03*
D16*
X121443750Y-85725000D03*
D15*
X123983750Y-80645000D03*
D14*
X126523750Y-85725000D03*
D19*
X271489000Y-58802000D03*
X271489000Y-62102000D03*
X276389000Y-62102000D03*
X276389000Y-58802000D03*
D14*
X106838750Y-47625000D03*
D15*
X108108750Y-45085000D03*
D16*
X111918750Y-47625000D03*
D15*
X114458750Y-42545000D03*
D14*
X116998750Y-47625000D03*
X66357500Y-85725000D03*
D15*
X67627500Y-83185000D03*
D16*
X71437500Y-85725000D03*
D15*
X73977500Y-80645000D03*
D14*
X76517500Y-85725000D03*
X204470000Y-85725000D03*
D15*
X205740000Y-83185000D03*
D16*
X209550000Y-85725000D03*
D15*
X212090000Y-80645000D03*
D14*
X214630000Y-85725000D03*
X268763750Y-85725000D03*
D15*
X270033750Y-83185000D03*
D16*
X273843750Y-85725000D03*
D15*
X276383750Y-80645000D03*
D14*
X278923750Y-85725000D03*
X102076250Y-28575000D03*
D15*
X103346250Y-26035000D03*
D16*
X107156250Y-28575000D03*
D15*
X109696250Y-23495000D03*
D14*
X112236250Y-28575000D03*
D17*
X261112000Y-50927000D03*
D18*
X278384000Y-23876000D03*
D17*
X264160000Y-49149000D03*
D14*
X221138750Y-47625000D03*
D15*
X222408750Y-45085000D03*
D16*
X226218750Y-47625000D03*
D15*
X228758750Y-42545000D03*
D14*
X231298750Y-47625000D03*
X68738750Y-47625000D03*
D15*
X70008750Y-45085000D03*
D16*
X73818750Y-47625000D03*
D15*
X76358750Y-42545000D03*
D14*
X78898750Y-47625000D03*
X63976250Y-28575000D03*
D15*
X65246250Y-26035000D03*
D16*
X69056250Y-28575000D03*
D15*
X71596250Y-23495000D03*
D14*
X74136250Y-28575000D03*
D17*
X277114000Y-28956000D03*
D20*
X265969000Y-25338000D03*
X271749000Y-25338000D03*
D21*
X264539000Y-21658000D03*
D22*
X264539000Y-25838000D03*
D21*
X273179000Y-21658000D03*
D22*
X273179000Y-25838000D03*
%LPD*%
M02*
