M48
; DRILL file {KiCad 7.0.2} date Sat 29 Apr 2023 17:09:12 CEST
; FORMAT={-:-/ absolute / metric / decimal}
; #@! TF.CreationDate,2023-04-29T17:09:12+02:00
; #@! TF.GenerationSoftware,Kicad,Pcbnew,7.0.2
; #@! TF.FileFunction,NonPlated,1,2,NPTH
FMAT,2
METRIC
; #@! TA.AperFunction,NonPlated,NPTH,ComponentDrill
T1C0.650
; #@! TA.AperFunction,NonPlated,NPTH,ComponentDrill
T2C1.750
; #@! TA.AperFunction,NonPlated,NPTH,ComponentDrill
T3C4.000
%
G90
G05
T1
X265.969Y-25.338
X271.749Y-25.338
T2
X23.495Y-28.575
X28.258Y-47.625
X33.655Y-28.575
X37.782Y-66.675
X38.417Y-47.625
X42.545Y-85.725
X44.926Y-28.575
X47.942Y-66.675
X49.689Y-47.625
X52.705Y-85.725
X55.086Y-28.575
X59.214Y-66.675
X59.849Y-47.625
X63.976Y-28.575
X66.358Y-85.725
X68.739Y-47.625
X69.374Y-66.675
X74.136Y-28.575
X76.517Y-85.725
X78.264Y-66.675
X78.899Y-47.625
X83.026Y-28.575
X87.789Y-47.625
X87.789Y-85.725
X88.424Y-66.675
X93.186Y-28.575
X97.314Y-66.675
X97.949Y-47.625
X97.949Y-85.725
X102.076Y-28.575
X106.839Y-47.625
X107.474Y-66.675
X112.236Y-28.575
X116.364Y-66.675
X116.364Y-85.725
X116.999Y-47.625
X121.126Y-28.575
X125.889Y-47.625
X126.524Y-66.675
X126.524Y-85.725
X131.286Y-28.575
X135.414Y-66.675
X136.049Y-47.625
X140.176Y-28.575
X144.939Y-47.625
X145.574Y-66.675
X150.336Y-28.575
X154.464Y-66.675
X154.464Y-85.725
X155.099Y-47.625
X159.226Y-28.575
X163.989Y-47.625
X164.624Y-66.675
X164.624Y-85.725
X169.386Y-28.575
X173.514Y-66.675
X174.149Y-47.625
X178.276Y-28.575
X183.039Y-47.625
X183.039Y-85.725
X183.674Y-66.675
X188.436Y-28.575
X192.564Y-66.675
X193.199Y-47.625
X193.199Y-85.725
X197.326Y-28.575
X202.089Y-47.625
X202.724Y-66.675
X204.47Y-85.725
X207.486Y-28.575
X211.614Y-66.675
X212.249Y-47.625
X214.63Y-85.725
X216.376Y-28.575
X221.139Y-47.625
X221.774Y-66.675
X226.536Y-28.575
X230.664Y-66.675
X230.664Y-85.725
X231.299Y-47.625
X237.807Y-28.575
X240.824Y-66.675
X240.824Y-85.725
X242.57Y-47.625
X247.968Y-28.575
X249.714Y-66.675
X249.714Y-85.725
X252.73Y-47.625
X259.874Y-66.675
X259.874Y-85.725
X268.764Y-85.725
X278.924Y-85.725
T3
X28.575Y-28.575
X33.337Y-47.625
X42.862Y-66.675
X47.625Y-85.725
X50.006Y-28.575
X54.769Y-47.625
X64.294Y-66.675
X69.056Y-28.575
X71.438Y-85.725
X73.819Y-47.625
X83.344Y-66.675
X88.106Y-28.575
X92.869Y-47.625
X92.869Y-85.725
X102.394Y-66.675
X107.156Y-28.575
X111.919Y-47.625
X121.444Y-66.675
X121.444Y-85.725
X126.206Y-28.575
X130.969Y-47.625
X140.494Y-66.675
X145.256Y-28.575
X150.019Y-47.625
X159.544Y-66.675
X159.544Y-85.725
X164.306Y-28.575
X169.069Y-47.625
X178.594Y-66.675
X183.356Y-28.575
X188.119Y-47.625
X188.119Y-85.725
X197.644Y-66.675
X202.406Y-28.575
X207.169Y-47.625
X209.55Y-85.725
X216.694Y-66.675
X221.456Y-28.575
X226.219Y-47.625
X235.744Y-66.675
X235.744Y-85.725
X242.887Y-28.575
X247.65Y-47.625
X254.794Y-66.675
X254.794Y-85.725
X273.844Y-85.725
T0
M30
