G04 #@! TF.GenerationSoftware,KiCad,Pcbnew,7.0.2*
G04 #@! TF.CreationDate,2023-04-29T17:08:36+02:00*
G04 #@! TF.ProjectId,Tanuki_Ext_PCB,54616e75-6b69-45f4-9578-745f5043422e,rev?*
G04 #@! TF.SameCoordinates,Original*
G04 #@! TF.FileFunction,Soldermask,Bot*
G04 #@! TF.FilePolarity,Negative*
%FSLAX46Y46*%
G04 Gerber Fmt 4.6, Leading zero omitted, Abs format (unit mm)*
G04 Created by KiCad (PCBNEW 7.0.2) date 2023-04-29 17:08:36*
%MOMM*%
%LPD*%
G01*
G04 APERTURE LIST*
G04 Aperture macros list*
%AMRoundRect*
0 Rectangle with rounded corners*
0 $1 Rounding radius*
0 $2 $3 $4 $5 $6 $7 $8 $9 X,Y pos of 4 corners*
0 Add a 4 corners polygon primitive as box body*
4,1,4,$2,$3,$4,$5,$6,$7,$8,$9,$2,$3,0*
0 Add four circle primitives for the rounded corners*
1,1,$1+$1,$2,$3*
1,1,$1+$1,$4,$5*
1,1,$1+$1,$6,$7*
1,1,$1+$1,$8,$9*
0 Add four rect primitives between the rounded corners*
20,1,$1+$1,$2,$3,$4,$5,0*
20,1,$1+$1,$4,$5,$6,$7,0*
20,1,$1+$1,$6,$7,$8,$9,0*
20,1,$1+$1,$8,$9,$2,$3,0*%
G04 Aperture macros list end*
%ADD10RoundRect,0.225000X0.225000X0.250000X-0.225000X0.250000X-0.225000X-0.250000X0.225000X-0.250000X0*%
%ADD11C,1.750000*%
%ADD12C,4.000000*%
%ADD13C,2.500000*%
%ADD14R,1.524000X3.230000*%
%ADD15RoundRect,0.250000X0.300000X0.300000X-0.300000X0.300000X-0.300000X-0.300000X0.300000X-0.300000X0*%
%ADD16RoundRect,0.200000X0.275000X-0.200000X0.275000X0.200000X-0.275000X0.200000X-0.275000X-0.200000X0*%
%ADD17RoundRect,0.200000X-0.275000X0.200000X-0.275000X-0.200000X0.275000X-0.200000X0.275000X0.200000X0*%
%ADD18C,1.500000*%
%ADD19RoundRect,0.050000X0.387500X0.050000X-0.387500X0.050000X-0.387500X-0.050000X0.387500X-0.050000X0*%
%ADD20RoundRect,0.050000X0.050000X0.387500X-0.050000X0.387500X-0.050000X-0.387500X0.050000X-0.387500X0*%
%ADD21R,3.200000X3.200000*%
%ADD22RoundRect,0.225000X0.250000X-0.225000X0.250000X0.225000X-0.250000X0.225000X-0.250000X-0.225000X0*%
%ADD23R,1.500000X1.000000*%
%ADD24RoundRect,0.225000X-0.225000X-0.250000X0.225000X-0.250000X0.225000X0.250000X-0.225000X0.250000X0*%
%ADD25RoundRect,0.200000X0.200000X0.275000X-0.200000X0.275000X-0.200000X-0.275000X0.200000X-0.275000X0*%
%ADD26R,1.400000X1.200000*%
%ADD27R,1.500000X2.000000*%
%ADD28R,3.800000X2.000000*%
%ADD29RoundRect,0.150000X0.150000X-0.650000X0.150000X0.650000X-0.150000X0.650000X-0.150000X-0.650000X0*%
%ADD30C,0.650000*%
%ADD31R,0.300000X1.150000*%
%ADD32O,1.000000X1.600000*%
%ADD33O,1.000000X2.100000*%
%ADD34RoundRect,0.225000X-0.250000X0.225000X-0.250000X-0.225000X0.250000X-0.225000X0.250000X0.225000X0*%
%ADD35R,1.700000X0.900000*%
G04 APERTURE END LIST*
D10*
X264300000Y-36195000D03*
X262750000Y-36195000D03*
D11*
X230663750Y-85725000D03*
D12*
X235743750Y-85725000D03*
D11*
X240823750Y-85725000D03*
D13*
X231933750Y-83185000D03*
X238283750Y-80645000D03*
D11*
X44926250Y-28575000D03*
D12*
X50006250Y-28575000D03*
D11*
X55086250Y-28575000D03*
D13*
X46196250Y-26035000D03*
X52546250Y-23495000D03*
D11*
X230663750Y-66675000D03*
D12*
X235743750Y-66675000D03*
D11*
X240823750Y-66675000D03*
D13*
X231933750Y-64135000D03*
X238283750Y-61595000D03*
D11*
X42545000Y-85725000D03*
D12*
X47625000Y-85725000D03*
D11*
X52705000Y-85725000D03*
D13*
X43815000Y-83185000D03*
X50165000Y-80645000D03*
D11*
X78263750Y-66675000D03*
D12*
X83343750Y-66675000D03*
D11*
X88423750Y-66675000D03*
D13*
X79533750Y-64135000D03*
X85883750Y-61595000D03*
D11*
X159226250Y-28575000D03*
D12*
X164306250Y-28575000D03*
D11*
X169386250Y-28575000D03*
D13*
X160496250Y-26035000D03*
X166846250Y-23495000D03*
D11*
X154463750Y-66675000D03*
D12*
X159543750Y-66675000D03*
D11*
X164623750Y-66675000D03*
D13*
X155733750Y-64135000D03*
X162083750Y-61595000D03*
D11*
X183038750Y-47625000D03*
D12*
X188118750Y-47625000D03*
D11*
X193198750Y-47625000D03*
D13*
X184308750Y-45085000D03*
X190658750Y-42545000D03*
D11*
X163988750Y-47625000D03*
D12*
X169068750Y-47625000D03*
D11*
X174148750Y-47625000D03*
D13*
X165258750Y-45085000D03*
X171608750Y-42545000D03*
D11*
X121126250Y-28575000D03*
D12*
X126206250Y-28575000D03*
D11*
X131286250Y-28575000D03*
D13*
X122396250Y-26035000D03*
X128746250Y-23495000D03*
D11*
X49688750Y-47625000D03*
D12*
X54768750Y-47625000D03*
D11*
X59848750Y-47625000D03*
D13*
X50958750Y-45085000D03*
X57308750Y-42545000D03*
D11*
X237807500Y-28575000D03*
D12*
X242887500Y-28575000D03*
D11*
X247967500Y-28575000D03*
D13*
X239077500Y-26035000D03*
X245427500Y-23495000D03*
D11*
X242570000Y-47625000D03*
D12*
X247650000Y-47625000D03*
D11*
X252730000Y-47625000D03*
D13*
X243840000Y-45085000D03*
X250190000Y-42545000D03*
D11*
X183038750Y-85725000D03*
D12*
X188118750Y-85725000D03*
D11*
X193198750Y-85725000D03*
D13*
X184308750Y-83185000D03*
X190658750Y-80645000D03*
D11*
X154463750Y-85725000D03*
D12*
X159543750Y-85725000D03*
D11*
X164623750Y-85725000D03*
D13*
X155733750Y-83185000D03*
X162083750Y-80645000D03*
D11*
X211613750Y-66675000D03*
D12*
X216693750Y-66675000D03*
D11*
X221773750Y-66675000D03*
D13*
X212883750Y-64135000D03*
X219233750Y-61595000D03*
D11*
X87788750Y-47625000D03*
D12*
X92868750Y-47625000D03*
D11*
X97948750Y-47625000D03*
D13*
X89058750Y-45085000D03*
X95408750Y-42545000D03*
D11*
X173513750Y-66675000D03*
D12*
X178593750Y-66675000D03*
D11*
X183673750Y-66675000D03*
D13*
X174783750Y-64135000D03*
X181133750Y-61595000D03*
D11*
X59213750Y-66675000D03*
D12*
X64293750Y-66675000D03*
D11*
X69373750Y-66675000D03*
D13*
X60483750Y-64135000D03*
X66833750Y-61595000D03*
D11*
X135413750Y-66675000D03*
D12*
X140493750Y-66675000D03*
D11*
X145573750Y-66675000D03*
D13*
X136683750Y-64135000D03*
X143033750Y-61595000D03*
D11*
X249713750Y-85725000D03*
D12*
X254793750Y-85725000D03*
D11*
X259873750Y-85725000D03*
D13*
X250983750Y-83185000D03*
X257333750Y-80645000D03*
D11*
X216376250Y-28575000D03*
D12*
X221456250Y-28575000D03*
D11*
X226536250Y-28575000D03*
D13*
X217646250Y-26035000D03*
X223996250Y-23495000D03*
D11*
X178276250Y-28575000D03*
D12*
X183356250Y-28575000D03*
D11*
X188436250Y-28575000D03*
D13*
X179546250Y-26035000D03*
X185896250Y-23495000D03*
D11*
X249713750Y-66675000D03*
D12*
X254793750Y-66675000D03*
D11*
X259873750Y-66675000D03*
D13*
X250983750Y-64135000D03*
X257333750Y-61595000D03*
D11*
X83026250Y-28575000D03*
D12*
X88106250Y-28575000D03*
D11*
X93186250Y-28575000D03*
D13*
X84296250Y-26035000D03*
X90646250Y-23495000D03*
D11*
X87788750Y-85725000D03*
D12*
X92868750Y-85725000D03*
D11*
X97948750Y-85725000D03*
D13*
X89058750Y-83185000D03*
X95408750Y-80645000D03*
D11*
X202088750Y-47625000D03*
D12*
X207168750Y-47625000D03*
D11*
X212248750Y-47625000D03*
D13*
X203358750Y-45085000D03*
X209708750Y-42545000D03*
D11*
X97313750Y-66675000D03*
D12*
X102393750Y-66675000D03*
D11*
X107473750Y-66675000D03*
D13*
X98583750Y-64135000D03*
X104933750Y-61595000D03*
D11*
X140176250Y-28575000D03*
D12*
X145256250Y-28575000D03*
D11*
X150336250Y-28575000D03*
D13*
X141446250Y-26035000D03*
X147796250Y-23495000D03*
D11*
X125888750Y-47625000D03*
D12*
X130968750Y-47625000D03*
D11*
X136048750Y-47625000D03*
D13*
X127158750Y-45085000D03*
X133508750Y-42545000D03*
D11*
X197326250Y-28575000D03*
D12*
X202406250Y-28575000D03*
D11*
X207486250Y-28575000D03*
D13*
X198596250Y-26035000D03*
X204946250Y-23495000D03*
D11*
X23495000Y-28575000D03*
D12*
X28575000Y-28575000D03*
D11*
X33655000Y-28575000D03*
D13*
X24765000Y-26035000D03*
X31115000Y-23495000D03*
D11*
X28257500Y-47625000D03*
D12*
X33337500Y-47625000D03*
D11*
X38417500Y-47625000D03*
D13*
X29527500Y-45085000D03*
X35877500Y-42545000D03*
D11*
X37782500Y-66675000D03*
D12*
X42862500Y-66675000D03*
D11*
X47942500Y-66675000D03*
D13*
X39052500Y-64135000D03*
X45402500Y-61595000D03*
D11*
X116363750Y-66675000D03*
D12*
X121443750Y-66675000D03*
D11*
X126523750Y-66675000D03*
D13*
X117633750Y-64135000D03*
X123983750Y-61595000D03*
D11*
X192563750Y-66675000D03*
D12*
X197643750Y-66675000D03*
D11*
X202723750Y-66675000D03*
D13*
X193833750Y-64135000D03*
X200183750Y-61595000D03*
D11*
X144938750Y-47625000D03*
D12*
X150018750Y-47625000D03*
D11*
X155098750Y-47625000D03*
D13*
X146208750Y-45085000D03*
X152558750Y-42545000D03*
D11*
X116363750Y-85725000D03*
D12*
X121443750Y-85725000D03*
D11*
X126523750Y-85725000D03*
D13*
X117633750Y-83185000D03*
X123983750Y-80645000D03*
D11*
X106838750Y-47625000D03*
D12*
X111918750Y-47625000D03*
D11*
X116998750Y-47625000D03*
D13*
X108108750Y-45085000D03*
X114458750Y-42545000D03*
D11*
X66357500Y-85725000D03*
D12*
X71437500Y-85725000D03*
D11*
X76517500Y-85725000D03*
D13*
X67627500Y-83185000D03*
X73977500Y-80645000D03*
D11*
X204470000Y-85725000D03*
D12*
X209550000Y-85725000D03*
D11*
X214630000Y-85725000D03*
D13*
X205740000Y-83185000D03*
X212090000Y-80645000D03*
D11*
X268763750Y-85725000D03*
D12*
X273843750Y-85725000D03*
D11*
X278923750Y-85725000D03*
D13*
X270033750Y-83185000D03*
X276383750Y-80645000D03*
D11*
X102076250Y-28575000D03*
D12*
X107156250Y-28575000D03*
D11*
X112236250Y-28575000D03*
D13*
X103346250Y-26035000D03*
X109696250Y-23495000D03*
D11*
X221138750Y-47625000D03*
D12*
X226218750Y-47625000D03*
D11*
X231298750Y-47625000D03*
D13*
X222408750Y-45085000D03*
X228758750Y-42545000D03*
D11*
X68738750Y-47625000D03*
D12*
X73818750Y-47625000D03*
D11*
X78898750Y-47625000D03*
D13*
X70008750Y-45085000D03*
X76358750Y-42545000D03*
D14*
X278892000Y-72517000D03*
X276352000Y-72517000D03*
X273812000Y-72517000D03*
X271272000Y-72517000D03*
D11*
X63976250Y-28575000D03*
D12*
X69056250Y-28575000D03*
D11*
X74136250Y-28575000D03*
D13*
X65246250Y-26035000D03*
X71596250Y-23495000D03*
D15*
X54740000Y-53340000D03*
X51940000Y-53340000D03*
D16*
X278511000Y-60896000D03*
X278511000Y-59246000D03*
D17*
X267335000Y-35243000D03*
X267335000Y-36893000D03*
D15*
X139830000Y-72390000D03*
X137030000Y-72390000D03*
D17*
X262255000Y-23305000D03*
X262255000Y-24955000D03*
D10*
X264300000Y-40767000D03*
X262750000Y-40767000D03*
D18*
X278384000Y-23876000D03*
D15*
X163960000Y-34290000D03*
X161160000Y-34290000D03*
D19*
X273512500Y-40842500D03*
X273512500Y-41242500D03*
X273512500Y-41642500D03*
X273512500Y-42042500D03*
X273512500Y-42442500D03*
X273512500Y-42842500D03*
X273512500Y-43242500D03*
X273512500Y-43642500D03*
X273512500Y-44042500D03*
X273512500Y-44442500D03*
X273512500Y-44842500D03*
X273512500Y-45242500D03*
X273512500Y-45642500D03*
X273512500Y-46042500D03*
D20*
X272675000Y-46880000D03*
X272275000Y-46880000D03*
X271875000Y-46880000D03*
X271475000Y-46880000D03*
X271075000Y-46880000D03*
X270675000Y-46880000D03*
X270275000Y-46880000D03*
X269875000Y-46880000D03*
X269475000Y-46880000D03*
X269075000Y-46880000D03*
X268675000Y-46880000D03*
X268275000Y-46880000D03*
X267875000Y-46880000D03*
X267475000Y-46880000D03*
D19*
X266637500Y-46042500D03*
X266637500Y-45642500D03*
X266637500Y-45242500D03*
X266637500Y-44842500D03*
X266637500Y-44442500D03*
X266637500Y-44042500D03*
X266637500Y-43642500D03*
X266637500Y-43242500D03*
X266637500Y-42842500D03*
X266637500Y-42442500D03*
X266637500Y-42042500D03*
X266637500Y-41642500D03*
X266637500Y-41242500D03*
X266637500Y-40842500D03*
D20*
X267475000Y-40005000D03*
X267875000Y-40005000D03*
X268275000Y-40005000D03*
X268675000Y-40005000D03*
X269075000Y-40005000D03*
X269475000Y-40005000D03*
X269875000Y-40005000D03*
X270275000Y-40005000D03*
X270675000Y-40005000D03*
X271075000Y-40005000D03*
X271475000Y-40005000D03*
X271875000Y-40005000D03*
X272275000Y-40005000D03*
X272675000Y-40005000D03*
D21*
X270075000Y-43442500D03*
D15*
X42040000Y-72390000D03*
X39240000Y-72390000D03*
X68580000Y-34290000D03*
X65780000Y-34290000D03*
X33150000Y-53340000D03*
X30350000Y-53340000D03*
X49660000Y-34290000D03*
X46860000Y-34290000D03*
X160150000Y-72390000D03*
X157350000Y-72390000D03*
D22*
X270383000Y-33795000D03*
X270383000Y-32245000D03*
D15*
X71250000Y-91440000D03*
X68450000Y-91440000D03*
X202060000Y-34290000D03*
X199260000Y-34290000D03*
X255400000Y-72390000D03*
X252600000Y-72390000D03*
X247780000Y-53340000D03*
X244980000Y-53340000D03*
D22*
X271907000Y-35954000D03*
X271907000Y-34404000D03*
D15*
X120780000Y-91440000D03*
X117980000Y-91440000D03*
X149990000Y-53340000D03*
X147190000Y-53340000D03*
D10*
X266205000Y-49276000D03*
X264655000Y-49276000D03*
D15*
X217300000Y-72390000D03*
X214500000Y-72390000D03*
X26540000Y-34290000D03*
X29340000Y-34290000D03*
X274450000Y-91440000D03*
X271650000Y-91440000D03*
X235080000Y-91440000D03*
X232280000Y-91440000D03*
X92840000Y-53340000D03*
X90040000Y-53340000D03*
X221110000Y-34290000D03*
X218310000Y-34290000D03*
D18*
X278384000Y-90043000D03*
D15*
X47120000Y-91440000D03*
X44320000Y-91440000D03*
X236220000Y-72390000D03*
X233420000Y-72390000D03*
X188090000Y-53340000D03*
X185290000Y-53340000D03*
D23*
X273812000Y-77485000D03*
X273812000Y-76185000D03*
D24*
X276212000Y-44450000D03*
X277762000Y-44450000D03*
D15*
X101730000Y-72390000D03*
X98930000Y-72390000D03*
D25*
X278574000Y-57658000D03*
X276924000Y-57658000D03*
D22*
X273812000Y-53099000D03*
X273812000Y-51549000D03*
D15*
X87760000Y-34290000D03*
X84960000Y-34290000D03*
X130940000Y-53340000D03*
X128140000Y-53340000D03*
X158750000Y-91440000D03*
X155950000Y-91440000D03*
D16*
X267716000Y-52387000D03*
X267716000Y-50737000D03*
D24*
X259575000Y-29210000D03*
X261125000Y-29210000D03*
D15*
X179070000Y-72390000D03*
X176270000Y-72390000D03*
D26*
X269664000Y-51220000D03*
X271864000Y-51220000D03*
X271864000Y-52920000D03*
X269664000Y-52920000D03*
D15*
X144910000Y-34290000D03*
X142110000Y-34290000D03*
X111890000Y-53340000D03*
X109090000Y-53340000D03*
X168910000Y-53340000D03*
X166110000Y-53340000D03*
X207140000Y-53340000D03*
X204340000Y-53340000D03*
X242570000Y-34290000D03*
X239770000Y-34290000D03*
X254130000Y-91440000D03*
X251330000Y-91440000D03*
X92840000Y-91440000D03*
X90040000Y-91440000D03*
D10*
X264300000Y-44450000D03*
X262750000Y-44450000D03*
X264300000Y-37719000D03*
X262750000Y-37719000D03*
D15*
X188090000Y-91440000D03*
X185290000Y-91440000D03*
D22*
X270383000Y-36843000D03*
X270383000Y-35293000D03*
D27*
X255002000Y-31267000D03*
X257302000Y-31267000D03*
D28*
X257302000Y-37567000D03*
D27*
X259602000Y-31267000D03*
D15*
X183010000Y-34290000D03*
X180210000Y-34290000D03*
D22*
X279527000Y-27572000D03*
X279527000Y-26022000D03*
D15*
X73790000Y-53340000D03*
X70990000Y-53340000D03*
X198250000Y-72390000D03*
X195450000Y-72390000D03*
X226190000Y-53340000D03*
X223390000Y-53340000D03*
D29*
X279273000Y-36747000D03*
X278003000Y-36747000D03*
X276733000Y-36747000D03*
X275463000Y-36747000D03*
X275463000Y-29547000D03*
X276733000Y-29547000D03*
X278003000Y-29547000D03*
X279273000Y-29547000D03*
D30*
X265969000Y-25338000D03*
X271749000Y-25338000D03*
D31*
X265509000Y-26403000D03*
X266309000Y-26403000D03*
X267609000Y-26403000D03*
X268609000Y-26403000D03*
X269109000Y-26403000D03*
X270109000Y-26403000D03*
X271409000Y-26403000D03*
X272209000Y-26403000D03*
X271909000Y-26403000D03*
X271109000Y-26403000D03*
X270609000Y-26403000D03*
X269609000Y-26403000D03*
X268109000Y-26403000D03*
X267109000Y-26403000D03*
X266609000Y-26403000D03*
X265809000Y-26403000D03*
D32*
X264539000Y-21658000D03*
D33*
X264539000Y-25838000D03*
D32*
X273179000Y-21658000D03*
D33*
X273179000Y-25838000D03*
D24*
X276212000Y-39751000D03*
X277762000Y-39751000D03*
X258940000Y-39751000D03*
X260490000Y-39751000D03*
D15*
X209680000Y-91440000D03*
X206880000Y-91440000D03*
X106810000Y-34290000D03*
X104010000Y-34290000D03*
X63760000Y-72390000D03*
X60960000Y-72390000D03*
X125860000Y-34290000D03*
X123060000Y-34290000D03*
D34*
X267716000Y-53835000D03*
X267716000Y-55385000D03*
D23*
X271272000Y-77485000D03*
X271272000Y-76185000D03*
D35*
X275971000Y-62660000D03*
X275971000Y-59260000D03*
D18*
X22606000Y-90043000D03*
D15*
X82550000Y-72390000D03*
X79750000Y-72390000D03*
D10*
X264300000Y-39243000D03*
X262750000Y-39243000D03*
X266205000Y-50800000D03*
X264655000Y-50800000D03*
D15*
X120780000Y-72390000D03*
X117980000Y-72390000D03*
D17*
X275590000Y-23305000D03*
X275590000Y-24955000D03*
X268859000Y-35243000D03*
X268859000Y-36893000D03*
M02*
