M48
; DRILL file {KiCad 7.0.2} date Sat 29 Apr 2023 17:09:12 CEST
; FORMAT={-:-/ absolute / metric / decimal}
; #@! TF.CreationDate,2023-04-29T17:09:12+02:00
; #@! TF.GenerationSoftware,Kicad,Pcbnew,7.0.2
; #@! TF.FileFunction,Plated,1,2,PTH
FMAT,2
METRIC
; #@! TA.AperFunction,Plated,PTH,ViaDrill
T1C0.400
; #@! TA.AperFunction,Plated,PTH,ComponentDrill
T2C0.600
; #@! TA.AperFunction,Plated,PTH,ComponentDrill
T3C1.500
%
G90
G05
T1
X24.892Y-41.275
X28.448Y-66.802
X29.21Y-89.789
X38.608Y-26.797
X41.656Y-43.815
X53.467Y-67.183
X59.69Y-85.217
X60.198Y-27.178
X63.881Y-44.704
X74.041Y-65.659
X78.74Y-28.575
X80.645Y-84.328
X83.058Y-45.212
X93.472Y-63.754
X97.536Y-29.21
X101.092Y-45.974
X103.378Y-83.566
X112.395Y-64.897
X117.348Y-22.352
X120.65Y-46.736
X131.699Y-68.707
X133.731Y-84.582
X136.144Y-23.241
X142.367Y-45.847
X148.209Y-84.455
X149.225Y-63.754
X155.575Y-22.86
X158.623Y-47.752
X169.799Y-66.802
X171.45Y-84.709
X175.133Y-28.321
X179.197Y-44.704
X188.087Y-64.516
X197.993Y-82.931
X198.501Y-46.863
X206.375Y-63.119
X208.153Y-32.004
X216.408Y-47.498
X219.456Y-81.915
X227.457Y-64.262
X233.426Y-29.845
X237.109Y-47.752
X244.348Y-82.296
X245.237Y-64.643
X252.984Y-21.59
X257.302Y-47.752
X258.953Y-34.671
X260.731Y-47.371
X261.597Y-44.374
X262.89Y-62.611
X263.652Y-29.972
X264.033Y-87.122
X264.541Y-54.356
X265.557Y-56.119
X265.557Y-59.223
X265.601Y-42.009
X265.684Y-47.695
X266.192Y-32.385
X266.319Y-28.067
X267.225Y-62.247
X267.64Y-48.472
X267.814Y-45.759
X268.478Y-21.717
X268.635Y-48.599
X269.24Y-55.626
X270.002Y-64.389
X270.129Y-45.642
X270.383Y-30.607
X270.891Y-28.575
X271.993Y-43.526
X272.669Y-32.893
X273.685Y-49.53
X274.447Y-39.497
X275.608Y-32.893
X276.352Y-34.544
X277.802Y-41.981
X278.578Y-42.657
X279.021Y-43.561
X279.146Y-22.606
X279.527Y-48.514
X279.908Y-62.992
X280.02Y-44.577
X280.375Y-42.515
X280.416Y-40.513
X280.543Y-76.454
T3
X24.765Y-26.035
X29.527Y-45.085
X31.115Y-23.495
X35.877Y-42.545
X39.052Y-64.135
X43.815Y-83.185
X45.402Y-61.595
X46.196Y-26.035
X50.165Y-80.645
X50.959Y-45.085
X52.546Y-23.495
X57.309Y-42.545
X60.484Y-64.135
X65.246Y-26.035
X66.834Y-61.595
X67.627Y-83.185
X70.009Y-45.085
X71.596Y-23.495
X73.977Y-80.645
X76.359Y-42.545
X79.534Y-64.135
X84.296Y-26.035
X85.884Y-61.595
X89.059Y-45.085
X89.059Y-83.185
X90.646Y-23.495
X95.409Y-42.545
X95.409Y-80.645
X98.584Y-64.135
X103.346Y-26.035
X104.934Y-61.595
X108.109Y-45.085
X109.696Y-23.495
X114.459Y-42.545
X117.634Y-64.135
X117.634Y-83.185
X122.396Y-26.035
X123.984Y-61.595
X123.984Y-80.645
X127.159Y-45.085
X128.746Y-23.495
X133.509Y-42.545
X136.684Y-64.135
X141.446Y-26.035
X143.034Y-61.595
X146.209Y-45.085
X147.796Y-23.495
X152.559Y-42.545
X155.734Y-64.135
X155.734Y-83.185
X160.496Y-26.035
X162.084Y-61.595
X162.084Y-80.645
X165.259Y-45.085
X166.846Y-23.495
X171.609Y-42.545
X174.784Y-64.135
X179.546Y-26.035
X181.134Y-61.595
X184.309Y-45.085
X184.309Y-83.185
X185.896Y-23.495
X190.659Y-42.545
X190.659Y-80.645
X193.834Y-64.135
X198.596Y-26.035
X200.184Y-61.595
X203.359Y-45.085
X204.946Y-23.495
X205.74Y-83.185
X209.709Y-42.545
X212.09Y-80.645
X212.884Y-64.135
X217.646Y-26.035
X219.234Y-61.595
X222.409Y-45.085
X223.996Y-23.495
X228.759Y-42.545
X231.934Y-64.135
X231.934Y-83.185
X238.284Y-61.595
X238.284Y-80.645
X239.077Y-26.035
X243.84Y-45.085
X245.427Y-23.495
X250.19Y-42.545
X250.984Y-64.135
X250.984Y-83.185
X257.334Y-61.595
X257.334Y-80.645
X270.034Y-83.185
X276.384Y-80.645
T2
X264.539Y-21.358G85X264.539Y-21.958
G05
X264.539Y-25.288G85X264.539Y-26.388
G05
X273.179Y-21.358G85X273.179Y-21.958
G05
X273.179Y-25.288G85X273.179Y-26.388
G05
T0
M30
