G04 #@! TF.GenerationSoftware,KiCad,Pcbnew,7.0.2*
G04 #@! TF.CreationDate,2023-04-29T17:08:36+02:00*
G04 #@! TF.ProjectId,Tanuki_Ext_PCB,54616e75-6b69-45f4-9578-745f5043422e,rev?*
G04 #@! TF.SameCoordinates,Original*
G04 #@! TF.FileFunction,Paste,Bot*
G04 #@! TF.FilePolarity,Positive*
%FSLAX46Y46*%
G04 Gerber Fmt 4.6, Leading zero omitted, Abs format (unit mm)*
G04 Created by KiCad (PCBNEW 7.0.2) date 2023-04-29 17:08:36*
%MOMM*%
%LPD*%
G01*
G04 APERTURE LIST*
G04 Aperture macros list*
%AMRoundRect*
0 Rectangle with rounded corners*
0 $1 Rounding radius*
0 $2 $3 $4 $5 $6 $7 $8 $9 X,Y pos of 4 corners*
0 Add a 4 corners polygon primitive as box body*
4,1,4,$2,$3,$4,$5,$6,$7,$8,$9,$2,$3,0*
0 Add four circle primitives for the rounded corners*
1,1,$1+$1,$2,$3*
1,1,$1+$1,$4,$5*
1,1,$1+$1,$6,$7*
1,1,$1+$1,$8,$9*
0 Add four rect primitives between the rounded corners*
20,1,$1+$1,$2,$3,$4,$5,0*
20,1,$1+$1,$4,$5,$6,$7,0*
20,1,$1+$1,$6,$7,$8,$9,0*
20,1,$1+$1,$8,$9,$2,$3,0*%
G04 Aperture macros list end*
%ADD10RoundRect,0.225000X0.225000X0.250000X-0.225000X0.250000X-0.225000X-0.250000X0.225000X-0.250000X0*%
%ADD11R,1.524000X3.230000*%
%ADD12RoundRect,0.250000X0.300000X0.300000X-0.300000X0.300000X-0.300000X-0.300000X0.300000X-0.300000X0*%
%ADD13RoundRect,0.200000X0.275000X-0.200000X0.275000X0.200000X-0.275000X0.200000X-0.275000X-0.200000X0*%
%ADD14RoundRect,0.200000X-0.275000X0.200000X-0.275000X-0.200000X0.275000X-0.200000X0.275000X0.200000X0*%
%ADD15RoundRect,0.249999X0.395001X0.395001X-0.395001X0.395001X-0.395001X-0.395001X0.395001X-0.395001X0*%
%ADD16RoundRect,0.050000X0.387500X0.050000X-0.387500X0.050000X-0.387500X-0.050000X0.387500X-0.050000X0*%
%ADD17RoundRect,0.050000X0.050000X0.387500X-0.050000X0.387500X-0.050000X-0.387500X0.050000X-0.387500X0*%
%ADD18RoundRect,0.225000X0.250000X-0.225000X0.250000X0.225000X-0.250000X0.225000X-0.250000X-0.225000X0*%
%ADD19RoundRect,0.225000X-0.225000X-0.250000X0.225000X-0.250000X0.225000X0.250000X-0.225000X0.250000X0*%
%ADD20RoundRect,0.200000X0.200000X0.275000X-0.200000X0.275000X-0.200000X-0.275000X0.200000X-0.275000X0*%
%ADD21R,1.400000X1.200000*%
%ADD22R,1.500000X2.000000*%
%ADD23R,3.800000X2.000000*%
%ADD24RoundRect,0.150000X0.150000X-0.650000X0.150000X0.650000X-0.150000X0.650000X-0.150000X-0.650000X0*%
%ADD25R,0.300000X1.150000*%
%ADD26RoundRect,0.225000X-0.250000X0.225000X-0.250000X-0.225000X0.250000X-0.225000X0.250000X0.225000X0*%
%ADD27R,1.700000X0.900000*%
G04 APERTURE END LIST*
D10*
X264300000Y-36195000D03*
X262750000Y-36195000D03*
D11*
X278892000Y-72517000D03*
X276352000Y-72517000D03*
X273812000Y-72517000D03*
X271272000Y-72517000D03*
D12*
X54740000Y-53340000D03*
X51940000Y-53340000D03*
D13*
X278511000Y-60896000D03*
X278511000Y-59246000D03*
D14*
X267335000Y-35243000D03*
X267335000Y-36893000D03*
D12*
X139830000Y-72390000D03*
X137030000Y-72390000D03*
D14*
X262255000Y-23305000D03*
X262255000Y-24955000D03*
D10*
X264300000Y-40767000D03*
X262750000Y-40767000D03*
D12*
X163960000Y-34290000D03*
X161160000Y-34290000D03*
D15*
X270875000Y-44242500D03*
X270875000Y-42642500D03*
X269275000Y-44242500D03*
X269275000Y-42642500D03*
D16*
X273512500Y-40842500D03*
X273512500Y-41242500D03*
X273512500Y-41642500D03*
X273512500Y-42042500D03*
X273512500Y-42442500D03*
X273512500Y-42842500D03*
X273512500Y-43242500D03*
X273512500Y-43642500D03*
X273512500Y-44042500D03*
X273512500Y-44442500D03*
X273512500Y-44842500D03*
X273512500Y-45242500D03*
X273512500Y-45642500D03*
X273512500Y-46042500D03*
D17*
X272675000Y-46880000D03*
X272275000Y-46880000D03*
X271875000Y-46880000D03*
X271475000Y-46880000D03*
X271075000Y-46880000D03*
X270675000Y-46880000D03*
X270275000Y-46880000D03*
X269875000Y-46880000D03*
X269475000Y-46880000D03*
X269075000Y-46880000D03*
X268675000Y-46880000D03*
X268275000Y-46880000D03*
X267875000Y-46880000D03*
X267475000Y-46880000D03*
D16*
X266637500Y-46042500D03*
X266637500Y-45642500D03*
X266637500Y-45242500D03*
X266637500Y-44842500D03*
X266637500Y-44442500D03*
X266637500Y-44042500D03*
X266637500Y-43642500D03*
X266637500Y-43242500D03*
X266637500Y-42842500D03*
X266637500Y-42442500D03*
X266637500Y-42042500D03*
X266637500Y-41642500D03*
X266637500Y-41242500D03*
X266637500Y-40842500D03*
D17*
X267475000Y-40005000D03*
X267875000Y-40005000D03*
X268275000Y-40005000D03*
X268675000Y-40005000D03*
X269075000Y-40005000D03*
X269475000Y-40005000D03*
X269875000Y-40005000D03*
X270275000Y-40005000D03*
X270675000Y-40005000D03*
X271075000Y-40005000D03*
X271475000Y-40005000D03*
X271875000Y-40005000D03*
X272275000Y-40005000D03*
X272675000Y-40005000D03*
D12*
X42040000Y-72390000D03*
X39240000Y-72390000D03*
X68580000Y-34290000D03*
X65780000Y-34290000D03*
X33150000Y-53340000D03*
X30350000Y-53340000D03*
X49660000Y-34290000D03*
X46860000Y-34290000D03*
X160150000Y-72390000D03*
X157350000Y-72390000D03*
D18*
X270383000Y-33795000D03*
X270383000Y-32245000D03*
D12*
X71250000Y-91440000D03*
X68450000Y-91440000D03*
X202060000Y-34290000D03*
X199260000Y-34290000D03*
X255400000Y-72390000D03*
X252600000Y-72390000D03*
X247780000Y-53340000D03*
X244980000Y-53340000D03*
D18*
X271907000Y-35954000D03*
X271907000Y-34404000D03*
D12*
X120780000Y-91440000D03*
X117980000Y-91440000D03*
X149990000Y-53340000D03*
X147190000Y-53340000D03*
D10*
X266205000Y-49276000D03*
X264655000Y-49276000D03*
D12*
X217300000Y-72390000D03*
X214500000Y-72390000D03*
X26540000Y-34290000D03*
X29340000Y-34290000D03*
X274450000Y-91440000D03*
X271650000Y-91440000D03*
X235080000Y-91440000D03*
X232280000Y-91440000D03*
X92840000Y-53340000D03*
X90040000Y-53340000D03*
X221110000Y-34290000D03*
X218310000Y-34290000D03*
X47120000Y-91440000D03*
X44320000Y-91440000D03*
X236220000Y-72390000D03*
X233420000Y-72390000D03*
X188090000Y-53340000D03*
X185290000Y-53340000D03*
D19*
X276212000Y-44450000D03*
X277762000Y-44450000D03*
D12*
X101730000Y-72390000D03*
X98930000Y-72390000D03*
D20*
X278574000Y-57658000D03*
X276924000Y-57658000D03*
D18*
X273812000Y-53099000D03*
X273812000Y-51549000D03*
D12*
X87760000Y-34290000D03*
X84960000Y-34290000D03*
X130940000Y-53340000D03*
X128140000Y-53340000D03*
X158750000Y-91440000D03*
X155950000Y-91440000D03*
D13*
X267716000Y-52387000D03*
X267716000Y-50737000D03*
D19*
X259575000Y-29210000D03*
X261125000Y-29210000D03*
D12*
X179070000Y-72390000D03*
X176270000Y-72390000D03*
D21*
X269664000Y-51220000D03*
X271864000Y-51220000D03*
X271864000Y-52920000D03*
X269664000Y-52920000D03*
D12*
X144910000Y-34290000D03*
X142110000Y-34290000D03*
X111890000Y-53340000D03*
X109090000Y-53340000D03*
X168910000Y-53340000D03*
X166110000Y-53340000D03*
X207140000Y-53340000D03*
X204340000Y-53340000D03*
X242570000Y-34290000D03*
X239770000Y-34290000D03*
X254130000Y-91440000D03*
X251330000Y-91440000D03*
X92840000Y-91440000D03*
X90040000Y-91440000D03*
D10*
X264300000Y-44450000D03*
X262750000Y-44450000D03*
X264300000Y-37719000D03*
X262750000Y-37719000D03*
D12*
X188090000Y-91440000D03*
X185290000Y-91440000D03*
D18*
X270383000Y-36843000D03*
X270383000Y-35293000D03*
D22*
X255002000Y-31267000D03*
X257302000Y-31267000D03*
D23*
X257302000Y-37567000D03*
D22*
X259602000Y-31267000D03*
D12*
X183010000Y-34290000D03*
X180210000Y-34290000D03*
D18*
X279527000Y-27572000D03*
X279527000Y-26022000D03*
D12*
X73790000Y-53340000D03*
X70990000Y-53340000D03*
X198250000Y-72390000D03*
X195450000Y-72390000D03*
X226190000Y-53340000D03*
X223390000Y-53340000D03*
D24*
X279273000Y-36747000D03*
X278003000Y-36747000D03*
X276733000Y-36747000D03*
X275463000Y-36747000D03*
X275463000Y-29547000D03*
X276733000Y-29547000D03*
X278003000Y-29547000D03*
X279273000Y-29547000D03*
D25*
X265509000Y-26403000D03*
X266309000Y-26403000D03*
X267609000Y-26403000D03*
X268609000Y-26403000D03*
X269109000Y-26403000D03*
X270109000Y-26403000D03*
X271409000Y-26403000D03*
X272209000Y-26403000D03*
X271909000Y-26403000D03*
X271109000Y-26403000D03*
X270609000Y-26403000D03*
X269609000Y-26403000D03*
X268109000Y-26403000D03*
X267109000Y-26403000D03*
X266609000Y-26403000D03*
X265809000Y-26403000D03*
D19*
X276212000Y-39751000D03*
X277762000Y-39751000D03*
X258940000Y-39751000D03*
X260490000Y-39751000D03*
D12*
X209680000Y-91440000D03*
X206880000Y-91440000D03*
X106810000Y-34290000D03*
X104010000Y-34290000D03*
X63760000Y-72390000D03*
X60960000Y-72390000D03*
X125860000Y-34290000D03*
X123060000Y-34290000D03*
D26*
X267716000Y-53835000D03*
X267716000Y-55385000D03*
D27*
X275971000Y-62660000D03*
X275971000Y-59260000D03*
D12*
X82550000Y-72390000D03*
X79750000Y-72390000D03*
D10*
X264300000Y-39243000D03*
X262750000Y-39243000D03*
X266205000Y-50800000D03*
X264655000Y-50800000D03*
D12*
X120780000Y-72390000D03*
X117980000Y-72390000D03*
D14*
X275590000Y-23305000D03*
X275590000Y-24955000D03*
X268859000Y-35243000D03*
X268859000Y-36893000D03*
M02*
